<?xml version="1.0" encoding="UTF-8" standalone="no"?>
<svg
   xmlns:dc="http://purl.org/dc/elements/1.1/"
   xmlns:cc="http://creativecommons.org/ns#"
   xmlns:rdf="http://www.w3.org/1999/02/22-rdf-syntax-ns#"
   xmlns:svg="http://www.w3.org/2000/svg"
   xmlns="http://www.w3.org/2000/svg"
   xmlns:sodipodi="http://sodipodi.sourceforge.net/DTD/sodipodi-0.dtd"
   xmlns:inkscape="http://www.inkscape.org/namespaces/inkscape"
   width="99.389854mm"
   height="13.233373mm"
   viewBox="0 0 99.389854 13.233373"
   version="1.1"
   id="svg8"
   inkscape:version="1.0.1 (3bc2e813f5, 2020-09-07, custom)"
   sodipodi:docname="brimboatsName.svg">
  <defs
     id="defs2">
    <rect
       x="20.55084"
       y="86.215157"
       width="175.09872"
       height="74.943748"
       id="rect841" />
    <rect
       x="30.367977"
       y="83.868706"
       width="165.98132"
       height="83.632149"
       id="rect835" />
  </defs>
  <sodipodi:namedview
     id="base"
     pagecolor="#ffffff"
     bordercolor="#666666"
     borderopacity="1.0"
     inkscape:pageopacity="0.0"
     inkscape:pageshadow="2"
     inkscape:zoom="2.1234279"
     inkscape:cx="102.68544"
     inkscape:cy="1.9387684"
     inkscape:document-units="mm"
     inkscape:current-layer="layer1"
     inkscape:document-rotation="0"
     showgrid="false"
     inkscape:window-width="1920"
     inkscape:window-height="1056"
     inkscape:window-x="0"
     inkscape:window-y="0"
     inkscape:window-maximized="0" />
  <metadata
     id="metadata5">
    <rdf:RDF>
      <cc:Work
         rdf:about="">
        <dc:format>image/svg+xml</dc:format>
        <dc:type
           rdf:resource="http://purl.org/dc/dcmitype/StillImage" />
        <dc:title></dc:title>
      </cc:Work>
    </rdf:RDF>
  </metadata>
  <g
     inkscape:label="Layer 1"
     inkscape:groupmode="layer"
     id="layer1"
     transform="translate(-21.071481,-88.445807)">
    <text
       xml:space="preserve"
       id="text833"
       style="font-weight:bold;font-size:5.29167px;line-height:1.25;font-family:Poppins;-inkscape-font-specification:'Poppins Bold';letter-spacing:0px;white-space:pre;shape-inside:url(#rect835);" />
    <g
       aria-label="BRIMBOATS"
       id="text839"
       style="font-weight:bold;font-size:16.9333px;line-height:1.25;font-family:Poppins;-inkscape-font-specification:'Poppins Bold';letter-spacing:0px;white-space:pre;shape-inside:url(#rect841);fill:none;stroke:#1a2238;stroke-width:1.05833;stroke-linecap:round;stroke-linejoin:round;stroke-miterlimit:4;stroke-dasharray:none;stroke-opacity:1;paint-order:normal">
      <path
         d="m 28.153833,97.407755 c 0,0.846665 -0.558799,1.286931 -1.523997,1.286931 H 24.49624 v -2.624662 h 2.099729 c 0.965198,0 1.557864,0.491066 1.557864,1.337731 z m -0.287866,-4.690524 c 0,0.812798 -0.524932,1.236131 -1.473197,1.236131 h -1.89653 v -2.489195 h 1.89653 c 0.948265,0 1.473197,0.440266 1.473197,1.253064 z m 3.217327,5.07999 c 0,-1.354664 -0.897465,-2.573862 -2.285996,-2.861728 1.151465,-0.338666 2.015063,-1.269997 2.015063,-2.709328 0,-1.879596 -1.43933,-3.08186 -3.860792,-3.08186 h -5.350923 v 11.887175 h 5.537189 c 2.506128,0 3.945459,-1.269996 3.945459,-3.234259 z"
         style="font-weight:bold;font-size:16.9333px;line-height:1.25;font-family:Poppins;-inkscape-font-specification:'Poppins Bold';letter-spacing:0px;white-space:pre;shape-inside:url(#rect841);fill:none;stroke:#1a2238;stroke-width:1.05833;stroke-linecap:round;stroke-linejoin:round;stroke-miterlimit:4;stroke-dasharray:none;stroke-opacity:1;paint-order:normal"
         id="path911" />
      <path
         d="m 39.04192,93.005097 c 0,0.931332 -0.507999,1.49013 -1.591731,1.49013 H 35.65526 v -2.946394 h 1.794929 c 1.083732,0 1.591731,0.575732 1.591731,1.456264 z m -1.422398,-3.860792 h -4.859857 v 11.887175 h 2.895595 v -4.487323 h 0.694265 l 2.472262,4.487323 h 3.268127 l -2.743195,-4.707456 c 1.828796,-0.541866 2.641595,-1.94733 2.641595,-3.43746 0,-2.065863 -1.456264,-3.742259 -4.368792,-3.742259 z"
         style="font-weight:bold;font-size:16.9333px;line-height:1.25;font-family:Poppins;-inkscape-font-specification:'Poppins Bold';letter-spacing:0px;white-space:pre;shape-inside:url(#rect841);fill:none;stroke:#1a2238;stroke-width:1.05833;stroke-linecap:round;stroke-linejoin:round;stroke-miterlimit:4;stroke-dasharray:none;stroke-opacity:1;paint-order:normal"
         id="path913" />
      <path
         d="m 43.800151,89.144305 v 11.887175 h 2.895594 V 89.144305 Z"
         style="font-weight:bold;font-size:16.9333px;line-height:1.25;font-family:Poppins;-inkscape-font-specification:'Poppins Bold';letter-spacing:0px;white-space:pre;shape-inside:url(#rect841);fill:none;stroke:#1a2238;stroke-width:1.05833;stroke-linecap:round;stroke-linejoin:round;stroke-miterlimit:4;stroke-dasharray:none;stroke-opacity:1;paint-order:normal"
         id="path915" />
      <path
         d="m 48.795443,89.144305 v 11.887175 h 2.895595 v -7.145851 l 2.675461,7.145851 h 2.336795 l 2.658529,-7.128918 v 7.128918 h 2.895594 V 89.144305 h -3.403593 l -3.301994,8.229583 -3.33586,-8.229583 z"
         style="font-weight:bold;font-size:16.9333px;line-height:1.25;font-family:Poppins;-inkscape-font-specification:'Poppins Bold';letter-spacing:0px;white-space:pre;shape-inside:url(#rect841);fill:none;stroke:#1a2238;stroke-width:1.05833;stroke-linecap:round;stroke-linejoin:round;stroke-miterlimit:4;stroke-dasharray:none;stroke-opacity:1;paint-order:normal"
         id="path917" />
      <path
         d="m 70.893388,97.407755 c 0,0.846665 -0.558799,1.286931 -1.523997,1.286931 h -2.133595 v -2.624662 h 2.099729 c 0.965198,0 1.557863,0.491066 1.557863,1.337731 z m -0.287866,-4.690524 c 0,0.812798 -0.524932,1.236131 -1.473197,1.236131 h -1.896529 v -2.489195 h 1.896529 c 0.948265,0 1.473197,0.440266 1.473197,1.253064 z m 3.217327,5.07999 c 0,-1.354664 -0.897465,-2.573862 -2.285995,-2.861728 1.151464,-0.338666 2.015062,-1.269997 2.015062,-2.709328 0,-1.879596 -1.43933,-3.08186 -3.860792,-3.08186 h -5.350923 v 11.887175 h 5.537189 c 2.506129,0 3.945459,-1.269996 3.945459,-3.234259 z"
         style="font-weight:bold;font-size:16.9333px;line-height:1.25;font-family:Poppins;-inkscape-font-specification:'Poppins Bold';letter-spacing:0px;white-space:pre;shape-inside:url(#rect841);fill:none;stroke:#1a2238;stroke-width:1.05833;stroke-linecap:round;stroke-linejoin:round;stroke-miterlimit:4;stroke-dasharray:none;stroke-opacity:1;paint-order:normal"
         id="path919" />
      <path
         d="m 81.121076,101.15001 c 3.369727,0 6.079055,-2.523057 6.079055,-6.095984 0,-3.572926 -2.692395,-6.079054 -6.079055,-6.079054 -3.369726,0 -6.112921,2.506128 -6.112921,6.079054 0,3.572927 2.743195,6.095984 6.112921,6.095984 z m 0,-2.64159 c -1.930396,0 -3.149594,-1.371598 -3.149594,-3.454394 0,-2.116662 1.219198,-3.454393 3.149594,-3.454393 1.89653,0 3.132661,1.337731 3.132661,3.454393 0,2.082796 -1.236131,3.454394 -3.132661,3.454394 z"
         style="font-weight:bold;font-size:16.9333px;line-height:1.25;font-family:Poppins;-inkscape-font-specification:'Poppins Bold';letter-spacing:0px;white-space:pre;shape-inside:url(#rect841);fill:none;stroke:#1a2238;stroke-width:1.05833;stroke-linecap:round;stroke-linejoin:round;stroke-miterlimit:4;stroke-dasharray:none;stroke-opacity:1;paint-order:normal"
         id="path921" />
      <path
         d="m 96.919834,101.03148 h 3.064927 L 95.683703,89.144305 H 92.33091 l -4.301058,11.887175 h 3.03106 l 0.711199,-2.099728 h 4.436524 z M 95.46357,96.696556 h -2.929461 l 1.456264,-4.351858 z"
         style="font-weight:bold;font-size:16.9333px;line-height:1.25;font-family:Poppins;-inkscape-font-specification:'Poppins Bold';letter-spacing:0px;white-space:pre;shape-inside:url(#rect841);fill:none;stroke:#1a2238;stroke-width:1.05833;stroke-linecap:round;stroke-linejoin:round;stroke-miterlimit:4;stroke-dasharray:none;stroke-opacity:1;paint-order:normal"
         id="path923" />
      <path
         d="m 100.64515,89.144305 v 2.319862 h 3.1496 v 9.567313 h 2.89559 v -9.567313 h 3.1496 v -2.319862 z"
         style="font-weight:bold;font-size:16.9333px;line-height:1.25;font-family:Poppins;-inkscape-font-specification:'Poppins Bold';letter-spacing:0px;white-space:pre;shape-inside:url(#rect841);fill:none;stroke:#1a2238;stroke-width:1.05833;stroke-linecap:round;stroke-linejoin:round;stroke-miterlimit:4;stroke-dasharray:none;stroke-opacity:1;paint-order:normal"
         id="path925" />
      <path
         d="m 115.59725,101.15001 c 2.77706,0 4.33492,-1.659459 4.33492,-3.657588 0,-3.979326 -5.87585,-3.047994 -5.87585,-5.113857 0,-0.745065 0.52493,-1.100665 1.21919,-1.083731 0.77893,0.01693 1.3208,0.474132 1.3716,1.236131 h 3.13266 c -0.11853,-2.269063 -1.86266,-3.555993 -4.45346,-3.555993 -2.48919,0 -4.33492,1.253064 -4.33492,3.505193 -0.0339,4.216391 5.90972,3.03106 5.90972,5.232389 0,0.694266 -0.54187,1.117598 -1.38853,1.117598 -0.8128,0 -1.38853,-0.440266 -1.4732,-1.354664 h -3.08186 c 0.0847,2.404529 2.0828,3.674522 4.63973,3.674522 z"
         style="font-weight:bold;font-size:16.9333px;line-height:1.25;font-family:Poppins;-inkscape-font-specification:'Poppins Bold';letter-spacing:0px;white-space:pre;shape-inside:url(#rect841);fill:none;stroke:#1a2238;stroke-width:1.05833;stroke-linecap:round;stroke-linejoin:round;stroke-miterlimit:4;stroke-dasharray:none;stroke-opacity:1;paint-order:normal"
         id="path927" />
    </g>
  </g>
</svg>
