<?xml version="1.0" encoding="UTF-8" standalone="no"?>
<svg
   xmlns:dc="http://purl.org/dc/elements/1.1/"
   xmlns:cc="http://creativecommons.org/ns#"
   xmlns:rdf="http://www.w3.org/1999/02/22-rdf-syntax-ns#"
   xmlns:svg="http://www.w3.org/2000/svg"
   xmlns="http://www.w3.org/2000/svg"
   xmlns:sodipodi="http://sodipodi.sourceforge.net/DTD/sodipodi-0.dtd"
   xmlns:inkscape="http://www.inkscape.org/namespaces/inkscape"
   width="39.687504mm"
   height="9.0515852mm"
   viewBox="0 0 39.687502 9.0515853"
   version="1.1"
   id="svg8"
   inkscape:version="1.0.1 (3bc2e813f5, 2020-09-07, custom)"
   sodipodi:docname="brimboatsLogoNameWhite200.svg">
  <defs
     id="defs2">
    <rect
       x="37.731316"
       y="86.923401"
       width="158.10419"
       height="80.179214"
       id="rect12" />
  </defs>
  <sodipodi:namedview
     id="base"
     pagecolor="#6d7b8c"
     bordercolor="#666666"
     borderopacity="1.0"
     inkscape:pageopacity="0"
     inkscape:pageshadow="2"
     inkscape:zoom="0.78599064"
     inkscape:cx="354.87072"
     inkscape:cy="288.93165"
     inkscape:document-units="mm"
     inkscape:current-layer="layer1"
     inkscape:document-rotation="0"
     showgrid="false"
     inkscape:window-width="1920"
     inkscape:window-height="1056"
     inkscape:window-x="0"
     inkscape:window-y="0"
     inkscape:window-maximized="0" />
  <metadata
     id="metadata5">
    <rdf:RDF>
      <cc:Work
         rdf:about="">
        <dc:format>image/svg+xml</dc:format>
        <dc:type
           rdf:resource="http://purl.org/dc/dcmitype/StillImage" />
        <dc:title></dc:title>
      </cc:Work>
    </rdf:RDF>
  </metadata>
  <g
     inkscape:label="Layer 1"
     inkscape:groupmode="layer"
     id="layer1"
     transform="translate(-83.571748,-40.351074)">
    <g
       aria-label="BRIMBOATS"
       transform="matrix(1.8010043,0,0,1.8010043,38.02646,-106.20058)"
       id="text10"
       style="font-style:normal;font-variant:normal;font-weight:bold;font-stretch:normal;font-size:16.9333px;line-height:1.25;font-family:'Roboto Condensed';-inkscape-font-specification:'Roboto Condensed, Bold';text-align:center;letter-spacing:0px;white-space:pre;shape-inside:url(#rect12);fill:#ffffff;fill-opacity:1" />
    <g
       inkscape:label="Image"
       id="g86"
       transform="matrix(0.18258403,0,0,0.18258403,128.30356,78.323497)"
       style="mix-blend-mode:multiply;fill:#ffffff;fill-opacity:1"
       inkscape:export-xdpi="232"
       inkscape:export-ydpi="232">
      <rect
         style="fill:#ffffff;fill-opacity:1"
         id="rect122"
         width="0"
         height="9.4620304"
         x="-17.638618"
         y="12.059672"
         inkscape:export-xdpi="107.44238"
         inkscape:export-ydpi="107.44238" />
    </g>
    <path
       style="fill:#ffffff;stroke-width:0.306275"
       d=""
       id="path70"
       transform="matrix(0.26458333,0,0,0.26458333,83.571714,40.351009)" />
    <path
       id="path571"
       style="fill:#ffffff;fill-opacity:1;stroke-width:0.0307042"
       d="m 90.486226,47.673023 -4.68e-4,-0.377887 -0.13047,0.0093 -0.130501,0.0093 -0.0153,0.346528 -0.0153,0.346531 -0.314715,-0.630736 c -0.1731,-0.346903 -0.314719,-0.637555 -0.314719,-0.645893 0,-0.0081 0.0225,-0.0153 0.05007,-0.0153 0.0405,0 0.04656,-0.0216 0.03177,-0.11265 -0.0222,-0.13752 -0.06504,-0.16875 -0.20469,-0.14955 -0.05913,0.0081 -0.18354,0.0234 -0.27651,0.03363 l -0.169051,0.0189 -0.352926,-0.362356 c -0.262351,-0.26937 -0.339136,-0.36516 -0.299191,-0.373296 0.03771,-0.0075 0.05361,-0.03999 0.05325,-0.10848 -8.25e-4,-0.176341 -0.0204,-0.184801 -0.332274,-0.144241 -0.153571,0.0201 -0.292321,0.0282 -0.308377,0.0183 -0.0159,-0.0099 -0.14223,-0.16647 -0.28041,-0.347886 l -0.251251,-0.329863 0.164221,-0.0261 c 0.20367,-0.03252 0.24099,-0.06195 0.24099,-0.19014 v -0.10137 l -0.455716,0.0174 -0.455719,0.0174 -0.26709,-0.436498 c -0.623806,-1.019408 -1.157483,-2.082016 -1.649778,-3.284877 -0.09957,-0.24336 -0.17295,-0.4506 -0.16305,-0.460563 0.0099,-0.0102 0.29883,-0.0222 0.642004,-0.0276 l 0.623956,-0.0093 0.19125,0.362502 c 0.858164,1.626564 1.73931,3.088883 2.517515,4.177984 l 0.323238,0.452377 1.412676,0.0081 1.412672,0.0078 0.1869,-0.25362 c 0.767741,-1.041785 1.909288,-2.926775 2.697014,-4.453463 l 0.15351,-0.29754 0.631993,-3.75e-4 c 0.347593,-2.07e-4 0.639985,0.0075 0.649759,0.0174 0.0228,0.0228 -0.28293,0.769429 -0.596575,1.456025 -0.358296,0.784345 -0.762247,1.538409 -1.263884,2.359321 l -0.25029,0.409612 -0.16887,-0.0174 c -0.09288,-0.0093 -0.289771,-0.0264 -0.437533,-0.03771 l -0.268651,-0.0204 v 0.10794 c 0,0.13356 0.0435,0.17136 0.225691,0.19635 0.07851,0.0108 0.14274,0.0255 0.14274,0.03255 0,0.0069 -0.11397,0.164581 -0.25329,0.349906 l -0.253321,0.336927 -0.12282,-0.015 c -0.493588,-0.06072 -0.471052,-0.06183 -0.510643,0.0252 -0.0279,0.06153 -0.0282,0.09858 -5.01e-4,0.159271 0.04287,0.09408 0.04389,0.09255 -0.338353,0.502177 l -0.26478,0.28377 -0.276391,-0.0336 c -0.15201,-0.0186 -0.29853,-0.0252 -0.325599,-0.0147 -0.05958,0.0228 -0.06924,0.24615 -0.0114,0.26538 0.04158,0.0138 -0.15615,0.457207 -0.449641,1.00811 l -0.17052,0.320065 -4.65e-4,-0.377893 z m 2.979743,-4.911641 c 0,-7.5e-4 0.0129,-0.0228 0.0285,-0.04929 0.355882,-0.597472 0.738379,-1.287153 1.190984,-2.147467 l 0.11169,-0.21231 0.54274,0.0012 c 0.319804,7.11e-4 0.574054,0.0024 0.618964,0.0042 0.09555,0.0036 0.15153,0.0075 0.15486,0.0108 0.0015,0.0016 7.5e-4,0.0072 -0.0023,0.0165 -0.0288,0.08151 -0.15123,0.386694 -0.25245,0.628822 -0.23352,0.558634 -0.496915,1.130702 -0.749086,1.626998 l -0.06207,0.122131 h -0.021 c -0.0114,0 -0.021,-5.1e-4 -0.021,-0.0011 0,-6.24e-4 0.03096,-0.06183 0.06879,-0.136021 0.29886,-0.586024 0.614932,-1.264187 0.832177,-1.785444 0.06831,-0.16386 0.14568,-0.358584 0.15171,-0.381684 0.0123,-0.04656 -0.0282,-0.06216 -0.18666,-0.07227 -0.03954,-0.0025 -0.17685,-0.0036 -0.554293,-0.0036 l -0.501727,-3e-6 -0.19293,0.356133 c -0.265021,0.489187 -0.349363,0.644038 -0.436555,0.801626 -0.21096,0.381288 -0.426454,0.757807 -0.652432,1.139969 l -0.04854,0.08208 -0.0099,5.1e-5 c -0.0054,3e-5 -0.0099,-5.61e-4 -0.0099,-0.0014 z m -1.364114,2.137866 -9e-4,-0.0171 0.04698,-0.06795 c 0.22959,-0.33195 0.555559,-0.823075 0.767272,-1.156046 0.10743,-0.16899 0.27273,-0.436108 0.385738,-0.623449 l 0.05109,-0.08463 0.0102,-1.08e-4 c 0.0069,-8.1e-5 0.0096,9e-4 0.0087,0.003 -6.96e-4,0.0018 -0.03435,0.05769 -0.07476,0.1242 -0.312859,0.514516 -0.610075,0.98102 -0.873266,1.370652 -0.08871,0.13131 -0.314943,0.462882 -0.318075,0.466149 -0.0012,0.0013 -0.0025,-0.0054 -0.0033,-0.015 z m -4.663544,-1.78023 c -0.0768,-0.12636 -0.196051,-0.324129 -0.196051,-0.325182 0,-7.23e-4 0.0057,-0.0013 0.0123,-0.0012 l 0.0126,7.8e-5 0.03789,0.06363 c 0.021,0.03501 0.06801,0.11334 0.104791,0.17403 0.03678,0.06069 0.06738,0.11127 0.06804,0.11238 6.36e-4,9.99e-4 -0.0045,0.002 -0.0114,0.002 l -0.0126,-6.6e-5 z m 1.292405,1.968718 c -0.11043,-0.157921 -0.223831,-0.320257 -0.251971,-0.360733 -0.261,-0.375133 -0.571108,-0.850111 -0.878599,-1.345685 -0.09807,-0.158041 -0.14334,-0.231871 -0.14334,-0.233791 0,-9.75e-4 0.0054,-0.0014 0.0123,-9.75e-4 l 0.012,8.25e-4 0.07362,0.119581 c 0.32811,0.533109 0.649285,1.026739 0.941329,1.446785 0.08859,0.12741 0.138871,0.19764 0.316675,0.4423 l 0.15138,0.20829 1.388946,-6.6e-4 1.388945,-6.6e-4 0.05499,-0.06831 c 0.08268,-0.10272 0.16698,-0.21645 0.274021,-0.369787 l 0.0288,-0.04125 7.5e-4,0.0183 7.5e-4,0.0183 -0.154861,0.226681 -0.15486,0.22668 -1.430012,6.63e-4 -1.430016,6.6e-4 z m -0.34165,0.534253 c -0.0075,-0.04791 -0.021,-0.116311 -0.0243,-0.122521 -0.002,-0.0036 -0.0051,-0.0042 -0.015,-0.0033 -0.06714,0.0066 -0.16083,0.0174 -0.27267,0.03138 -0.209671,0.0264 -0.206011,0.0261 -0.262831,0.0261 l -0.05259,1.32e-4 -0.0159,-0.0081 c -0.0183,-0.0093 -0.0069,0.0048 -0.13035,-0.15771 -0.0495,-0.06507 -0.165,-0.21624 -0.256681,-0.335952 -0.09171,-0.119731 -0.16632,-0.218101 -0.16581,-0.218611 5.07e-4,-5.07e-4 0.0441,-0.0042 0.09684,-0.0075 0.208501,-0.015 0.257581,-0.0234 0.293671,-0.05079 0.0114,-0.0087 0.0237,-0.03462 0.027,-0.05712 0.0014,-0.0102 0.0025,-0.05034 0.0027,-0.08937 1.11e-4,-0.07062 1.35e-4,-0.07092 0.0054,-0.06438 0.009,0.0114 0.012,0.03039 0.012,0.0762 0,0.05127 -0.0042,0.07356 -0.0198,0.10479 -0.024,0.04803 -0.07344,0.08007 -0.14625,0.09477 -0.0297,0.006 -0.07839,0.0105 -0.112501,0.0105 -0.0282,4.5e-5 -0.04032,0.003 -0.04851,0.0117 -0.0051,0.0054 -0.0057,0.0087 -0.0048,0.0225 0.002,0.0285 0.03366,0.08211 0.107761,0.183271 0.0267,0.0363 0.344913,0.451788 0.351627,0.458967 0.0011,0.0012 0.14826,-0.0111 0.32698,-0.0273 0.17874,-0.0162 0.325347,-0.0291 0.325824,-0.0285 4.74e-4,5.85e-4 -0.0028,0.04356 -0.0075,0.09552 l -0.0081,0.09447 z m -1.158365,-2.843786 c -0.03603,-0.06024 -0.06705,-0.11238 -0.10047,-0.168871 -0.0042,-0.0066 -0.0072,-0.0123 -0.0072,-0.0123 6.6e-5,-6.6e-5 0.009,0.015 0.0135,0.0228 l 7.5e-4,0.0014 0.0144,-4.5e-5 0.0144,-4.5e-5 0.0014,0.0023 c 0.0255,0.04299 0.06717,0.113311 0.09645,0.162301 l 0.0028,0.0048 h -0.0144 l -0.0147,-3e-6 -0.0072,-0.012 z m -0.09891,-0.166951 c -0.04302,-0.07227 -0.14676,-0.24954 -0.20451,-0.349362 l -0.0195,-0.03387 0.0138,-3.66e-4 c 0.0117,-3.09e-4 0.0141,-1.95e-4 0.015,7.29e-4 5.34e-4,6e-4 0.0162,0.0276 0.03486,0.05973 0.03489,0.06033 0.08253,0.14214 0.11748,0.20172 0.0261,0.04434 0.07491,0.12735 0.07629,0.12942 l 0.0011,0.0016 h -0.0144 -0.0144 z m -0.24471,-0.41898 c -0.05133,-0.08898 -0.134581,-0.235261 -0.189121,-0.332248 -0.0267,-0.04731 -0.0675,-0.12051 -0.0693,-0.12399 l -0.0012,-0.0024 0.0144,1.98e-4 0.0144,1.98e-4 0.0147,0.0267 c 0.07005,0.1254 0.170041,0.301752 0.243001,0.428479 0.0114,0.0201 0.021,0.03678 0.0213,0.03732 3.12e-4,8.25e-4 -0.0023,9.75e-4 -0.0138,9.75e-4 h -0.0144 z M 86.61063,41.703763 c -0.07977,-0.14403 -0.14031,-0.254941 -0.20196,-0.369949 l -0.0144,-0.0267 1.11e-4,-0.0195 c 5.7e-5,-0.0108 3.27e-4,-0.0216 5.91e-4,-0.0246 l 4.8e-4,-0.0051 0.0045,0.0087 c 0.06495,0.12099 0.15537,0.286321 0.23292,0.425767 l 0.0225,0.04059 h -0.0144 -0.0144 z m 0.021,2.744654 c -0.2091,-0.330247 -0.28734,-0.457732 -0.415566,-0.677351 -0.126271,-0.21624 -0.273961,-0.481521 -0.397156,-0.713398 l -0.04023,-0.07572 0.0192,-9.99e-4 c 0.0105,-5.91e-4 0.021,-3.39e-4 0.0234,5.55e-4 0.0022,9e-4 0.0285,0.04812 0.05811,0.10497 0.16443,0.315301 0.354634,0.660322 0.478138,0.867299 0.03027,0.05073 0.348387,0.565003 0.368649,0.595966 1.59e-4,2.46e-4 0.118381,-0.0039 0.262681,-0.0096 0.329667,-0.0126 0.501391,-0.0159 0.544144,-0.0105 0.03552,0.0042 0.06417,0.0117 0.05283,0.0135 -0.0144,0.0021 -0.252361,0.0222 -0.324022,0.0273 -0.15792,0.0114 -0.19932,0.0132 -0.3681,0.015 l -0.174391,0.002 z m -0.804373,0.504948 c -0.0048,-0.0093 -0.351568,-0.733798 -0.390562,-0.816214 -0.20226,-0.427474 -0.467275,-1.03148 -0.612241,-1.395395 -0.0279,-0.07011 -0.05079,-0.129151 -0.05079,-0.131191 0,-0.0025 0.07821,-0.0036 0.25269,-0.0036 l 0.252691,1.8e-5 0.06768,0.134701 c 0.358357,0.713203 0.775687,1.453874 1.054796,1.872033 0.09399,0.14085 0.12606,0.20373 0.12606,0.24732 0,0.04776 -0.0369,0.07257 -0.12822,0.08613 -0.06054,0.009 -0.16128,0.0123 -0.370894,0.0126 -0.18501,4.2e-5 -0.19821,-3.54e-4 -0.20124,-0.0063 z m 0.541351,-3.695307 c -0.10548,-0.1986 -0.14811,-0.28209 -0.398032,-0.779452 l -0.04905,-0.09759 -0.439174,-3e-6 c -0.420816,-3e-6 -0.562753,9e-4 -0.629248,0.0039 -0.10305,0.0045 -0.15138,0.0135 -0.17094,0.03156 -0.0087,0.0078 -0.0111,0.0138 -0.0117,0.027 -7.17e-4,0.0141 0.0014,0.0252 0.0114,0.05742 0.03969,0.1287 0.12114,0.334455 0.23961,0.605305 0.0138,0.0318 0.0255,0.05856 0.0261,0.05946 5.04e-4,0.0013 -0.003,0.0016 -0.0153,0.0016 l -0.0159,-2.4e-5 -0.0168,-0.03987 c -0.10671,-0.253771 -0.19518,-0.473149 -0.25311,-0.627598 -0.0255,-0.06819 -0.04086,-0.11265 -0.04086,-0.11874 0,-0.0111 0.08877,-0.0192 0.26337,-0.0246 0.1305,-0.0039 0.303586,-0.0048 0.803276,-0.0042 l 0.25383,3.24e-4 0.10869,0.21309 c 0.169471,0.33226 0.245251,0.477955 0.346558,0.666292 l 0.0135,0.0249 -3.51e-4,0.0243 -3.54e-4,0.0243 z m -0.629998,1.649775 c -0.267001,-0.512902 -0.519376,-1.041518 -0.743411,-1.557198 -0.03228,-0.07431 -0.0771,-0.17874 -0.07785,-0.18135 -6.09e-4,-0.0023 5.13e-4,-0.0023 0.0153,-0.002 l 0.0159,3.66e-4 0.03663,0.08175 c 0.224521,0.500908 0.547738,1.16738 0.821546,1.69407 0.0096,0.0183 0.0174,0.03366 0.0174,0.03408 0,3.72e-4 -0.0108,6.66e-4 -0.0243,6.51e-4 l -0.0243,-2.4e-5 -0.03663,-0.07035 z m -0.282391,0.04281 c -0.0078,-0.0153 -0.03165,-0.06171 -0.05307,-0.10344 -0.04938,-0.09615 -0.18891,-0.374566 -0.23634,-0.47161 -0.07743,-0.15834 -0.194011,-0.401524 -0.194011,-0.404665 0,-4.26e-4 0.0054,-7.5e-4 0.012,-7.35e-4 l 0.012,4.2e-5 0.015,0.03207 c 0.115471,0.249751 0.325033,0.674717 0.465367,0.94382 0.0087,0.0168 0.0162,0.03111 0.0162,0.03147 0,3.6e-4 -0.0051,6.45e-4 -0.0114,6.27e-4 l -0.0114,-3.3e-5 -0.0141,-0.0276 z m -0.590914,-0.0117 c -0.1218,-0.298681 -0.23718,-0.598198 -0.34809,-0.903818 -0.0126,-0.03522 -0.0231,-0.0642 -0.0228,-0.06438 1.98e-4,-1.62e-4 0.0084,-7.02e-4 0.0186,-0.0012 l 0.0183,-9e-4 0.0021,0.0057 c 0.0011,0.003 0.0174,0.04824 0.03642,0.100291 0.13215,0.36465 0.23664,0.636712 0.33483,0.871765 0.0069,0.0165 0.0126,0.03024 0.0126,0.03084 0,5.88e-4 -0.0081,0.0011 -0.0177,0.0011 l -0.0177,-1.5e-5 -0.0159,-0.03924 z m -0.327126,1.468278 c -0.125491,-0.354313 -0.254131,-0.755789 -0.378862,-1.18227 -0.0147,-0.0501 -0.05208,-0.18009 -0.05208,-0.1809 0,-4.08e-4 0.0084,-7.44e-4 0.0186,-7.44e-4 h 0.0186 l 0.0093,0.03246 c 0.12186,0.423163 0.26073,0.870068 0.37477,1.205945 0.0246,0.07242 0.05274,0.154381 0.05538,0.161281 7.5e-4,0.002 -7.44e-4,0.0022 -0.0159,0.0022 h -0.0168 z m 0.657946,-0.0252 c -0.184591,-0.390249 -0.370567,-0.815095 -0.550825,-1.258283 -0.03279,-0.08055 -0.03207,-0.07878 -0.03207,-0.07989 0,-5.28e-4 0.0048,-9e-4 0.0105,-7.5e-4 l 0.0105,2.13e-4 0.0213,0.0519 c 0.18765,0.456877 0.390088,0.911558 0.588007,1.320636 0.0072,0.015 0.0129,0.0273 0.0126,0.0273 -1.89e-4,1.68e-4 -0.0072,7.14e-4 -0.0153,0.0012 l -0.015,9e-4 z m -0.583978,-1.340276 c -0.0011,-0.0016 -0.06627,-0.16539 -0.09288,-0.23316 -0.08568,-0.218101 -0.169231,-0.439051 -0.247471,-0.654547 -0.0327,-0.09 -0.06645,-0.184741 -0.06603,-0.185191 2.19e-4,-2.19e-4 0.0045,-1.5e-5 0.0096,4.53e-4 l 0.0093,8.25e-4 0.0072,0.021 c 0.10215,0.288721 0.263431,0.711254 0.386497,1.012655 0.0084,0.0204 0.015,0.03732 0.015,0.03795 0,0.0014 -0.0204,0.0014 -0.0213,6.9e-5 z m -0.506023,-0.0013 c -0.0025,-0.0081 -0.0375,-0.13308 -0.05313,-0.18975 -0.06942,-0.251011 -0.13326,-0.495133 -0.196741,-0.7525 -0.0243,-0.09834 -0.03114,-0.126661 -0.03111,-0.128221 3e-6,-4.89e-4 0.0075,-9e-4 0.0165,-9e-4 l 0.0165,-3e-5 0.0063,0.0252 c 0.06363,0.260221 0.12357,0.489331 0.20265,0.774587 0.0171,0.06126 0.07335,0.26127 0.0765,0.27147 6.45e-4,0.0021 -8.25e-4,0.0022 -0.018,0.0022 -0.0168,0 -0.0189,-2.46e-4 -0.0195,-0.0022 z m 0.386029,-1.075193 c -0.003,-0.0081 -0.03522,-0.09837 -0.05523,-0.15537 -0.15015,-0.427669 -0.312777,-0.939464 -0.3663,-1.152755 -0.012,-0.04779 -0.0138,-0.05976 -0.0099,-0.06747 0.0084,-0.0165 0.04695,-0.0234 0.11871,-0.0216 0.04641,0.0012 0.22053,0.0108 0.22182,0.012 5.58e-4,6.15e-4 0.0234,0.05718 0.05061,0.12567 0.06096,0.15303 0.09588,0.239611 0.13107,0.325003 0.11472,0.27828 0.24603,0.578002 0.378849,0.864727 0.0165,0.0357 0.03087,0.06678 0.03192,0.06909 l 0.002,0.0042 h -0.012 -0.0123 l -0.0081,-0.0171 c -0.11529,-0.24315 -0.25611,-0.559219 -0.362841,-0.814252 -0.0174,-0.04188 -0.03903,-0.09303 -0.04782,-0.11373 -0.09177,-0.216001 -0.143761,-0.312505 -0.194581,-0.361117 -0.03105,-0.0297 -0.06009,-0.04311 -0.10902,-0.05037 -0.0222,-0.0033 -0.0768,-0.0033 -0.09339,-7.2e-5 -0.0261,0.0054 -0.04443,0.0132 -0.05133,0.0231 -0.0045,0.0063 -0.0045,0.0168 -0.0013,0.03504 0.021,0.10995 0.15912,0.536179 0.34426,1.061822 0.0222,0.06297 0.08073,0.22767 0.08358,0.23517 4.8e-4,0.0013 -0.0036,0.0016 -0.0183,0.0016 h -0.0189 z m -0.668027,0.0029 c 0,-3.84e-4 -0.006,-0.0261 -0.0138,-0.05739 -0.12441,-0.51448 -0.23802,-1.027163 -0.23805,-1.074017 -3e-6,-0.0042 7.11e-4,-0.006 0.0039,-0.0087 0.0051,-0.0045 0.0156,-0.0084 0.03243,-0.012 0.03288,-0.0072 0.0702,-0.0096 0.16563,-0.0096 l 0.06771,-2.4e-5 0.0026,0.0081 c 0.0014,0.0042 0.03249,0.102691 0.06897,0.218281 0.08121,0.25734 0.09645,0.305217 0.1317,0.413226 0.04836,0.148261 0.12726,0.379573 0.17049,0.50002 0.0045,0.012 0.0081,0.0222 0.0081,0.0225 0,2.82e-4 -0.0042,3.45e-4 -0.0093,1.32e-4 l -0.0093,-3.81e-4 -0.0016,-0.0048 c -0.0108,-0.0297 -0.05304,-0.15138 -0.08493,-0.2439 -0.07968,-0.23133 -0.12429,-0.357877 -0.16452,-0.46642 -0.100621,-0.27153 -0.158401,-0.386416 -0.210601,-0.418789 -0.0162,-0.0099 -0.0225,-0.0114 -0.05169,-0.0123 -0.0285,-6.93e-4 -0.03987,5.58e-4 -0.05007,0.0054 -0.0084,0.0042 -0.0138,0.0111 -0.0177,0.0234 -0.0025,0.0081 -0.0029,0.0117 -0.0029,0.03765 1.44e-4,0.04068 0.0054,0.07974 0.0246,0.173851 0.0237,0.11838 0.05637,0.25845 0.16617,0.713311 0.0252,0.10476 0.04596,0.19101 0.04596,0.1917 0,7.29e-4 -0.0069,0.0013 -0.0168,0.0013 -0.0093,0 -0.0168,-3.15e-4 -0.0168,-6.96e-4 z m 3.802927,3.861286 c -0.0048,-0.0051 -0.0135,-0.0156 -0.04989,-0.06261 -0.06789,-0.087 -0.16875,-0.218791 -0.383236,-0.5008 -0.0951,-0.12504 -0.12828,-0.16839 -0.16983,-0.22185 -0.08982,-0.115561 -0.13101,-0.161941 -0.15195,-0.171001 -0.0087,-0.0036 -0.0144,-0.0039 -0.03765,-0.0015 -0.03654,0.0039 -0.07527,0.0072 -0.147901,0.0129 -0.03747,0.0029 -0.07089,0.0054 -0.07425,0.0057 l -0.006,6.27e-4 -0.0282,-0.04698 c -0.04824,-0.08037 -0.06555,-0.10353 -0.07047,-0.09432 -0.002,0.0036 3.66e-4,0.0132 0.0072,0.03309 0.0126,0.0357 0.0174,0.05739 0.0171,0.07653 l -1.74e-4,0.0105 -0.001,-0.0114 c -0.0023,-0.0249 -0.0093,-0.04638 -0.0258,-0.08076 -0.0195,-0.04029 -0.03978,-0.0735 -0.09738,-0.16008 -0.08151,-0.12252 -0.15513,-0.239041 -0.239341,-0.378844 -0.03276,-0.05442 -0.08109,-0.13599 -0.08109,-0.13689 0,-3.57e-4 0.0069,-6.51e-4 0.0153,-6.51e-4 h 0.0153 l 0.0264,0.04377 c 0.115591,0.19206 0.169951,0.278491 0.356467,0.566971 0.10137,0.15681 0.11124,0.17157 0.11436,0.17154 0.002,-2.1e-5 0.06441,-0.0048 0.13899,-0.0108 0.07458,-0.006 0.135991,-0.0105 0.136501,-0.0105 5.04e-4,3.09e-4 0.0111,0.0138 0.0234,0.03 0.0123,0.0162 0.17571,0.230041 0.362904,0.475141 0.187201,0.245101 0.344128,0.450478 0.348706,0.456364 0.0087,0.0111 0.0096,0.0144 0.0014,0.006 z m 0.06207,0.26499 c -0.0045,-0.05061 -0.0198,-0.1386 -0.03024,-0.1719 -0.0033,-0.0105 -0.0048,-0.0111 -0.0228,-0.0111 -0.03192,0 -0.1086,0.0066 -0.21132,0.0183 -0.03609,0.0042 -0.363592,0.04494 -0.367459,0.04584 -0.0039,9.75e-4 -0.485254,-0.484087 -0.59365,-0.598369 -0.07458,-0.0786 -0.12612,-0.13716 -0.12612,-0.14316 0,-0.0072 0.0246,-0.015 0.06291,-0.0192 0.0162,-0.0018 0.06831,-0.0036 0.12066,-0.0042 0.0243,-2.64e-4 0.04236,-3.09e-4 0.0402,-9e-5 -0.0023,2.22e-4 -0.0261,0.002 -0.05319,0.0036 -0.09858,0.0066 -0.15957,0.0135 -0.16116,0.0183 -0.0014,0.0045 0.04686,0.05727 0.14559,0.15999 0.09123,0.09492 0.18051,0.185401 0.473137,0.479629 l 0.09825,0.09876 0.13206,-0.0165 c 0.1392,-0.0174 0.247681,-0.0306 0.315658,-0.03819 0.05556,-0.006 0.14817,-0.0153 0.14889,-0.0144 0.001,9.99e-4 0.0171,0.07752 0.0204,0.09741 0.0042,0.0252 0.0069,0.04806 0.0087,0.07395 0.0016,0.0243 0.0013,0.04182 -5.13e-4,0.0213 z m -1.400306,-0.537424 c -0.04803,-0.04818 -0.08466,-0.08592 -0.08388,-0.0864 7.5e-4,-4.77e-4 0.0016,-0.002 0.0019,-0.003 3.33e-4,-0.0016 0.0219,0.0195 0.07383,0.072 0.10269,0.103981 0.10059,0.101731 0.09663,0.102481 -0.0028,5.37e-4 -0.0138,-0.0102 -0.08847,-0.08493 z m 1.887753,1.4484 c -0.0045,-0.0036 -0.0252,-0.0201 -0.04668,-0.03717 -0.07539,-0.05994 -0.17013,-0.13764 -0.296461,-0.243121 -0.07818,-0.06528 -0.14283,-0.11961 -0.418146,-0.351387 -0.121531,-0.1023 -0.187321,-0.1569 -0.188791,-0.15657 -0.0012,2.64e-4 -0.05787,0.0075 -0.12594,0.0162 l -0.12372,0.0159 -0.04962,-0.0498 c -0.0273,-0.0273 -0.145831,-0.146731 -0.263461,-0.265171 -0.1176,-0.11844 -0.23112,-0.23274 -0.25221,-0.25398 -0.03606,-0.03624 -0.03813,-0.03858 -0.03423,-0.03858 0.0036,0 0.0294,0.0255 0.301518,0.301023 0.287641,0.291181 0.297511,0.300997 0.301393,0.300304 0.0023,-3.96e-4 0.05976,-0.0075 0.12786,-0.0162 0.1038,-0.0132 0.12414,-0.0153 0.12585,-0.0138 0.0011,9.75e-4 0.11409,0.09594 0.251131,0.21108 0.13701,0.11514 0.309531,0.26019 0.383385,0.322321 0.180151,0.15156 0.258661,0.21693 0.305218,0.25419 0.0072,0.0054 0.0126,0.0105 0.0126,0.0105 0,0.0014 -0.0027,-1.74e-4 -0.0096,-0.006 z m -1.103951,-0.63721 c -0.0023,-0.0117 -0.0102,-0.03597 -0.015,-0.04515 -0.0027,-0.0054 -0.0045,-0.0093 -0.0036,-0.009 0.0029,9e-4 0.0099,0.0111 0.0126,0.0186 0.0033,0.009 0.0078,0.03204 0.0075,0.03732 -3.63e-4,0.0033 -5.37e-4,0.003 -0.0015,-0.002 z m 0.911816,0.914662 c -0.0066,-6.36e-4 -0.0141,-0.002 -0.0168,-0.0029 -0.0102,-0.0036 -0.234331,-0.17052 -0.383263,-0.28557 -0.18384,-0.14202 -0.347146,-0.274891 -0.437878,-0.356263 -0.04086,-0.03663 -0.07767,-0.07479 -0.08121,-0.08412 -9.75e-4,-0.0025 -5.01e-4,-0.0039 0.0028,-0.0078 0.0048,-0.0054 0.0072,-0.0111 0.0105,-0.0231 l 0.0023,-0.009 9.6e-5,0.0183 c 5.1e-5,0.0102 4.74e-4,0.0228 9.75e-4,0.0282 l 8.25e-4,0.0099 0.03516,0.03219 c 0.05223,0.04779 0.07578,0.06807 0.14805,0.12744 0.207901,0.170761 0.534646,0.424825 0.632491,0.491815 0.04599,0.03147 0.07848,0.0465 0.114931,0.0531 0.0129,0.0023 0.0204,0.0029 0.04662,0.0029 0.04101,4.5e-5 0.07062,-0.0029 0.18489,-0.0186 0.11565,-0.0159 0.15108,-0.0195 0.19281,-0.0204 0.03381,-7.5e-4 0.04722,-9e-6 0.04722,0.0025 0,0.0011 -0.0078,0.0016 -0.0294,0.0016 -0.04029,1.77e-4 -0.06786,0.0029 -0.18651,0.0186 -0.07692,0.0102 -0.12054,0.015 -0.17709,0.0189 -0.03489,0.0025 -0.09156,0.0036 -0.10716,0.002 z m -1.657932,-1.068034 c -0.260431,-0.209491 -0.311875,-0.250951 -0.372358,-0.300133 -0.19341,-0.15726 -0.333477,-0.27564 -0.333444,-0.28185 1.8e-5,-0.003 0.0066,-0.0093 0.0138,-0.0132 0.0165,-0.0087 0.05325,-0.0192 0.08991,-0.0255 0.0147,-0.0025 0.18171,-0.0252 0.18582,-0.0252 5.61e-4,0 0.001,0.0011 0.001,0.0025 0,0.003 0.0066,0.002 -0.0798,0.0138 -0.07923,0.0108 -0.10236,0.0144 -0.12873,0.0201 -0.05202,0.0111 -0.06684,0.0219 -0.05511,0.04041 0.0108,0.0171 0.11409,0.10386 0.39204,0.329607 0.13416,0.10899 0.472465,0.382687 0.474781,0.384133 0.0016,10e-4 0.04023,-0.003 0.15459,-0.0171 0.240691,-0.0291 0.282361,-0.03357 0.315163,-0.03456 l 0.0189,-5.55e-4 -0.015,0.002 c -0.0081,10e-4 -0.03771,0.0045 -0.06552,0.0078 -0.0279,0.003 -0.12984,0.0159 -0.226741,0.0279 -0.09687,0.012 -0.17715,0.0219 -0.17841,0.0219 -0.0013,-1.5e-5 -0.08724,-0.06834 -0.19104,-0.15189 z m -0.230851,-0.852107 -0.11028,-0.11073 -0.0129,0.002 c -0.0174,0.0025 -0.06063,0.0081 -0.08241,0.0105 -0.04788,0.0054 -0.20046,0.0189 -0.21018,0.0189 l -0.0045,-3.3e-5 -0.0759,-0.14943 c -0.18651,-0.367204 -0.25419,-0.497287 -0.29142,-0.560188 -0.0108,-0.0186 -0.0132,-0.0216 -0.0144,-0.0204 -0.0042,0.0042 0.04584,0.11157 0.15396,0.330429 0.11157,0.225841 0.14886,0.304225 0.188851,0.397012 l 0.0249,0.05772 0.0057,-3.54e-4 c 0.0174,-9.99e-4 0.23361,-0.0171 0.23823,-0.0177 0.0042,-5.13e-4 0.0057,-2.19e-4 0.0057,0.0012 0,10e-4 -0.0014,0.0023 -0.0028,0.0026 -0.0028,6.12e-4 -0.22746,0.0198 -0.412255,0.03513 -0.425952,0.03543 -0.530164,0.03819 -0.572575,0.0153 -0.0114,-0.0063 -0.0162,-0.0132 -0.0243,-0.03771 -0.0168,-0.04854 -0.06009,-0.15759 -0.13503,-0.339456 -0.05349,-0.129811 -0.08937,-0.220771 -0.13554,-0.343816 -0.0294,-0.07854 -0.07563,-0.20502 -0.07563,-0.20727 0,-5.73e-4 0.0072,-9e-4 0.0165,-6.78e-4 l 0.0165,3.6e-4 0.003,0.0084 c 0.0615,0.17298 0.07155,0.19995 0.1407,0.377547 0.06105,0.156871 0.13638,0.35299 0.1557,0.405445 0.0045,0.012 0.0102,0.0261 0.0126,0.03108 0.0249,0.04992 0.07956,0.06939 0.216361,0.07725 0.05097,0.0029 0.16608,0.0042 0.24207,0.0027 0.12804,-0.0025 0.20505,-0.0072 0.25551,-0.0156 0.0261,-0.0042 0.03501,-0.0078 0.03501,-0.0135 0,-0.0156 -0.09264,-0.21078 -0.252331,-0.531862 -0.09111,-0.18318 -0.16671,-0.337719 -0.16671,-0.340779 0,-6e-4 0.0072,-0.0011 0.0156,-0.0011 h 0.0156 l 0.003,0.0066 c 0.0075,0.0165 0.10095,0.20541 0.13422,0.27084 0.11487,0.22584 0.283861,0.554419 0.285421,0.555019 9.75e-4,3.99e-4 0.07173,-0.006 0.15717,-0.0138 l 0.15534,-0.0147 0.06267,0.06348 c 0.03447,0.03489 0.08247,0.08337 0.10662,0.1077 0.04248,0.04272 0.04395,0.04437 0.04353,0.04878 -4.11e-4,0.0045 -0.0017,0.0033 -0.110701,-0.1062 z m 0.61411,-0.20055 c -3e-5,-5.25e-4 0.0016,-0.0039 0.0036,-0.0075 0.0087,-0.0144 0.0147,-0.03663 0.0168,-0.06564 7.44e-4,-0.0093 0.0013,-0.04881 0.0013,-0.08799 v -0.07128 l -0.0051,8.25e-4 c -0.0195,0.003 -0.14175,0.0195 -0.16638,0.0222 -0.06462,0.0069 -0.17448,0.0165 -0.28866,0.0246 -0.07989,0.006 -0.44674,0.0285 -0.447442,0.0279 -8.25e-4,-8.25e-4 -0.279751,-0.559 -0.279751,-0.55975 0,-3.57e-4 0.0081,-6.51e-4 0.018,-6.51e-4 h 0.018 l 0.123781,0.25878 0.12378,0.25878 0.0759,-3e-5 c 0.12903,-4.5e-5 0.359917,-0.0022 0.388576,-0.0036 0.12498,-0.0066 0.18732,-0.0198 0.21618,-0.04647 0.0042,-0.0039 0.0075,-0.0066 0.0075,-0.006 0,0.0021 -0.0147,0.0153 -0.0225,0.0204 -0.0105,0.0066 -0.021,0.0114 -0.04113,0.0186 -0.03717,0.0132 -0.0294,0.0132 0.1617,-0.0057 0.05496,-0.0054 0.10413,-0.0102 0.10929,-0.0105 l 0.0096,-8.25e-4 -3e-6,0.07641 c -3e-6,0.10038 -0.0017,0.1203 -0.0111,0.13998 -0.0039,0.0081 -0.012,0.0198 -0.0123,0.0171 z m 3.337044,4.190446 c -0.07467,-0.06153 -0.25839,-0.28119 -1.177583,-1.407833 -0.341893,-0.419053 -0.352321,-0.433405 -0.330654,-0.455071 0.0087,-0.0087 0.0156,-0.05754 0.0156,-0.11295 0,-0.151081 -0.0168,-0.157891 -0.296641,-0.119611 -0.26652,0.03645 -0.26202,0.03744 -0.442618,-0.09654 -0.19383,-0.14382 -0.579478,-0.450961 -0.667336,-0.53149 l -0.06504,-0.05961 -0.0024,-0.11754 c -0.0016,-0.08472 -0.0081,-0.12273 -0.0225,-0.13623 -0.0174,-0.0159 -0.05811,-0.0141 -0.280711,0.0126 l -0.26046,0.03147 -0.3193,-0.258451 c -0.404838,-0.327678 -0.537825,-0.438321 -0.54945,-0.457131 -0.0147,-0.024 0.0189,-0.03624 0.14538,-0.05355 l 0.11847,-0.0162 V 45.44665 45.31888 l -0.12474,0.0093 -0.12471,0.0093 -0.03939,-0.09198 c -0.0216,-0.05058 -0.105391,-0.22452 -0.186091,-0.38653 -0.08067,-0.162 -0.14487,-0.29949 -0.14262,-0.305568 0.0023,-0.006 0.08898,0.15585 0.19278,0.35985 l 0.188701,0.370888 0.10119,-0.0087 c 0.05565,-0.0048 0.12546,-0.0117 0.15513,-0.0159 l 0.05394,-0.0072 0.495382,0.498502 0.495382,0.498499 0.12609,-0.0162 0.12609,-0.0162 0.430186,0.362172 c 0.510145,0.429487 0.673594,0.555886 0.747442,0.578011 0.04362,0.0132 0.07713,0.0126 0.164341,-0.0014 0.10911,-0.0177 0.10965,-0.0177 0.13587,0.0147 0.06927,0.08505 0.24453,0.34348 0.617581,0.910403 0.625933,0.951256 0.828847,1.276022 0.813136,1.301441 -0.0129,0.0207 -0.03912,0.012 -0.09024,-0.03012 z m -0.15705,-0.892391 c -0.654028,-0.997825 -0.728353,-1.112776 -0.794534,-1.228829 -0.05961,-0.10458 -0.06579,-0.12213 -0.04761,-0.13542 0.027,-0.0198 0.04014,-0.1623 0.0198,-0.21501 l -0.0153,-0.03909 -0.13104,0.009 c -0.07206,0.0048 -0.20385,0.0204 -0.29283,0.03438 -0.130021,0.0204 -0.165751,0.0222 -0.182011,0.0087 -0.379005,-0.31513 -0.635668,-0.534541 -0.721258,-0.616585 l -0.10794,-0.10347 0.03708,-0.0141 c 0.03183,-0.0123 0.03708,-0.0216 0.03708,-0.06777 0,-0.0294 -0.0069,-0.08466 -0.015,-0.12261 l -0.0147,-0.069 -0.0897,0.0087 c -0.04932,0.0048 -0.18375,0.0204 -0.298681,0.03492 l -0.20898,0.0264 -0.362326,-0.364935 c -0.19926,-0.200761 -0.358689,-0.368605 -0.354252,-0.373042 0.0045,-0.0042 0.07821,-0.0123 0.16392,-0.0177 0.13695,-0.0087 0.1599,-0.0135 0.18909,-0.04086 0.03,-0.0282 0.03324,-0.04188 0.03324,-0.1386 v -0.107371 l -0.09099,0.009 c -0.22518,0.0222 -0.22782,0.0222 -0.18789,0.0093 0.07653,-0.0252 0.09516,-0.07179 0.06279,-0.15693 -0.0243,-0.06366 -0.0036,-0.05067 0.04284,0.0273 l 0.04506,0.07533 0.10119,-0.0075 c 0.05565,-0.0042 0.119371,-0.0099 0.141631,-0.0129 0.03897,-0.0051 0.05394,0.0126 0.403563,0.472948 0.199711,0.263041 0.369601,0.483523 0.377527,0.489973 0.0084,0.0069 0.07392,0.0016 0.15588,-0.0123 l 0.14148,-0.024 0.316414,0.325419 c 0.17403,0.178981 0.393103,0.403555 0.486841,0.499054 l 0.17043,0.173641 0.16122,-0.0219 c 0.08868,-0.012 0.168661,-0.0219 0.177751,-0.0219 0.0189,0 0.831973,1.6238 0.911557,1.820208 0.04116,0.10155 0.05325,0.15114 0.05835,0.23931 0.0033,0.0612 0.0011,0.11112 -0.0054,0.11097 -0.0066,-1.77e-4 -0.14793,-0.20796 -0.314298,-0.461794 z m 0.617125,-0.821977 c -0.0054,-0.360376 -0.0057,-0.36091 -0.13134,-0.360826 -0.158701,8.7e-5 -0.198241,0.06852 -0.212851,0.368236 -0.0081,0.1659 -0.0096,0.17181 -0.03243,0.14832 -0.0132,-0.0135 -0.08253,-0.13671 -0.15408,-0.2739 -0.25629,-0.49153 -0.373588,-0.775321 -0.331243,-0.801494 0.0219,-0.0135 0.0177,-0.15111 -0.0057,-0.19653 -0.0114,-0.0216 -0.03387,-0.04659 -0.05034,-0.05544 -0.03489,-0.0186 -0.21003,-0.018 -0.407922,0.0014 -0.07416,0.0075 -0.141601,0.0132 -0.149851,0.0138 -0.0285,6.6e-4 -0.549901,-0.558148 -0.590314,-0.632779 -0.03843,-0.07101 -0.03891,-0.07443 -0.03108,-0.2301 l 0.0081,-0.158011 -0.05655,0.006 c -0.13182,0.0138 -0.595996,0.05499 -0.597367,0.05325 -8.25e-4,-9.99e-4 -0.09369,-0.12264 -0.20637,-0.27021 -0.207481,-0.271741 -0.267331,-0.364327 -0.244561,-0.378394 0.0069,-0.0042 0.05487,-0.0129 0.106711,-0.0195 0.11106,-0.0141 0.16911,-0.04449 0.19722,-0.10371 0.0219,-0.04629 0.0273,-0.16245 0.0087,-0.19167 -0.0246,-0.0387 -0.12471,-0.0444 -0.505243,-0.0288 -0.311355,0.0126 -0.379282,0.012 -0.393001,-0.0025 -0.0288,-0.03114 -0.362313,-0.575386 -0.482109,-0.786521 -0.489322,-0.862426 -1.273188,-2.473543 -1.494984,-3.072719 -0.07122,-0.19239 -0.07824,-0.21711 -0.06693,-0.23541 0.0204,-0.03324 0.17127,-0.04242 0.69406,-0.04233 l 0.54085,9e-5 0.21192,0.421251 c 0.647737,1.287501 1.569366,2.817908 2.500793,4.152682 l 0.28932,0.414604 h 1.440804 1.440803 l 0.330712,-0.484006 c 0.89749,-1.313519 1.500794,-2.309983 2.39266,-3.951909 l 0.29661,-0.546061 0.577351,5.52e-4 c 0.635842,6.06e-4 0.661828,0.0033 0.645148,0.07041 -0.0159,0.0633 -0.21798,0.546679 -0.370509,0.885592 -0.372568,0.827876 -0.811313,1.694982 -1.188245,2.348353 -0.152821,0.264931 -0.525268,0.881543 -0.532444,0.881543 -0.0075,0 -0.770594,-0.06594 -0.826184,-0.07137 l -0.04512,-0.0045 0.009,0.08847 c 0.0198,0.19524 0.04626,0.23112 0.189001,0.25599 0.15987,0.0279 0.15717,0.0159 0.04134,0.181501 -0.07437,0.10623 -0.347428,0.473019 -0.363451,0.488205 -7.44e-4,7.08e-4 -0.08022,-0.0066 -0.17664,-0.0159 -0.270241,-0.0267 -0.401422,-0.0246 -0.440074,0.0069 -0.0294,0.0237 -0.03186,0.03588 -0.03228,0.152221 l -4.59e-4,0.12645 -0.06288,0.09384 c -0.07338,0.10947 -0.1575,0.20706 -0.373624,0.433297 l -0.15684,0.16419 -0.336574,-0.0246 c -0.1851,-0.0135 -0.338994,-0.0222 -0.341955,-0.0195 -0.003,0.0029 0.0016,0.0474 0.0099,0.09897 0.04131,0.250081 0.0048,0.357457 -0.365797,1.07846 l -0.1692,0.329146 -0.0045,-0.304156 z m -1.72434,-1.341767 c -0.315955,-0.320407 -0.484654,-0.499114 -0.484654,-0.513406 0,-0.0069 0.021,-0.0153 0.04644,-0.0183 0.04056,-0.0048 0.04749,-0.0011 0.05484,0.0288 0.0195,0.07917 0.09342,0.17025 0.347578,0.4279 0.18759,0.1902 0.2793,0.27393 0.304221,0.27774 0.0291,0.0042 0.0267,0.006 -0.0117,0.0075 -0.04416,0.002 -0.06147,-0.0123 -0.25677,-0.21033 z m -3.891898,-1.04474 c -0.0189,-0.0531 -0.10497,-0.276931 -0.19113,-0.497359 -0.23811,-0.609301 -0.621664,-1.87956 -0.837149,-2.772476 -0.29172,-1.208771 -0.28485,-1.158926 -0.1593,-1.158926 0.08994,0 0.15981,0.152131 0.423349,0.921662 0.346735,1.012532 0.819046,2.15044 1.244399,2.998055 0.15135,0.301633 0.275221,0.561298 0.275221,0.577024 0,0.0156 -0.162211,0.0285 -0.360448,0.0285 -0.293341,0 -0.366868,-0.018 -0.394945,-0.09657 z m 0.574963,-1.048556 c -0.199818,-0.417313 -0.487198,-1.069208 -0.638617,-1.448621 -0.268164,-0.671926 -0.726184,-2.000698 -0.726184,-2.106739 0,-0.0291 0.0648,-0.04503 0.14397,-0.03543 0.12459,0.015 0.17187,0.08466 0.351247,0.516394 0.463822,1.116458 1.31078,2.746712 1.818378,3.50007 0.19752,0.29316 0.1659,0.331122 -0.276811,0.332334 l -0.308664,8.25e-4 z m 5.039718,3.421596 c -0.0027,-0.326221 -0.0099,-0.34492 -0.13488,-0.34492 -0.154081,0 -0.198001,0.08802 -0.201901,0.404623 -0.0028,0.227821 -0.0057,0.224491 -0.29745,-0.349434 -0.172741,-0.339736 -0.271861,-0.593737 -0.239611,-0.613964 0.03027,-0.0189 0.03735,-0.09015 0.0159,-0.15813 -0.03558,-0.11217 -0.06657,-0.12135 -0.334338,-0.09915 l -0.295111,0.0246 -0.3186,-0.32196 C 88.420812,45.884927 88.382766,45.820784 88.39692,45.656477 l 0.0162,-0.187951 -0.3264,0.0297 -0.326401,0.0297 -0.2601,-0.33801 c -0.219871,-0.285751 -0.243241,-0.338014 -0.151021,-0.338014 0.193831,0 0.283681,-0.06402 0.283681,-0.20205 0,-0.13365 -0.0045,-0.13488 -0.452191,-0.11826 l -0.452188,0.0168 -0.29223,-0.46909 c -0.510772,-0.81988 -1.560195,-2.960189 -1.752069,-3.57336 -0.03876,-0.12387 -0.0372,-0.12417 0.59896,-0.12417 h 0.637816 l 0.24288,0.482883 c 0.561658,1.116731 1.579839,2.814143 2.342074,3.904486 l 0.424384,0.607057 h 1.430853 1.430855 l 0.546559,-0.800212 c 0.635506,-0.930449 1.378478,-2.161042 2.024142,-3.352611 l 0.456031,-0.841516 h 0.634789 c 0.553174,0 0.63052,0.0111 0.601654,0.08634 -0.38265,0.997174 -1.144142,2.549935 -1.71591,3.498903 l -0.374724,0.62194 -0.438139,-0.03822 -0.438139,-0.03822 0.018,0.15591 c 0.0141,0.1236 0.04932,0.15954 0.169621,0.17337 0.08346,0.0096 0.15177,0.0294 0.15177,0.04374 0,0.0144 -0.10455,0.164791 -0.232381,0.334069 l -0.23238,0.30777 -0.319497,-0.0291 c -0.336661,-0.03051 -0.349948,-0.0201 -0.322321,0.250681 0.0057,0.05334 -0.12768,0.2412 -0.295861,0.41752 l -0.305751,0.32055 -0.340828,-0.0246 -0.340827,-0.0246 0.03,0.1866 c 0.0243,0.151021 -0.0261,0.297121 -0.264721,0.766061 l -0.29469,0.579466 -0.0028,-0.34492 z m -0.768976,1.391516 c -0.260461,-0.31572 -0.758438,-0.924805 -1.177106,-1.439768 -0.03879,-0.04773 -0.05589,-0.08679 -0.03795,-0.08679 0.018,0 0.03258,-0.03987 0.03258,-0.08865 0,-0.173731 -0.0057,-0.176371 -0.297151,-0.136681 -0.14568,0.0198 -0.27855,0.0261 -0.29526,0.0138 -0.467023,-0.3402 -0.92465,-0.712771 -0.896708,-0.730042 0.03672,-0.0228 0.0129,-0.24336 -0.0264,-0.24336 -0.0111,0 -0.13323,0.0144 -0.271351,0.03147 l -0.25116,0.03147 -0.438922,-0.352987 c -0.24141,-0.19413 -0.446343,-0.364992 -0.455412,-0.379665 -0.0093,-0.0147 0.05232,-0.03582 0.13647,-0.04695 l 0.15297,-0.0204 v -0.121801 -0.1218 l -0.22026,0.0189 c -0.722762,0.0618 -0.772022,0.06186 -0.790091,0.0011 -0.0093,-0.03147 -0.07296,-0.1917 -0.14136,-0.356124 -0.28137,-0.676412 -0.618421,-1.74729 -0.881194,-2.799728 -0.144301,-0.577927 -0.306295,-1.294206 -0.306295,-1.354302 0,-0.0153 0.06105,-0.0279 0.13563,-0.0279 h 0.1356 l 0.141481,0.448093 c 0.365916,1.158917 0.910465,2.489617 1.449512,3.542157 l 0.246571,0.481456 0.15675,-0.015 0.15672,-0.0147 0.491173,0.497224 0.491173,0.497221 0.12804,-0.0162 0.12801,-0.0162 0.577204,0.485367 c 0.615739,0.517774 0.570373,0.493483 0.826094,0.442309 0.07224,-0.0144 0.0075,-0.10572 1.063756,1.500204 0.256201,0.389508 0.457867,0.721021 0.44818,0.736693 -0.04125,0.06675 -0.10872,0.0078 -0.411243,-0.35884 z m 0.836575,0.355114 c -0.0204,-0.033 0.05619,-0.1542 0.932321,-1.475058 l 0.506079,-0.762991 0.157291,0.0249 0.15729,0.0249 0.580582,-0.487918 c 0.578452,-0.486132 0.581053,-0.487869 0.709,-0.473448 l 0.12843,0.0144 0.480856,-0.487834 0.480856,-0.487834 0.1671,-0.0018 0.167101,-0.0018 0.23394,-0.455686 c 0.301462,-0.587215 0.707098,-1.498658 0.966698,-2.172112 0.20496,-0.531756 0.549406,-1.537976 0.590131,-1.724015 0.021,-0.09531 0.0267,-0.09873 0.17316,-0.09873 0.12981,0 0.14937,0.0075 0.1365,0.05316 -0.0084,0.0291 -0.05829,0.251401 -0.11112,0.493663 -0.29976,1.373955 -0.682636,2.664029 -1.08647,3.660685 l -0.14772,0.364551 h -0.18009 c -0.09906,0 -0.319354,-0.0108 -0.489565,-0.024 l -0.309478,-0.024 -0.0093,0.1152 -0.0096,0.11517 0.161341,0.03039 0.16134,0.03039 -0.221461,0.18228 c -0.653611,0.537925 -0.696244,0.566761 -0.812518,0.549544 -0.05994,-0.0087 -0.18756,-0.0249 -0.28362,-0.0357 l -0.174691,-0.0195 v 0.12249 c 0,0.06738 0.0153,0.12756 0.03387,0.13377 0.0186,0.006 -0.18459,0.17601 -0.45156,0.377356 l -0.485422,0.366063 -0.163621,-0.0231 c -0.08997,-0.0126 -0.21339,-0.0243 -0.27423,-0.0255 -0.10431,-0.0021 -0.1113,0.0036 -0.123,0.104131 -0.0066,0.0585 3.96e-4,0.11916 0.0159,0.13482 0.0177,0.0177 -0.08361,0.16425 -0.267661,0.387309 -0.16287,0.197371 -0.509932,0.621398 -0.771247,0.942278 -0.26133,0.320881 -0.491404,0.584041 -0.511303,0.5848 -0.0198,7.5e-4 -0.04515,-0.0132 -0.05607,-0.03084 z m -0.62047,-0.804673 c -0.14139,-0.216421 -0.417778,-0.636115 -0.614206,-0.93269 -0.21999,-0.332146 -0.340018,-0.53923 -0.312547,-0.53923 0.0318,0 0.04461,-0.03495 0.04461,-0.1215 0,-0.11529 -0.0048,-0.12153 -0.09291,-0.12153 -0.05112,0 -0.18828,0.015 -0.304842,0.03288 l -0.211921,0.03288 -0.445968,-0.374647 c -0.352861,-0.29643 -0.432379,-0.376614 -0.380896,-0.384066 0.05685,-0.0081 0.06291,-0.0237 0.04779,-0.121531 -0.0093,-0.06165 -0.0216,-0.11727 -0.027,-0.12357 -0.0054,-0.0063 -0.14244,0.0054 -0.304648,0.0255 l -0.29493,0.03711 -0.358828,-0.359799 c -0.19734,-0.197881 -0.359079,-0.370054 -0.359391,-0.382585 -3.15e-4,-0.0126 0.05754,-0.0231 0.12855,-0.0231 0.2307,-7.41e-4 0.26583,-0.0216 0.26583,-0.15846 v -0.121411 l -0.12909,0.0177 c -0.07101,0.0099 -0.2751,0.0267 -0.453508,0.03783 l -0.324393,0.0201 -0.247411,-0.49411 c -0.551323,-1.101023 -1.048447,-2.34352 -1.416014,-3.539127 -0.05652,-0.183781 -0.10278,-0.351943 -0.10284,-0.373663 -6e-5,-0.0288 0.04632,-0.03705 0.17199,-0.03039 l 0.17208,0.0093 0.103141,0.25821 c 0.501576,1.255734 1.246382,2.715245 1.906011,3.734995 l 0.20139,0.311325 0.13932,-0.0111 0.139321,-0.0111 0.374022,0.48964 0.374023,0.48964 0.14598,-0.0249 0.14598,-0.0249 0.486064,0.499303 0.48607,0.499306 0.17697,-0.0246 0.176971,-0.0246 0.485314,0.970267 c 0.444003,0.887666 0.484539,0.982178 0.476178,1.110191 l -0.0093,0.13992 z m 0.527923,0.23649 c 0.0081,-0.11409 0.1083,-0.340762 0.473071,-1.070864 0.25449,-0.509386 0.474684,-0.940984 0.489309,-0.959107 0.0177,-0.0219 0.08469,-0.0252 0.199201,-0.0096 l 0.17262,0.0234 0.479332,-0.494368 0.479332,-0.494365 0.16116,0.0117 0.16116,0.0117 0.361279,-0.482665 0.361279,-0.482662 0.13998,0.0132 0.13998,0.0132 0.22524,-0.34458 c 0.554914,-0.848972 1.233141,-2.154433 1.702071,-3.276171 0.136201,-0.325815 0.258661,-0.612898 0.272161,-0.637963 0.0162,-0.03033 0.08217,-0.0486 0.19701,-0.05469 l 0.1725,-0.0093 -0.0195,0.08511 c -0.0108,0.0468 -0.12561,0.406351 -0.25521,0.799 -0.368206,1.115645 -0.729955,2.001547 -1.238957,3.034131 l -0.260191,0.527851 -0.321555,-0.0198 c -0.17685,-0.0111 -0.378007,-0.0276 -0.447004,-0.03711 l -0.12543,-0.0171 -0.0144,0.116821 c -0.0081,0.06426 -0.0096,0.12258 -0.0036,0.1296 0.0063,0.0069 0.09855,0.0207 0.20556,0.03036 l 0.194581,0.0177 -0.310075,0.318981 c -0.458533,0.471703 -0.388462,0.433285 -0.717391,0.393292 -0.309271,-0.03759 -0.332686,-0.0285 -0.333583,0.12864 -3.51e-4,0.05955 0.0168,0.08406 0.06321,0.09114 0.0498,0.0075 -0.03366,0.09123 -0.382818,0.383715 l -0.446518,0.374005 -0.20781,-0.03225 c -0.35506,-0.05508 -0.384973,-0.04941 -0.399601,0.07587 -0.0084,0.0711 0.0016,0.11613 0.0291,0.13152 0.03153,0.0177 -0.10659,0.249001 -0.560311,0.938654 -0.331168,0.503389 -0.61186,0.915844 -0.623761,0.916567 -0.012,7.23e-4 -0.0171,-0.06378 -0.0111,-0.1434 z m -0.605032,-1.388834 c -0.183781,-0.367255 -0.338731,-0.678262 -0.344299,-0.691127 -0.0054,-0.0129 0.0189,-0.0234 0.05454,-0.0234 0.05811,0 0.06261,-0.0114 0.04407,-0.11391 -0.0111,-0.06264 -0.0255,-0.11952 -0.03159,-0.12642 -0.006,-0.0069 -0.14418,0.0039 -0.306993,0.024 l -0.296011,0.03636 -0.37782,-0.380848 C 88.272411,45.791455 88.246854,45.7582 88.32456,45.7582 c 0.08304,0 0.08466,-0.003 0.06468,-0.12798 -0.0111,-0.07038 -0.0234,-0.130201 -0.0267,-0.132931 -0.0033,-0.0027 -0.14235,0.0126 -0.308787,0.03447 -0.275641,0.03591 -0.305887,0.03489 -0.33967,-0.0114 -0.0204,-0.0279 -0.14712,-0.19434 -0.28158,-0.369786 l -0.244501,-0.318979 0.11328,-0.0078 c 0.292141,-0.0201 0.310744,-0.0297 0.310744,-0.16086 v -0.12033 l -0.265831,0.0231 c -0.14619,0.0126 -0.34731,0.0231 -0.446916,0.0231 h -0.181111 l -0.20205,-0.318994 c -0.6055,-0.955981 -1.246667,-2.222914 -1.741608,-3.441375 -0.09351,-0.23025 -0.17007,-0.431898 -0.17007,-0.448092 0,-0.018 0.25428,-0.0294 0.660748,-0.0291 l 0.660745,3.6e-4 0.1974,0.386973 c 0.706952,1.385757 1.800801,3.19389 2.582279,4.268492 l 0.25821,0.35508 1.387815,6.45e-4 1.387811,6.48e-4 0.10392,-0.12909 c 0.18294,-0.22731 0.821438,-1.174529 1.182587,-1.754397 0.561673,-0.901829 1.023932,-1.712511 1.606572,-2.817503 l 0.1641,-0.311226 0.660748,-1.5e-4 c 0.363409,-9.3e-5 0.660748,0.0075 0.660748,0.0168 0,0.0093 -0.0735,0.19728 -0.16329,0.417711 -0.512698,1.258217 -1.092551,2.410441 -1.728615,3.43494 l -0.24288,0.391195 -0.292081,-0.0201 c -0.16065,-0.0111 -0.357006,-0.0282 -0.436371,-0.03816 l -0.144301,-0.018 v 0.12189 c 0,0.13734 0.03489,0.15819 0.265831,0.15894 0.07101,2.64e-4 0.12912,0.0096 0.12912,0.0204 0,0.0216 -0.516733,0.706282 -0.54496,0.721984 -0.0096,0.0051 -0.14694,-0.0075 -0.305655,-0.0282 -0.158731,-0.0207 -0.298861,-0.0318 -0.311389,-0.0246 -0.0126,0.0072 -0.0228,0.06597 -0.0228,0.130651 0,0.09171 0.0126,0.11976 0.05751,0.12732 0.04491,0.0075 -0.0201,0.09156 -0.29619,0.383367 l -0.353692,0.373666 -0.298801,-0.03711 c -0.329919,-0.04095 -0.352974,-0.03231 -0.353895,0.13275 -3.51e-4,0.06351 0.0141,0.08352 0.06042,0.08352 0.05256,0 0.0132,0.09558 -0.288721,0.69872 -0.19227,0.384297 -0.35496,0.698722 -0.3615,0.698722 -0.0066,0 -0.0111,-0.1743 -0.0099,-0.387337 l 0.0023,-0.387333 -0.126,-0.003 -0.126001,9.75e-4 -0.0087,0.372474 -0.0084,0.389038 z m 32.648146,-1.680585 q 0,-0.220501 -0.114,-0.332005 -0.11145,-0.11397 -0.40881,-0.23538 -0.5426,-0.205651 -0.78047,-0.480664 -0.23784,-0.2775 -0.23784,-0.6541 0,-0.455884 0.32208,-0.730903 0.32457,-0.277501 0.82259,-0.277501 0.332,0 0.59216,0.14121 0.26016,0.138751 0.3989,0.393946 0.14115,0.25521 0.14115,0.579769 h -0.72595 q 0,-0.25272 -0.10905,-0.384037 -0.1065,-0.1338 -0.3097,-0.1338 -0.1908,0 -0.29733,0.11397 -0.1065,0.111511 -0.1065,0.302272 0,0.14868 0.11895,0.27006 0.11895,0.118921 0.4212,0.247771 0.52773,0.19077 0.76559,0.468277 0.24033,0.2775 0.24033,0.706129 0,0.470752 -0.29982,0.735862 -0.29979,0.26511 -0.81513,0.26511 -0.34936,0 -0.63676,-0.1437 -0.2874,-0.1437 -0.45093,-0.411288 -0.16104,-0.267601 -0.16104,-0.631802 h 0.73089 q 0,0.312187 0.12135,0.453412 0.12135,0.14121 0.39643,0.14121 0.38155,0 0.38155,-0.403857 z m -1.90283,-2.053969 h -0.89195 v 3.000431 h -0.7309 v -3.000299 h -0.87708 V 43.07289 h 2.49994 z m -3.3473,2.262091 h -0.99354 l -0.19326,0.73834 h -0.77054 l 1.12733,-3.607455 h 0.66648 l 1.13476,3.607455 h -0.77796 z m -0.83496,-0.607024 h 0.67392 l -0.33696,-1.285898 z m -1.35775,-0.1338 q 0,0.725947 -0.3444,1.127327 -0.34191,0.401379 -0.95142,0.401379 -0.60702,0 -0.95388,-0.39642 -0.34688,-0.398905 -0.35183,-1.114943 v -0.616936 q 0,-0.743293 0.34439,-1.159538 0.3444,-0.41872 0.95637,-0.41872 0.60207,0 0.94893,0.411286 0.34688,0.408814 0.35184,1.149629 z m -0.73093,-0.604468 q 0,-0.488095 -0.13875,-0.72595 -0.13875,-0.237841 -0.43111,-0.237841 -0.28989,0 -0.42864,0.230431 -0.13875,0.22794 -0.1437,0.696217 v 0.641713 q 0,0.47323 0.1413,0.698695 0.14115,0.22299 0.43605,0.22299 0.28495,0 0.4237,-0.21804 0.13875,-0.2205 0.14115,-0.681352 z m -4.65548,2.083701 V 43.07288 h 1.11492 q 0.5649,0 0.85727,0.252721 0.29484,0.25026 0.29484,0.735862 0,0.27501 -0.12135,0.47323 -0.12135,0.19821 -0.33201,0.28989 0.24282,0.06939 0.37413,0.279961 0.13125,0.20811 0.13125,0.51535 0,0.525261 -0.28989,0.79285 -0.2874,0.26757 -0.83496,0.26757 z m 0.72842,-1.568351 v 0.963805 h 0.46579 q 0.19575,0 0.29733,-0.12141 0.10155,-0.12141 0.10155,-0.344394 0,-0.485617 -0.35184,-0.498007 z m 0,-0.530218 h 0.37908 q 0.42862,0 0.42862,-0.443497 0,-0.24528 -0.0992,-0.351826 -0.0991,-0.10653 -0.32211,-0.10653 h -0.3865 z m -3.6248,-1.508886 0.68135,2.608961 0.67887,-2.608961 h 0.95142 v 3.607455 h -0.7309 V 45.70414 l 0.0669,-1.50393 -0.72101,2.480125 h -0.49552 l -0.721,-2.480125 0.0669,1.50393 v 0.976195 h -0.72843 V 43.07288 Z m -1.5634,3.607455 h -0.72842 V 43.07288 h 0.72842 z m -2.47764,-1.318109 h -0.36174 v 1.318109 h -0.72842 V 43.07288 h 1.16201 q 0.54756,0 0.84487,0.284941 0.29979,0.28245 0.29979,0.805237 0,0.718516 -0.52279,1.005923 l 0.63181,1.476677 v 0.03468 h -0.78292 z m -0.36174,-0.607021 h 0.41376 q 0.21804,0 0.32706,-0.1437 0.10899,-0.14619 0.10899,-0.388993 0,-0.542605 -0.42368,-0.542605 h -0.42615 z m -3.577723,1.92513 V 43.07288 h 1.114946 q 0.564907,0 0.857257,0.252721 0.29484,0.25026 0.29484,0.735862 0,0.27501 -0.12141,0.47323 -0.12141,0.19821 -0.332,0.28989 0.24279,0.06939 0.37412,0.279961 0.13131,0.20811 0.13131,0.51535 0,0.525261 -0.28989,0.79285 -0.2874,0.26757 -0.83496,0.26757 z m 0.728431,-1.568351 v 0.963805 h 0.465802 q 0.19572,0 0.2973,-0.12141 0.10158,-0.12141 0.10158,-0.344394 0,-0.485617 -0.35182,-0.498007 z m 0,-0.530218 h 0.379075 q 0.428637,0 0.428637,-0.443497 0,-0.24528 -0.0991,-0.351826 -0.0991,-0.10653 -0.322086,-0.10653 h -0.386515 z" />
  </g>
</svg>
