<?xml version="1.0" encoding="UTF-8" standalone="no"?>
<svg
   xmlns:dc="http://purl.org/dc/elements/1.1/"
   xmlns:cc="http://creativecommons.org/ns#"
   xmlns:rdf="http://www.w3.org/1999/02/22-rdf-syntax-ns#"
   xmlns:svg="http://www.w3.org/2000/svg"
   xmlns="http://www.w3.org/2000/svg"
   xmlns:sodipodi="http://sodipodi.sourceforge.net/DTD/sodipodi-0.dtd"
   xmlns:inkscape="http://www.inkscape.org/namespaces/inkscape"
   width="117.94517mm"
   height="78.660805mm"
   viewBox="0 0 117.94516 78.660803"
   version="1.1"
   id="svg8"
   inkscape:version="1.0.1 (3bc2e813f5, 2020-09-07, custom)"
   sodipodi:docname="brimboatsLogo.svg">
  <defs
     id="defs2">
    <rect
       x="37.731316"
       y="86.923401"
       width="158.10419"
       height="80.179214"
       id="rect12" />
  </defs>
  <sodipodi:namedview
     id="base"
     pagecolor="#80807f"
     bordercolor="#666666"
     borderopacity="1.0"
     inkscape:pageopacity="0"
     inkscape:pageshadow="2"
     inkscape:zoom="1.1604274"
     inkscape:cx="193.79469"
     inkscape:cy="167.14608"
     inkscape:document-units="mm"
     inkscape:current-layer="layer1"
     inkscape:document-rotation="0"
     showgrid="false"
     inkscape:window-width="1920"
     inkscape:window-height="1056"
     inkscape:window-x="0"
     inkscape:window-y="0"
     inkscape:window-maximized="0" />
  <metadata
     id="metadata5">
    <rdf:RDF>
      <cc:Work
         rdf:about="">
        <dc:format>image/svg+xml</dc:format>
        <dc:type
           rdf:resource="http://purl.org/dc/dcmitype/StillImage" />
        <dc:title></dc:title>
      </cc:Work>
    </rdf:RDF>
  </metadata>
  <g
     inkscape:label="Layer 1"
     inkscape:groupmode="layer"
     id="layer1"
     transform="translate(-37.671093,-28.221038)">
    <g
       aria-label="BRIMBOATS"
       transform="matrix(1.8010043,0,0,1.8010043,-113.98119,-45.304234)"
       id="text10"
       style="font-style:normal;font-variant:normal;font-weight:bold;font-stretch:normal;font-size:16.9333px;line-height:1.25;font-family:'Roboto Condensed';-inkscape-font-specification:'Roboto Condensed, Bold';text-align:center;letter-spacing:0px;white-space:pre;shape-inside:url(#rect12);fill:#ffffff;fill-opacity:1" />
    <g
       id="g965">
      <path
         id="path90"
         style="mix-blend-mode:multiply;fill:#1a2238;fill-opacity:1;stroke-width:0.264006"
         d="m 91.244512,103.52746 c -2.26358,-2.74376 -6.591093,-8.036935 -10.229492,-12.51215 -0.337232,-0.414794 -0.485735,-0.754172 -0.330008,-0.754172 0.155727,0 0.283141,-0.346693 0.283141,-0.770426 0,-1.509695 -0.04993,-1.532658 -2.582284,-1.187781 -1.266009,0.172415 -2.420639,0.226943 -2.565843,0.121168 -4.058611,-2.956473 -8.035591,-6.194259 -7.792761,-6.344336 0.319018,-0.197165 0.110693,-2.114877 -0.229743,-2.114877 -0.09655,0 -1.157774,0.123162 -2.35827,0.27369 l -2.182723,0.273691 -3.8144,-3.067571 c -2.097919,-1.687165 -3.878888,-3.171918 -3.957707,-3.299452 -0.07882,-0.127531 0.454848,-0.311227 1.18593,-0.408207 l 1.329238,-0.17633 v -1.058428 -1.058428 l -1.914047,0.163684 c -6.281088,0.537147 -6.709159,0.537773 -6.866193,0.01001 C 49.138036,71.344257 48.585194,69.95157 47.990812,68.52268 45.545611,62.644436 42.616504,53.338093 40.332901,44.192012 39.078896,39.16959 37.671093,32.944861 37.671093,32.422604 c 0,-0.133588 0.530359,-0.242886 1.178577,-0.242886 h 1.178575 l 1.229526,3.894095 c 3.179958,10.071414 7.912284,21.635733 12.59682,30.782688 l 2.142821,4.184035 1.362102,-0.129239 1.362099,-0.129239 4.268481,4.32107 4.26848,4.321073 1.11265,-0.13981 1.112647,-0.139812 5.016123,4.218034 c 5.350995,4.499625 4.956765,4.288544 7.179071,3.84382 0.627773,-0.125627 0.06548,-0.918632 9.244447,13.037327 2.226343,3.385 3.979029,6.26597 3.894856,6.40216 -0.358413,0.57992 -0.944959,0.0681 -3.573856,-3.11846 z m 7.270173,3.08606 c -0.177251,-0.28679 0.488507,-1.34012 8.102205,-12.818816 l 4.39806,-6.630681 1.36693,0.216081 1.36693,0.216082 5.04548,-4.240213 c 5.02698,-4.224666 5.04957,-4.239754 6.16149,-4.114425 l 1.116,0.125791 4.17884,-4.239471 4.17884,-4.239468 1.45204,-0.01587 1.45203,-0.01587 2.03303,-3.960097 c 2.61984,-5.103113 6.14497,-13.023902 8.40095,-18.876461 1.78131,-4.621174 4.77456,-13.365599 5.12852,-14.982367 0.18132,-0.828238 0.23355,-0.858021 1.50468,-0.858021 1.12789,0 1.29811,0.06629 1.18626,0.462012 -0.0718,0.254106 -0.50642,2.184653 -0.96575,4.290105 -2.60494,11.940201 -5.93238,23.151454 -9.44187,31.812777 l -1.28367,3.168078 h -1.56503 c -0.86077,0 -2.7753,-0.09403 -4.25451,-0.208951 l -2.68948,-0.208948 -0.0826,1.000968 -0.0826,1.000967 1.40221,0.264006 1.40221,0.264007 -1.9247,1.584039 c -5.68012,4.67477 -6.05062,4.925354 -7.06109,4.775739 -0.52074,-0.07711 -1.62992,-0.216752 -2.46484,-0.310331 l -1.51804,-0.170142 v 1.064445 c 0,0.585445 0.13243,1.10859 0.29429,1.162542 0.16187,0.05396 -1.60404,1.529664 -3.92422,3.279354 l -4.21852,3.181254 -1.42191,-0.202005 c -0.78204,-0.111102 -1.85441,-0.210677 -2.38304,-0.221277 -0.90648,-0.01816 -0.96728,0.03329 -1.06904,0.90494 -0.0593,0.508316 0.003,1.035494 0.1394,1.171505 0.15372,0.153721 -0.72647,1.427338 -2.32616,3.365892 -1.41539,1.715232 -4.43149,5.400163 -6.70244,8.18873 -2.27094,2.78858 -4.270479,5.07554 -4.443414,5.08213 -0.172935,0.007 -0.392306,-0.11403 -0.487491,-0.26804 z m -5.392142,-6.99293 c -1.22868,-1.880619 -3.630632,-5.528058 -5.337674,-8.105421 -1.911763,-2.886462 -2.954877,-4.686115 -2.716159,-4.686115 0.27614,0 0.387553,-0.303583 0.387553,-1.056026 0,-1.001841 -0.04143,-1.056025 -0.80745,-1.056025 -0.444096,0 -1.636228,0.128589 -2.649181,0.285755 l -1.841733,0.285753 -3.87562,-3.255826 c -3.066516,-2.576117 -3.757566,-3.272917 -3.310136,-3.33768 0.493964,-0.0715 0.546489,-0.205067 0.415288,-1.056026 -0.08261,-0.535796 -0.188231,-1.019118 -0.23471,-1.074047 -0.04648,-0.05493 -1.23786,0.0453 -2.647515,0.222732 l -2.563011,0.322608 -3.118318,-3.126803 c -1.715076,-1.719744 -3.120543,-3.215908 -3.12326,-3.32481 -0.0027,-0.108903 0.499976,-0.199626 1.117091,-0.201609 2.004949,-0.0064 2.310056,-0.18834 2.310056,-1.377198 v -1.05521 l -1.122027,0.153956 c -0.617115,0.08468 -2.390626,0.232608 -3.941136,0.328741 l -2.819111,0.174788 -2.150156,-4.293989 c -4.791202,-9.568319 -9.11143,-20.366109 -12.305721,-30.756385 -0.491042,-1.597239 -0.893166,-3.058504 -0.893609,-3.247255 -5.28e-4,-0.250569 0.402763,-0.321816 1.494667,-0.264007 l 1.495473,0.07918 0.896346,2.244055 c 4.358911,10.912781 10.831562,23.596491 16.56398,32.45853 l 1.750069,2.705525 1.210721,-0.09629 1.21072,-0.09629 3.250395,4.255158 3.250397,4.255159 1.268623,-0.215815 1.268625,-0.215812 4.224104,4.339152 4.224104,4.339155 1.537985,-0.214125 1.537986,-0.214125 4.217587,8.431981 c 3.858536,7.714147 4.210827,8.535501 4.138154,9.647981 l -0.07944,1.216 z m 4.58787,2.05529 c 0.07091,-0.99135 0.941183,-2.961342 4.111157,-9.306225 2.21167,-4.426763 4.1252,-8.177518 4.2523,-8.335011 0.15331,-0.189974 0.73595,-0.21784 1.73112,-0.08279 l 1.50003,0.203557 4.16558,-4.296233 4.16558,-4.296232 1.40047,0.101711 1.40047,0.101711 3.13964,-4.194532 3.13963,-4.194532 1.21647,0.114106 1.21647,0.114106 1.95732,-2.994538 c 4.82241,-7.377892 10.71646,-18.722854 14.79162,-28.471163 1.18366,-2.83147 2.24798,-5.326331 2.36515,-5.544136 0.14183,-0.263642 0.71412,-0.422558 1.71215,-0.475436 l 1.49911,-0.07943 -0.17029,0.739445 c -0.0937,0.406692 -1.0917,3.531311 -2.21789,6.943594 -3.19985,9.695376 -6.34361,17.394206 -10.76705,26.36775 l -2.26124,4.587216 -2.79442,-0.173133 c -1.53693,-0.09522 -3.28502,-0.240267 -3.88463,-0.322318 l -1.0902,-0.149179 -0.12636,1.015226 c -0.0695,0.558376 -0.0834,1.065158 -0.0309,1.12618 0.0525,0.06103 0.85642,0.179828 1.78646,0.264007 l 1.69098,0.153055 -2.69468,2.772068 c -3.98481,4.09927 -3.37584,3.765418 -6.23439,3.417851 -2.68767,-0.32679 -2.89114,-0.248327 -2.89895,1.117899 -0.003,0.517376 0.14481,0.730339 0.54954,0.792019 0.4329,0.06597 -0.29231,0.792875 -3.32685,3.334623 l -3.88043,3.250258 -1.80584,-0.280185 c -3.08561,-0.478749 -3.34556,-0.429391 -3.47267,0.659369 -0.0721,0.617752 0.0148,1.009205 0.25367,1.1429 0.27379,0.153222 -0.92649,2.163969 -4.86932,8.157259 -2.87797,4.374653 -5.317295,7.959053 -5.420724,7.965323 -0.10343,0.006 -0.147577,-0.55449 -0.0981,-1.24616 z M 92.452434,89.606371 c -1.597239,-3.19159 -2.943672,-5.894356 -2.992072,-6.006147 -0.0484,-0.111789 0.164885,-0.203254 0.473973,-0.203254 0.505211,0 0.543896,-0.100003 0.382987,-0.990024 -0.09844,-0.544513 -0.221956,-1.038852 -0.274472,-1.098531 -0.05252,-0.05968 -1.25307,0.03375 -2.667899,0.207625 l -2.572413,0.316132 -3.283414,-3.309701 c -2.996705,-3.020696 -3.218801,-3.309701 -2.543467,-3.309701 0.721633,0 0.735546,-0.02753 0.562115,-1.112117 -0.09781,-0.611663 -0.202097,-1.131428 -0.231748,-1.155033 -0.02965,-0.0236 -1.237219,0.111213 -2.683483,0.299594 -2.395488,0.312019 -2.658259,0.303206 -2.951847,-0.099 -0.177254,-0.24283 -1.278388,-1.688939 -2.446965,-3.213576 l -2.124687,-2.772068 0.984433,-0.06772 c 2.538707,-0.174651 2.700477,-0.258386 2.700477,-1.397817 v -1.045602 l -2.310057,0.199546 c -1.270531,0.109748 -3.018277,0.199544 -3.883883,0.199544 H 65.016185 L 63.260404,62.276453 C 57.99836,53.968609 52.426369,42.958492 48.12516,32.369581 c -0.812816,-2.001027 -1.477848,-3.75337 -1.477848,-3.894096 0,-0.157403 2.209689,-0.254658 5.742141,-0.252728 l 5.74214,0.0031 1.715622,3.362946 c 6.143674,12.042768 15.649664,27.756123 22.440971,37.094813 l 2.244055,3.085787 12.06062,0.0056 12.060619,0.0056 0.90305,-1.122027 c 1.58976,-1.975273 7.1386,-10.207113 10.27713,-15.246372 4.88116,-7.837249 8.89837,-14.88239 13.96171,-24.485195 l 1.42611,-2.704664 5.74214,-0.0013 c 3.15818,-7.92e-4 5.74214,0.0649 5.74214,0.145929 0,0.08103 -0.63862,1.714574 -1.41916,3.630089 -4.45556,10.934385 -9.49468,20.947648 -15.02233,29.85094 l -2.11066,3.399622 -2.53822,-0.175826 c -1.39601,-0.0967 -3.10252,-0.245903 -3.79224,-0.331557 l -1.25403,-0.155733 v 1.059247 c 0,1.193357 0.30343,1.374785 2.31006,1.381232 0.61711,0.0021 1.12203,0.0822 1.12203,0.178273 0,0.188551 -4.4906,6.137862 -4.7359,6.274298 -0.0815,0.04534 -1.27685,-0.06483 -2.65628,-0.244821 -1.37944,-0.179992 -2.59717,-0.276314 -2.70607,-0.214048 -0.1089,0.06226 -0.19801,0.573144 -0.19801,1.135291 0,0.797025 0.11003,1.040658 0.49966,1.106445 0.39022,0.06589 -0.17354,0.795573 -2.57406,3.331638 l -3.07372,3.247274 -2.59662,-0.322294 c -2.86712,-0.355954 -3.06749,-0.280776 -3.07548,1.153841 -0.003,0.55186 0.12288,0.726017 0.52507,0.726017 0.45675,0 0.1136,0.830438 -2.50916,6.072149 -1.671052,3.339682 -3.084767,6.072148 -3.141589,6.072148 -0.05682,0 -0.09467,-1.514737 -0.0841,-3.366082 l 0.01922,-3.366082 -1.095065,-0.02627 -1.095064,0.0086 -0.07377,3.236945 -0.07377,3.380883 z" />
    </g>
    <rect
       style="mix-blend-mode:multiply;fill:#ffffff;fill-opacity:1;stroke-width:0.264006"
       id="rect122"
       width="0"
       height="2.4980371"
       x="97.694168"
       y="86.311066"
       inkscape:export-xdpi="107.44238"
       inkscape:export-ydpi="107.44238" />
  </g>
</svg>
