<?xml version="1.0" encoding="UTF-8" standalone="no"?>
<svg
   xmlns:dc="http://purl.org/dc/elements/1.1/"
   xmlns:cc="http://creativecommons.org/ns#"
   xmlns:rdf="http://www.w3.org/1999/02/22-rdf-syntax-ns#"
   xmlns:svg="http://www.w3.org/2000/svg"
   xmlns="http://www.w3.org/2000/svg"
   xmlns:sodipodi="http://sodipodi.sourceforge.net/DTD/sodipodi-0.dtd"
   xmlns:inkscape="http://www.inkscape.org/namespaces/inkscape"
   width="238.52989mm"
   height="54.400902mm"
   viewBox="0 0 238.52988 54.400901"
   version="1.1"
   id="svg8"
   inkscape:version="1.0.1 (3bc2e813f5, 2020-09-07, custom)"
   sodipodi:docname="brimboatsLogoNa.svg">
  <defs
     id="defs2">
    <rect
       x="37.731316"
       y="86.923401"
       width="158.10419"
       height="80.179214"
       id="rect12" />
  </defs>
  <sodipodi:namedview
     id="base"
     pagecolor="#6d7b8c"
     bordercolor="#666666"
     borderopacity="1.0"
     inkscape:pageopacity="0"
     inkscape:pageshadow="2"
     inkscape:zoom="0.78599064"
     inkscape:cx="354.87085"
     inkscape:cy="288.9319"
     inkscape:document-units="mm"
     inkscape:current-layer="layer1"
     inkscape:document-rotation="0"
     showgrid="false"
     inkscape:window-width="1920"
     inkscape:window-height="1056"
     inkscape:window-x="0"
     inkscape:window-y="0"
     inkscape:window-maximized="0" />
  <metadata
     id="metadata5">
    <rdf:RDF>
      <cc:Work
         rdf:about="">
        <dc:format>image/svg+xml</dc:format>
        <dc:type
           rdf:resource="http://purl.org/dc/dcmitype/StillImage" />
        <dc:title></dc:title>
      </cc:Work>
    </rdf:RDF>
  </metadata>
  <g
     inkscape:label="Layer 1"
     inkscape:groupmode="layer"
     id="layer1"
     transform="translate(-83.571714,-40.351009)">
    <text
       xml:space="preserve"
       id="text10"
       style="font-style:normal;font-variant:normal;font-weight:bold;font-stretch:normal;font-size:16.9333px;line-height:1.25;font-family:'Roboto Condensed';-inkscape-font-specification:'Roboto Condensed, Bold';text-align:center;letter-spacing:0px;white-space:pre;shape-inside:url(#rect12);fill:#ffffff;fill-opacity:1;"
       x="10.19576"
       y="0"
       transform="matrix(1.8010043,0,0,1.8010043,38.02646,-106.20058)"
       inkscape:export-xdpi="232"
       inkscape:export-ydpi="232"><tspan
         x="75.198226"
         y="102.49435"><tspan
           style="font-style:normal;font-variant:normal;font-weight:bold;font-stretch:normal;font-size:16.9333px;font-family:'Roboto Condensed';-inkscape-font-specification:'Roboto Condensed, Bold';text-align:center;text-anchor:middle;fill:#ffffff;fill-opacity:1">BRIMBOATS</tspan></tspan></text>
    <g
       inkscape:label="Image"
       id="g86"
       transform="matrix(0.18258403,0,0,0.18258403,128.30356,78.323497)"
       style="mix-blend-mode:multiply;fill:#ffffff;fill-opacity:1"
       inkscape:export-xdpi="232"
       inkscape:export-ydpi="232">
      <path
         style="fill:#ffffff;fill-opacity:1"
         d="m -42.068545,77.271707 c -8.57396,-10.39278 -24.96565,-30.4422 -38.74713,-47.39336 -1.27736,-1.57115 -1.83986,-2.85664 -1.25,-2.85664 0.58986,0 1.07248,-1.3132 1.07248,-2.91821 0,-5.7184 -0.18911,-5.80538 -9.78114,-4.49906 -4.79537,0.65307 -9.168862,0.85961 -9.718865,0.45896 -15.37315,-11.1984897 -30.4371,-23.4625297 -29.51731,-24.0309897 1.20837,-0.74682 0.41928,-8.0107003 -0.87022,-8.0107003 -0.36571,0 -4.3854,0.46651 -8.93262,1.03668 l -8.26769,1.0366799 -14.44813,-11.6192999 c -7.94647,-6.39062 -14.6924,-12.01455 -14.99095,-12.49762 -0.29855,-0.48306 1.72287,-1.17886 4.49205,-1.5462 l 5.03487,-0.6679 v -4.0091 -4.0091 l -7.25,0.62 c -23.79142,2.0346 -25.41286,2.03697 -26.00767,0.0379 -0.308,-1.03514 -2.40205,-6.31034 -4.65344,-11.72267 -9.2619,-22.26553 -20.35673,-57.515967 -29.00653,-92.159367 -4.7499,-19.02386 -10.08236,-42.6018 -10.08236,-44.58 0,-0.506 2.00889,-0.92 4.4642,-0.92 h 4.46419 l 4.65718,14.75 c 12.045,38.14836 29.97004,81.951529 47.71406,116.598237 l 8.11655,15.84823 5.15935,-0.48953 5.15934,-0.48953 16.16809,16.36729 16.16809,16.3673 4.21448,-0.52957 4.21447,-0.52958 19,15.97701028 C -85.224775,17.935187 -86.718035,17.135657 -78.300415,15.451137 c 2.37787,-0.47585 0.24801,-3.47958 35.01599,49.38262 8.43291,12.82163 15.07171,23.73413 14.75288,24.25 -1.35759,2.19662 -3.5793,0.25801 -13.537,-11.81205 z m 27.53786,11.68934 c -0.67139,-1.08633 1.85036,-5.07609 30.68942,-48.55495 l 16.65891,-25.1156 5.17763,0.81847 5.17764,0.81847 19.1112,-16.06101972 C 81.325245,-15.135713 81.410825,-15.192863 85.622515,-14.718143 l 4.22719,0.47647 15.828545,-16.05821 15.82855,-16.0582 5.5,-0.0601 5.5,-0.0601 7.70069,-15 c 9.92337,-19.3295 23.27583,-49.331757 31.82098,-71.499997 6.74724,-17.50402 18.08502,-50.62603 19.42573,-56.75 0.68681,-3.13719 0.88465,-3.25 5.69944,-3.25 4.27219,0 4.91695,0.25111 4.49327,1.75 -0.27207,0.9625 -1.9182,8.275 -3.65806,16.25 -9.86695,45.22693 -22.47058,87.692757 -35.76375,120.499997 l -4.86228,12 h -5.92801 c -3.26041,0 -10.51223,-0.35616 -16.11517,-0.79146 l -10.18717,-0.79145 -0.31283,3.79145 -0.31284,3.79145 5.31128,1 5.31127,1 -7.29035,6 c -21.5151,17.70703 -22.91846,18.6561899 -26.74591,18.08948 -1.972455,-0.29206 -6.173785,-0.82101 -9.336285,-1.17547 l -5.75,-0.64446 v 4.0318899 c 0,2.2175404 0.50162,4.1991004 1.11471,4.4034604 0.6131,0.20437 -6.07576,5.79404 -14.86413,12.42149 l -15.97884,12.0499097 -5.38587,-0.76515 c -2.96223,-0.42083 -7.02414,-0.798 -9.02646,-0.83815 -3.43356,-0.0688 -3.66384,0.12609 -4.04929,3.42772 -0.22478,1.92539 0.0128,3.92223 0.52801,4.43741 0.58226,0.58226 -2.75172,5.40645 -8.81098,12.74928 -5.36122,6.49693 -16.78555,20.45466 -25.3874104,31.01719 -8.60186,10.56253 -16.1756796,19.22503 -16.8307196,19.25 -0.65504,0.025 -1.48597,-0.4319 -1.84651,-1.01526 z m -20.42428,-26.48774 c -4.65398,-7.12338 -13.75206,-20.9391 -20.21797,-30.7016 -7.24135,-10.9333 -11.19244,-17.75 -10.28823,-17.75 1.04596,0 1.46797,-1.14991 1.46797,-4 0,-3.7947597 -0.15693,-3.9999997 -3.05845,-3.9999997 -1.68214,0 -6.19768,0.48707 -10.03453,1.08238 l -6.97609,1.08237 -14.68002,-12.33237 c -11.615305,-9.7577803 -14.232855,-12.3971103 -12.538085,-12.6424203 1.87103,-0.27082 2.06998,-0.77675 1.57302,-4 -0.31291,-2.02948 -0.71298,-3.8602 -0.88903,-4.06826 -0.17605,-0.20807 -4.68875,0.17158 -10.02822,0.84366 l -9.70814,1.22197 -11.81152,-11.84366 c -6.49634,-6.51402 -11.81995,-12.18117 -11.83024,-12.59367 -0.0103,-0.4125 1.8938,-0.75614 4.2313,-0.76365 7.59432,-0.0244 8.75,-0.71339 8.75,-5.21653 v -3.99691 l -4.25,0.58315 c -2.3375,0.32073 -9.05518,0.88107 -14.92818,1.2452 l -10.67819,0.66206 -8.14433,-16.26471 c -18.14805,-36.242747 -34.51215,-77.142467 -46.61144,-116.498607 -1.85996,-6.05 -3.38312,-11.58496 -3.3848,-12.29991 -0.002,-0.9491 1.52558,-1.21897 5.66148,-1 l 5.66453,0.29991 3.39517,8.5 c 16.51062,41.33528 41.02764,89.37846 62.74081,122.945967 l 6.62889,10.24795 4.58595,-0.36474 4.58595,-0.36473 12.3118,16.11763 12.31181,16.11763 4.80527,-0.81746 4.80528,-0.81745 16.000005,16.43578 16,16.4357903 5.82556,-0.81106 5.82556,-0.81106 15.97532,31.9385397 c 14.61531,29.21954 15.94971,32.33066 15.67444,36.54448 l -0.30088,4.60593 z m 17.37787,7.78501 c 0.26861,-3.75505 3.565,-11.21694 15.5721996,-35.25 8.37731,-16.76763 15.6253604,-30.9746897 16.1067904,-31.5712397 0.58071,-0.71958 2.78761,-0.82513 6.55711,-0.31359 l 5.6818,0.77103 15.77833,-16.2732103 15.77832,-16.27321 5.30467,0.38526 5.30468,0.38526 11.89227,-15.88799 11.89227,-15.88799 4.60773,0.43221 4.607725,0.43221 7.41391,-11.34267 c 18.26627,-27.945878 40.59166,-70.918167 56.0275,-107.842677 4.48345,-10.725 8.51486,-20.175 8.95867,-21 0.53722,-0.99862 2.70493,-1.60056 6.48524,-1.80085 l 5.67831,-0.30086 -0.64499,2.80086 c -0.35474,1.54046 -4.13515,13.37585 -8.4009,26.30085 -12.12036,36.72401 -24.02823,65.88553 -40.78329,99.875397 l -8.56508,17.37539 -10.58468,-0.65579 c -5.82158,-0.36069 -12.44294,-0.91008 -14.71414,-1.22087 l -4.129445,-0.56506 -0.47863,3.84546 c -0.26324,2.11501 -0.31587,4.03459 -0.11695,4.26573 0.19892,0.23115 3.243935,0.68115 6.766715,1 l 6.40505,0.57974 -10.20684,10.5 c -15.093635,15.52716 -12.786975,14.2626 -23.614565,12.94609 -10.18031,-1.23781 -10.951,-0.94061 -10.98057,4.23436 -0.0112,1.95971 0.5485,2.76637 2.08151,3 1.63974,0.24989 -1.10719,3.00324 -12.6014,12.6308403 l -14.69821,12.31128 -6.84016,-1.06128 c -11.68761,-1.8134 -12.67226,-1.62644 -13.15371,2.49755 -0.27317,2.3399097 0.0559,3.8226497 0.96084,4.3290597 1.03705,0.58037 -3.50934,8.19665 -18.4439304,30.89795 -10.90114,16.57025 -20.1407896,30.14717 -20.5325596,30.17094 -0.39177,0.0238 -0.55899,-2.10031 -0.37159,-4.72018 z m -19.9161,-45.71673 c -6.05,-12.08906 -11.15,-22.3265597 -11.33333,-22.7499997 -0.18334,-0.42343 0.62455,-0.76988 1.79531,-0.76988 1.91363,0 2.06016,-0.37879002 1.45067,-3.75 -0.37288,-2.0625 -0.84072,-3.9349504 -1.03964,-4.1610004 -0.19892,-0.22605 -4.74636,0.12785 -10.10543,0.7864404 l -9.74375,1.19744 -12.43687,-12.5364403 c -11.35088,-11.44175 -12.19213,-12.53644 -9.63411,-12.53644 2.73339,0 2.78609,-0.10427 2.12917,-4.21246 -0.37048,-2.31685 -0.7655,-4.28561 -0.87781,-4.37502 -0.11232,-0.0894 -4.68632,0.42125 -10.16446,1.1348 -9.073595,1.18186 -10.068915,1.14848 -11.180965,-0.37498 -0.6714,-0.91979 -4.84226,-6.39734 -9.26858,-12.17234 l -8.04786,-10.5 3.72882,-0.25652 c 9.61608,-0.66154 10.22883,-0.97871 10.22883,-5.29463 v -3.96052 l -8.75,0.75584 c -4.8125,0.4157 -11.43259,0.75583 -14.71132,0.75583 h -5.96132 l -6.65052,-10.5 c -19.9315,-31.468337 -41.03701,-73.172307 -57.32907,-113.280837 -3.07877,-7.57946 -5.59777,-14.21696 -5.59777,-14.75 0,-0.59621 8.36983,-0.96459 21.75,-0.95728 l 21.75,0.0119 6.49841,12.73812 c 23.27092,45.61543 59.27758,105.134257 85.001595,140.507217 l 8.5,11.6883 45.68305,0.0213 45.68305,0.0213 3.42054,-4.25 c 6.02168,-7.48191 27.03952,-38.66236 38.92759,-57.749997 18.48879,-29.68582 33.70513,-56.37131 52.883975,-92.74468 l 5.40179,-10.24469 21.75,-0.005 c 11.9625,-0.003 21.75,0.24582 21.75,0.55275 0,0.30694 -2.41896,6.49444 -5.37547,13.75 -16.87672,41.41711 -35.96384,79.34521 -56.90137,113.068977 l -7.994755,12.87704 -9.6142,-0.66599 c -5.28781,-0.36629 -11.7517,-0.93143 -14.3642,-1.25587 l -4.75,-0.58988 v 4.0122 c 0,4.52018 1.14933,5.20739 8.75,5.23181 2.3375,0.008 4.25,0.31137 4.25,0.67526 0,0.71419 -17.00941,23.24891 -17.93857,23.7657 -0.30878,0.17173 -4.83643,-0.24556 -10.06143,-0.92733 -5.225,-0.68177 -9.8375,-1.04662 -10.25,-0.81077 -0.4125,0.23584 -0.75,2.17095 -0.75,4.30024 0,3.01896 0.41674,3.94179 1.89259,4.19098 1.47808,0.24956 -0.65734,3.01346 -9.75,12.61953 l -11.64259,12.2999803 -9.83542,-1.22078 c -10.8600704,-1.3482804 -11.6190104,-1.0635204 -11.6492704,4.3705 -0.0116,2.09032998 0.46545,2.75 1.98886,2.75 1.73007,0 0.43027,3.14552 -9.50417,22.9999997 -6.3295896,12.65 -11.6844396,23 -11.8996696,23 -0.21523,0 -0.35858,-5.7375 -0.31855,-12.75 l 0.0728,-12.75 -4.14787,-0.09951 -4.14787,0.03259 -0.27941,12.260855 -0.27943,12.80606 z"
         id="path90"
         inkscape:export-xdpi="107.44238"
         inkscape:export-ydpi="107.44238"
         sodipodi:nodetypes="ssssscssscssscccsssssscsscccccccssssssscccsscccccssssssscsscccccssscssscsssssssssssssscssssscsssscsscsscccsscccccccccccsscssssscccccccccsssscssscsscssscssssscsssssssssssscssssssscsscsscsssccsscccsssccssscsscscsssssssccssssscccccs" />
      <rect
         style="fill:#ffffff;fill-opacity:1"
         id="rect122"
         width="0"
         height="9.4620304"
         x="-17.638618"
         y="12.059672"
         inkscape:export-xdpi="107.44238"
         inkscape:export-ydpi="107.44238" />
    </g>
    <path
       style="fill:#ffffff;stroke-width:1.25361"
       d="m 157.50234,165.23265 c -0.0608,-7.41033 -0.22688,-7.83505 -3.06416,-7.83505 -3.49973,0 -4.49757,1.99984 -4.58601,9.19119 -0.0637,5.1754 -0.12818,5.09958 -6.75657,-7.93758 -3.92365,-7.7173 -6.17538,-13.4871 -5.44282,-13.94658 0.68721,-0.43104 0.84841,-2.04736 0.35821,-3.59185 -0.80871,-2.54803 -1.51221,-2.75666 -7.59472,-2.25225 l -6.70345,0.5559 -7.23726,-7.31358 c -6.32686,-6.39357 -7.19099,-7.85062 -6.86944,-11.5829 l 0.36782,-4.26934 -7.4144,0.67232 -7.414398,0.67231 -5.908234,-7.67819 c -4.994743,-6.49105 -5.525109,-7.67819 -3.430278,-7.67819 4.402831,0 6.443839,-1.4537 6.443839,-4.589598 0,-3.036004 -0.106271,-3.063799 -10.271746,-2.686497 L 71.706977,95.344012 65.068662,84.688345 C 53.466137,66.064252 29.62784,17.445838 25.269315,3.517237 24.388981,0.70394193 24.424303,0.69661935 38.875077,0.69661935 h 14.488387 l 5.51687,10.96906865 c 12.758374,25.367187 35.88697,63.924997 53.201646,88.692752 l 9.64011,13.78969 h 32.50275 32.50276 L 199.14298,95.970816 C 213.57896,74.835119 230.45603,46.881434 245.12263,19.814139 L 255.48159,0.69661935 h 14.41957 c 12.56575,0 14.3228,0.25211132 13.66704,1.96101085 -8.69218,22.6514448 -25.99002,57.9233348 -38.97801,79.4797478 l -8.51215,14.127758 -9.95256,-0.868173 -9.95255,-0.868173 0.40576,3.541631 c 0.32172,2.808099 1.11978,3.623789 3.85318,3.938299 1.89608,0.21817 3.44742,0.66547 3.44742,0.99399 0,0.32853 -2.3753,3.74338 -5.27843,7.58856 l -5.27842,6.99123 -7.25765,-0.6581 c -7.64745,-0.69345 -7.94929,-0.45869 -7.32171,5.69446 0.1236,1.21148 -2.90076,5.47937 -6.72073,9.48421 l -6.94539,7.2815 -7.74212,-0.56001 -7.74211,-0.56001 0.68108,4.23869 c 0.55116,3.4302 -0.59577,6.74937 -6.01307,17.40158 l -6.69414,13.16288 -0.0643,-7.83505 z"
       id="path60"
       transform="matrix(0.26458333,0,0,0.26458333,83.571714,40.351009)" />
    <path
       style="fill:#ffffff;stroke-width:1.25361"
       d="M 43.021974,87.508963 C 38.482865,78.028554 31.954827,63.220311 28.515224,54.601757 22.423768,39.338493 12.019566,9.1546322 12.019566,6.7458343 c 0,-0.6607253 1.471678,-1.0228174 3.270396,-0.8046491 2.830061,0.3432609 3.904347,1.9226478 7.978799,11.7302208 10.53598,25.361054 29.775196,62.393255 41.305618,79.506255 4.486871,6.659239 3.768516,7.521679 -6.287977,7.549209 l -7.011498,0.0192 z"
       id="path62"
       transform="matrix(0.26458333,0,0,0.26458333,83.571714,40.351009)" />
    <path
       style="fill:#ffffff;stroke-width:1.25361"
       d="m 29.961346,111.32751 c -0.431008,-1.2066 -2.384643,-6.29061 -4.341412,-11.2978 C 20.21113,86.189063 11.498438,57.334379 6.6035447,37.051247 -0.02284525,9.5932529 0.13278127,10.725482 2.9850308,10.725482 c 2.0432433,0 3.6304707,3.455522 9.6166012,20.936114 7.876334,23.000333 18.605133,48.848581 28.267292,68.102679 3.438415,6.851835 6.251662,12.750205 6.251662,13.107475 0,0.35726 -3.684507,0.64958 -8.187795,0.64958 -6.663628,0 -8.333673,-0.40838 -8.971445,-2.19382 z"
       id="path64"
       transform="matrix(0.26458333,0,0,0.26458333,83.571714,40.351009)" />
    <path
       style="fill:#ffffff;stroke-width:0.306275"
       d="m 118.36821,135.0607 c -7.17712,-7.27829 -11.0092,-11.33772 -11.0092,-11.66236 0,-0.16056 0.47461,-0.34734 1.0547,-0.41506 0.92156,-0.10759 1.07886,-0.0248 1.24605,0.65561 0.44182,1.79805 2.12237,3.86698 7.89543,9.72003 4.2612,4.32025 6.34457,6.22235 6.9106,6.30932 0.65918,0.10129 0.6097,0.13307 -0.26523,0.1704 -1.0031,0.0428 -1.39603,-0.2791 -5.83235,-4.77794 z"
       id="path66"
       transform="matrix(0.26458333,0,0,0.26458333,83.571714,40.351009)" />
    <path
       style="fill:#ffffff;stroke-width:0.306275"
       d="m 157.53765,165.53971 c -0.1216,-8.18611 -0.12602,-8.19825 -2.98315,-8.19634 -3.60487,0.002 -4.50287,1.55606 -4.83472,8.36466 -0.18368,3.7685 -0.21302,3.90268 -0.73659,3.36902 -0.29992,-0.30568 -1.87483,-3.10552 -3.49981,-6.22187 -5.82204,-11.16539 -8.48626,-17.61189 -7.52435,-18.20638 0.49474,-0.30577 0.40451,-3.4328 -0.1288,-4.46413 -0.25442,-0.49199 -0.76918,-1.05861 -1.1439,-1.25916 -0.79251,-0.42414 -4.77096,-0.41125 -9.26629,0.03 -1.68452,0.16535 -3.21616,0.3042 -3.40365,0.30855 -0.64947,0.015 -12.49132,-12.67866 -13.40934,-14.37398 -0.87341,-1.61291 -0.88398,-1.69115 -0.70622,-5.22668 l 0.18047,-3.58927 -1.28458,0.13267 c -2.99402,0.30921 -13.538417,1.24915 -13.569596,1.20961 -0.01871,-0.0237 -2.128307,-2.78591 -4.688005,-6.1382 -4.713047,-6.1724 -6.072612,-8.27587 -5.55558,-8.59541 0.156391,-0.0967 1.246967,-0.29661 2.423499,-0.44434 2.522614,-0.31675 3.841702,-1.01034 4.480118,-2.355705 0.498977,-1.051517 0.618939,-3.690149 0.197958,-4.354138 -0.557106,-0.878682 -2.83301,-1.008947 -11.47687,-0.656902 -7.072616,0.288052 -8.615627,0.277608 -8.927226,-0.06042 C 71.028496,94.103443 63.45081,81.741058 60.729604,76.944962 49.614341,57.354432 31.808354,20.756889 26.770073,7.1462243 25.152285,2.7758508 24.992734,2.214712 25.249667,1.7989852 25.71601,1.0444267 29.140234,0.83562539 41.015644,0.83761202 l 12.285777,0.002055 4.814142,9.56904698 c 14.713706,29.24637 35.649072,64.010522 56.807037,94.330726 l 6.57202,9.41797 h 32.72877 32.72877 l 7.51224,-10.99449 c 20.38709,-29.837381 34.09152,-52.472701 54.35083,-89.770077 l 6.73772,-12.40414884 13.11491,0.0125426 c 14.44347,0.013813 15.03381,0.078265 14.65501,1.6000064 -0.35794,1.4380026 -4.9518,12.4181868 -8.41641,20.1168128 -8.46311,18.805681 -18.42955,38.502522 -26.99179,53.344288 -3.47175,6.017933 -11.93176,20.024823 -12.09477,20.024823 -0.16638,0 -17.50454,-1.497864 -18.76724,-1.621327 l -1.02486,-0.100204 0.20365,2.009298 c 0.4495,4.435096 1.05132,5.250176 4.29336,5.814756 3.63164,0.63242 3.57052,0.36408 0.93905,4.12292 -1.68938,2.41314 -7.89204,10.7449 -8.25596,11.08987 -0.0169,0.0161 -1.8225,-0.14701 -4.01237,-0.36236 -6.1385,-0.60366 -9.1186,-0.558 -9.99658,0.15316 -0.66523,0.53883 -0.72388,0.81534 -0.73348,3.45805 l -0.0104,2.87238 -1.42844,2.13148 c -1.66665,2.48691 -3.57787,4.7034 -8.48705,9.84262 l -3.56263,3.72957 -7.64545,-0.55933 c -4.205,-0.30763 -7.7005,-0.50671 -7.76778,-0.4424 -0.0673,0.0643 0.0361,1.07617 0.22971,2.24857 0.93816,5.68079 0.11089,8.11981 -8.30925,24.49789 l -3.84388,7.47675 -0.10263,-6.90915 z"
       id="path68"
       transform="matrix(0.26458333,0,0,0.26458333,83.571714,40.351009)" />
    <path
       style="fill:#ffffff;stroke-width:0.306275"
       d=""
       id="path70"
       transform="matrix(0.26458333,0,0,0.26458333,83.571714,40.351009)" />
    <path
       style="fill:#ffffff;stroke-width:0.306275"
       d="m 143.51925,184.21147 c -14.85661,-22.66625 -16.54493,-25.27742 -18.04828,-27.91363 -1.35452,-2.37522 -1.49474,-2.77383 -1.08197,-3.07566 0.61588,-0.45033 0.91213,-3.6871 0.44702,-4.88392 l -0.34496,-0.88766 -2.9765,0.20151 c -1.63708,0.11082 -4.63039,0.46226 -6.65181,0.78097 -2.95381,0.46572 -3.76549,0.50449 -4.13472,0.19749 -8.60937,-7.15832 -14.439625,-12.14242 -16.383864,-14.00606 l -2.452061,-2.35041 0.842257,-0.32192 c 0.723603,-0.27657 0.842257,-0.49345 0.842257,-1.53953 0,-0.66968 -0.151288,-1.92303 -0.336195,-2.78523 l -0.336196,-1.56762 -2.037438,0.19713 c -1.120591,0.10842 -4.173708,0.46555 -6.784704,0.79363 l -4.747267,0.5965 -8.230398,-8.28971 c -4.526719,-4.55935 -8.147954,-8.37216 -8.047188,-8.47293 0.100766,-0.10076 1.776333,-0.2819 3.723484,-0.40251 3.110467,-0.19268 3.631939,-0.30542 4.295315,-0.92863 0.679954,-0.63879 0.755043,-0.9519 0.755043,-3.14844 v -2.43911 l -2.067358,0.20346 c -5.115387,0.50341 -5.175252,0.50632 -4.268273,0.20755 1.738587,-0.57274 2.162003,-1.63074 1.426657,-3.56484 -0.549739,-1.445928 -0.08626,-1.150568 0.972669,0.61985 l 1.023798,1.71168 2.29851,-0.17429 c 1.264181,-0.0959 2.711982,-0.22841 3.217336,-0.29455 0.884706,-0.11579 1.225125,0.28316 9.167167,10.74336 4.536588,5.97499 8.395656,10.98349 8.575708,11.12999 0.189682,0.15433 1.678822,0.0367 3.540675,-0.27977 l 3.213312,-0.54613 7.187494,7.39213 c 3.95313,4.06567 8.92963,9.16703 11.05889,11.33635 l 3.8714,3.94423 3.66213,-0.49863 c 2.01418,-0.27425 3.83121,-0.49863 4.03786,-0.49863 0.42649,0 18.89876,36.88559 20.70662,41.34716 0.93465,2.3066 1.20928,3.43328 1.32512,5.43638 0.0804,1.38973 0.0255,2.52389 -0.12199,2.52037 -0.14747,-0.004 -3.36026,-4.724 -7.13955,-10.48993 z"
       id="path72"
       transform="matrix(0.26458333,0,0,0.26458333,83.571714,40.351009)" />
    <path
       style="fill:#ffffff;stroke-width:0.306275"
       d="m 147.08698,204.48264 c -1.69611,-1.39807 -5.86928,-6.38722 -26.7495,-31.97979 -7.76631,-9.51904 -8.00319,-9.84506 -7.51105,-10.33721 0.2,-0.19999 0.35181,-1.30713 0.35181,-2.56573 0,-3.43164 -0.38399,-3.58648 -6.73806,-2.7171 -6.05439,0.82837 -5.9521,0.85068 -10.054343,-2.19312 -4.402799,-3.26682 -13.1632,-10.24391 -15.158997,-12.07317 l -1.477006,-1.35375 -0.05437,-2.66956 c -0.0392,-1.9249 -0.182518,-2.78811 -0.513783,-3.09456 -0.392608,-0.3632 -1.319771,-0.32107 -6.376185,0.28972 l -5.916776,0.71471 -7.253063,-5.87068 c -9.196156,-7.44345 -12.217013,-9.95674 -12.481093,-10.38403 -0.335277,-0.54249 0.426726,-0.82306 3.302834,-1.2161 l 2.690885,-0.36773 v -2.90254 -2.90254 l -2.833046,0.21192 -2.833047,0.21191 -0.894516,-2.08971 c -0.491985,-1.14934 -2.394196,-5.10044 -4.227137,-8.78022 -1.83294,-3.679772 -3.29103,-6.80331 -3.240199,-6.941192 0.05083,-0.137881 2.021343,3.540529 4.378916,8.174242 l 4.286496,8.42494 2.298422,-0.19522 c 1.264133,-0.10737 2.849718,-0.26868 3.523524,-0.35847 l 1.225101,-0.16325 11.252891,11.32376 11.25289,11.32375 2.864617,-0.36703 2.864614,-0.36704 9.771964,8.22694 c 11.588247,9.75606 15.301127,12.6273 16.978627,13.12989 0.99132,0.29701 1.75184,0.29067 3.73325,-0.0311 2.4786,-0.40252 2.49066,-0.40123 3.08589,0.33002 1.573,1.93242 5.55494,7.80236 14.02878,20.68036 14.21848,21.60836 18.82779,28.98563 18.47093,29.56304 -0.2919,0.47231 -0.88871,0.2731 -2.05027,-0.68436 z"
       id="path74"
       transform="matrix(0.26458333,0,0,0.26458333,83.571714,40.351009)" />
    <path
       style="fill:#ffffff;stroke-width:0.0294716"
       d="m 71.28397,109.29409 c -6.61e-4,-0.0119 0.03833,-0.0859 0.08664,-0.1644 0.198875,-0.32322 0.329429,-0.83197 0.382542,-1.49073 0.01685,-0.20902 0.03064,-1.1087 0.03064,-1.99929 v -1.61925 l -0.110519,0.018 c -0.44079,0.0719 -3.219847,0.44052 -3.779731,0.50138 -1.467471,0.15949 -3.963642,0.37262 -6.557428,0.55988 -1.814703,0.13102 -10.147978,0.6503 -10.163911,0.63336 -0.01819,-0.0194 -6.354913,-12.698017 -6.354913,-12.715075 0,-0.0081 0.183617,-0.01476 0.408038,-0.01476 h 0.408038 l 2.811733,5.878513 2.811733,5.878512 1.724087,-6.7e-4 c 2.931341,-10e-4 8.175746,-0.0512 8.826741,-0.0843 2.838725,-0.14416 4.254911,-0.44858 4.910508,-1.05555 0.09534,-0.0883 0.17334,-0.14781 0.17334,-0.13232 0,0.0478 -0.333281,0.34901 -0.514017,0.46463 -0.235747,0.1508 -0.476257,0.25978 -0.933808,0.4231 -0.844303,0.30137 -0.664656,0.29506 3.67293,-0.12889 1.248122,-0.12199 2.365463,-0.23013 2.482981,-0.24031 l 0.213669,-0.0185 -5.9e-5,1.73578 c -8.8e-5,2.28063 -0.03574,2.73266 -0.250786,3.17989 -0.08872,0.18452 -0.275357,0.44657 -0.278433,0.39094 z"
       id="path76"
       transform="matrix(0.26458333,0,0,0.26458333,83.571714,40.351009)" />
    <path
       style="fill:#ffffff;stroke-width:0.0294716"
       d="m 57.334045,113.8494 -2.505085,-2.51497 -0.294716,0.0431 c -0.392452,0.0574 -1.377266,0.18121 -1.871446,0.23523 -1.088087,0.11892 -4.553446,0.4297 -4.774397,0.42817 l -0.10315,-7.2e-4 -1.724088,-3.39431 c -4.236828,-8.34128 -5.774087,-11.29622 -6.619975,-12.725011 -0.249758,-0.421868 -0.29748,-0.489738 -0.325001,-0.462216 -0.09539,0.09539 1.040926,2.534158 3.497317,7.505927 2.534754,5.13037 3.381596,6.9106 4.289942,9.0183 l 0.565204,1.31149 0.128829,-0.008 c 0.392593,-0.0244 5.306547,-0.39042 5.411611,-0.40309 0.09713,-0.0117 0.125254,-0.005 0.125254,0.028 0,0.0237 -0.02984,0.0493 -0.06631,0.0569 -0.06705,0.0139 -5.166932,0.4482 -9.364597,0.79742 -9.675758,0.80497 -12.043006,0.8679 -13.006367,0.34577 -0.259526,-0.14066 -0.364545,-0.30278 -0.55514,-0.85697 -0.379106,-1.10232 -1.364556,-3.57971 -3.067256,-7.71098 -1.21532,-2.94873 -2.029884,-5.01493 -3.078947,-7.809969 -0.669603,-1.784035 -1.718134,-4.657397 -1.718134,-4.708322 0,-0.013 0.167342,-0.01992 0.37187,-0.01538 l 0.371869,0.0082 0.06813,0.191566 c 1.397564,3.929426 1.625907,4.542136 3.19617,8.576225 1.38704,3.56339 3.097816,8.01832 3.536763,9.20988 0.101511,0.27555 0.230644,0.59302 0.286964,0.70547 0.56767,1.13349 1.807178,1.57618 4.914693,1.7553 1.157787,0.0667 3.77296,0.0962 5.498537,0.062 2.908974,-0.0577 4.658037,-0.16544 5.80414,-0.35769 0.592134,-0.0993 0.795409,-0.17861 0.795409,-0.31022 0,-0.35264 -2.104356,-4.78791 -5.732208,-12.08156 -2.069582,-4.160801 -3.787114,-7.671497 -3.787114,-7.740985 0,-0.01362 0.159876,-0.02477 0.35528,-0.02477 h 0.355281 l 0.06864,0.154725 c 0.166303,0.374867 2.293023,4.666151 3.048971,6.152194 2.609581,5.129916 6.448114,12.593956 6.483728,12.607626 0.02281,0.009 1.629322,-0.13454 3.570029,-0.31842 l 3.52856,-0.33434 1.424158,1.44204 c 0.78329,0.79312 1.873344,1.89413 2.422344,2.4467 0.964673,0.97093 0.997863,1.00811 0.988751,1.10763 -0.0093,0.10192 -0.03524,0.0771 -2.514516,-2.41199 z"
       id="path78"
       transform="matrix(0.26458333,0,0,0.26458333,83.571714,40.351009)" />
    <path
       style="fill:#ffffff;stroke-width:0.0294716"
       d="m 62.578342,133.2056 c -5.915894,-4.7588 -7.084455,-5.7007 -8.458345,-6.81772 -4.393572,-3.57213 -7.575126,-6.26154 -7.574381,-6.40273 3.64e-4,-0.069 0.148258,-0.20809 0.315488,-0.29681 0.375084,-0.19899 1.209394,-0.43645 2.042422,-0.58132 0.33781,-0.0588 4.12783,-0.5756 4.220794,-0.5756 0.01271,0 0.02311,0.025 0.02311,0.0557 0,0.0692 0.150404,0.0434 -1.812502,0.31174 -1.799248,0.246 -2.325186,0.3279 -2.923901,0.45531 -1.181504,0.25145 -1.517725,0.49815 -1.251346,0.91819 0.244307,0.38523 2.59203,2.35908 8.905436,7.48724 3.04798,2.47577 10.732273,8.69296 10.784904,8.72583 0.03823,0.0239 0.914444,-0.0722 3.511338,-0.38517 5.46772,-0.65888 6.413893,-0.76258 7.159074,-0.78462 l 0.427338,-0.0126 -0.338924,0.0425 c -0.186407,0.0234 -0.856149,0.10318 -1.488315,0.17729 -0.632165,0.0741 -2.949771,0.3595 -5.150234,0.63419 -2.200463,0.2747 -4.024018,0.49913 -4.052343,0.49873 -0.02833,-3.9e-4 -1.981153,-1.55295 -4.339617,-3.45012 z"
       id="path80"
       transform="matrix(0.26458333,0,0,0.26458333,83.571714,40.351009)" />
    <path
       style="fill:#ffffff;stroke-width:0.0294716"
       d="m 100.23938,157.46629 c -0.14733,-0.0144 -0.319787,-0.0441 -0.383243,-0.0659 -0.232418,-0.0801 -5.323312,-3.87319 -8.706112,-6.48674 -4.17598,-3.22636 -7.885626,-6.24456 -9.946661,-8.0927 -0.927919,-0.83208 -1.764303,-1.69832 -1.845194,-1.91108 -0.02247,-0.0591 -0.01133,-0.0892 0.06544,-0.17659 0.111382,-0.12686 0.166219,-0.24866 0.235138,-0.52226 l 0.05197,-0.2063 0.0022,0.41552 c 0.0012,0.22854 0.01081,0.51771 0.02137,0.64261 l 0.0192,0.22709 0.798641,0.73121 c 1.185976,1.08583 1.721125,1.54651 3.362668,2.89473 4.722731,3.87883 12.144813,9.65011 14.367399,11.17183 1.044173,0.71491 1.782304,1.05596 2.610284,1.20608 0.29545,0.0536 0.4646,0.0639 1.05893,0.0647 0.93152,0.001 1.60454,-0.0661 4.1997,-0.42015 2.62693,-0.35836 3.43188,-0.44383 4.37959,-0.46502 0.76785,-0.0172 1.07266,-2.1e-4 1.07266,0.0598 -10e-6,0.0255 -0.17706,0.0354 -0.67048,0.0373 -0.91483,0.004 -1.54136,0.0662 -4.23654,0.42396 -1.74686,0.23185 -2.73784,0.33714 -4.02287,0.42743 -0.79234,0.0557 -2.07983,0.0793 -2.43404,0.0446 z"
       id="path82"
       transform="matrix(0.26458333,0,0,0.26458333,83.571714,40.351009)" />
    <path
       style="fill:#ffffff;stroke-width:0.0294716"
       d="m 79.526853,136.68911 c -0.0505,-0.27088 -0.232389,-0.81724 -0.34142,-1.02556 -0.06192,-0.1183 -0.09739,-0.2101 -0.07883,-0.20399 0.06379,0.021 0.220445,0.2553 0.28449,0.4255 0.07865,0.20903 0.182516,0.72786 0.169812,0.84826 -0.0082,0.0782 -0.01219,0.073 -0.03405,-0.0442 z"
       id="path84"
       transform="matrix(0.26458333,0,0,0.26458333,83.571714,40.351009)" />
    <path
       style="fill:#ffffff;stroke-width:0.0294716"
       d="m 104.6038,151.16379 c -0.0973,-0.0776 -0.57469,-0.45744 -1.06097,-0.84412 -1.71252,-1.36178 -3.864583,-3.12671 -6.734261,-5.52286 -1.775928,-1.48288 -3.244503,-2.717 -9.498462,-7.98203 -2.760345,-2.32386 -4.255331,-3.56385 -4.288115,-3.55671 -0.02768,0.006 -1.315003,0.17226 -2.860711,0.36942 l -2.810378,0.35846 -1.126969,-1.1314 c -0.619832,-0.62227 -3.312913,-3.33293 -5.984623,-6.02368 -2.67171,-2.69076 -5.249828,-5.28684 -5.72915,-5.76907 -0.818546,-0.82351 -0.865779,-0.87677 -0.777431,-0.87677 0.08609,0 0.666674,0.57963 6.849142,6.83789 6.53429,6.61439 6.758061,6.83735 6.846312,6.82162 0.05018,-0.009 1.357082,-0.17462 2.904231,-0.36816 2.358383,-0.29504 2.820393,-0.3456 2.858744,-0.31287 0.02516,0.0215 2.59209,2.17913 5.704289,4.79481 3.1122,2.61569 7.031184,5.91047 8.708854,7.32174 4.092318,3.44249 5.875588,4.9276 6.933188,5.77397 0.15804,0.12647 0.28735,0.23514 0.28735,0.24147 0,0.0324 -0.0607,-0.004 -0.22104,-0.13171 z"
       id="path86"
       transform="matrix(0.26458333,0,0,0.26458333,83.571714,40.351009)" />
    <path
       style="fill:#ffffff;stroke-width:0.0294716"
       d="m 61.722308,118.26248 c -1.090799,-1.09467 -1.922812,-1.9519 -1.905235,-1.96297 0.01716,-0.0108 0.03605,-0.0428 0.04198,-0.0711 0.0076,-0.0363 0.49959,0.44336 1.677489,1.63567 2.333131,2.36166 2.284946,2.31057 2.195334,2.3277 -0.06406,0.0122 -0.313415,-0.22715 -2.009571,-1.92933 z"
       id="path88"
       transform="matrix(0.26458333,0,0,0.26458333,83.571714,40.351009)" />
    <path
       style="fill:#ffffff;stroke-width:0.0294716"
       d="m 93.531157,130.47042 c -0.09991,-1.14996 -0.451349,-3.14828 -0.686765,-3.90498 -0.07277,-0.23391 -0.106923,-0.25051 -0.51544,-0.25051 -0.725536,0 -2.467383,0.15052 -4.800035,0.41478 -0.819981,0.0929 -8.259252,1.02079 -8.347107,1.04113 -0.09205,0.0213 -11.022788,-10.99635 -13.485118,-13.59236 -1.693625,-1.78556 -2.864965,-3.11521 -2.864965,-3.25216 0,-0.16814 0.556568,-0.33835 1.429372,-0.43713 0.36882,-0.0417 1.552003,-0.0836 2.740858,-0.0971 0.551118,-0.006 0.962247,-0.007 0.913619,-0.002 -0.04863,0.005 -0.592379,0.043 -1.208335,0.084 -2.238778,0.14913 -3.62501,0.30674 -3.6609,0.41625 -0.03159,0.0964 1.064051,1.30041 3.307241,3.63445 2.071983,2.15589 4.100133,4.21187 10.747581,10.89504 l 2.231821,2.24382 3.00015,-0.37692 c 3.161514,-0.39718 5.625967,-0.69533 7.170379,-0.86746 1.262576,-0.14072 3.365275,-0.34461 3.381951,-0.32794 0.02449,0.0245 0.386499,1.76057 0.461401,2.21274 0.09458,0.57099 0.155374,1.09212 0.195965,1.67988 0.03811,0.55183 0.02856,0.94943 -0.01167,0.48628 z"
       id="path91"
       transform="matrix(0.26458333,0,0,0.26458333,83.571714,40.351009)" />
    <path
       style="fill:#ffffff;stroke-width:0.0294716"
       d="m 92.121743,124.45099 c -0.107365,-0.11288 -0.30224,-0.35742 -1.1332,-1.42201 -1.542399,-1.97604 -3.833441,-4.96991 -8.705448,-11.37603 -2.159839,-2.83994 -2.913815,-3.82489 -3.85783,-5.03964 -2.039993,-2.62506 -2.97611,-3.67856 -3.451244,-3.88401 -0.20072,-0.0868 -0.327463,-0.092 -0.854676,-0.0348 -0.830392,0.09 -1.710386,0.16655 -3.359761,0.29208 -0.850992,0.0648 -1.609927,0.12413 -1.686522,0.13193 l -0.139264,0.0142 -0.64023,-1.06687 c -1.095558,-1.82562 -1.488973,-2.352023 -1.601157,-2.142406 -0.04183,0.07816 0.0083,0.304766 0.16606,0.751346 0.286627,0.81118 0.397124,1.30413 0.389767,1.73883 l -0.004,0.23577 -0.02316,-0.26125 c -0.05016,-0.566 -0.205972,-1.05397 -0.585921,-1.83502 -0.444966,-0.9147 -0.904024,-1.669064 -2.212611,-3.635953 -1.851586,-2.783049 -3.52378,-5.430083 -5.436428,-8.605703 -0.7446,-1.23628 -1.842421,-3.088933 -1.842421,-3.10922 0,-0.0081 0.156947,-0.01477 0.348772,-0.01477 h 0.348772 l 0.598719,0.994666 c 2.62606,4.362733 3.860631,6.326349 8.097386,12.879083 2.302858,3.561697 2.52673,3.897547 2.59751,3.896727 0.0426,-5e-4 1.463357,-0.11167 3.157237,-0.24706 1.693879,-0.1354 3.089129,-0.24068 3.100556,-0.23396 0.01143,0.007 0.251015,0.31351 0.53242,0.68176 0.281404,0.36826 3.99103,5.22513 8.243612,10.79305 4.252583,5.56792 7.817033,10.23291 7.921003,10.36664 0.196747,0.25305 0.213825,0.32373 0.03204,0.13262 z"
       id="path93"
       transform="matrix(0.26458333,0,0,0.26458333,83.571714,40.351009)" />
    <path
       style="fill:#ffffff;stroke-width:0.0294716"
       d="m 5.7358984,36.739471 c 0,-0.0087 -0.1401192,-0.595534 -0.3113756,-1.304118 C 2.5995347,23.74681 0.01914831,12.100874 0.01848673,11.036547 0.01842457,10.936558 0.03465275,10.900245 0.10636556,10.839903 0.2217743,10.742793 0.46261722,10.653931 0.84361493,10.567885 1.5903523,10.399241 2.4379276,10.349988 4.6062073,10.349242 l 1.5374876,-5.3e-4 0.060074,0.184198 c 0.033041,0.101308 0.7379179,2.332676 1.5663934,4.958594 1.8442612,5.845531 2.1908747,6.933197 2.9913227,9.386701 1.098642,3.367518 2.890348,8.62226 3.872829,11.358297 0.09836,0.27391 0.178833,0.503265 0.178833,0.509676 0,0.0064 -0.09486,0.0078 -0.210803,0.003 l -0.210802,-0.0087 -0.03711,-0.10315 C 14.111152,35.961155 13.149601,33.198878 12.425725,31.096709 10.616136,25.841586 9.6023077,22.967313 8.6885889,20.501674 6.4029279,14.333896 5.0904061,11.724019 3.904427,10.988636 3.53411,10.759016 3.3923511,10.725298 2.7297965,10.709243 2.0801896,10.693502 1.823657,10.7219 1.5921183,10.835181 c -0.1949008,0.09536 -0.3169884,0.255809 -0.4035019,0.530301 -0.059203,0.18784 -0.064816,0.264321 -0.062732,0.854676 0.00326,0.924319 0.1284922,1.811415 0.5574929,3.949193 0.5396712,2.689264 1.280793,5.870658 3.7746277,16.203244 0.5742851,2.379407 1.0441544,4.338899 1.0441544,4.354427 0,0.01655 -0.1585692,0.02823 -0.3831306,0.02823 -0.2107219,0 -0.3831306,-0.0071 -0.3831306,-0.01578 z"
       id="path95"
       transform="matrix(0.26458333,0,0,0.26458333,83.571714,40.351009)" />
    <path
       style="fill:#ffffff;stroke-width:0.0294716"
       d="M 20.910483,36.674207 C 20.83995,36.491542 20.110715,34.439769 19.656138,33.144985 16.245444,23.430219 12.551258,11.804482 11.335449,6.9594798 11.062986,5.8737139 11.023831,5.6022211 11.114432,5.4270172 c 0.19245,-0.3721576 1.066901,-0.5308737 2.696681,-0.4894579 1.053769,0.026778 5.009607,0.2406989 5.038527,0.2724694 0.0127,0.01395 0.530221,1.2985358 1.150051,2.8546356 1.384553,3.4759547 2.177913,5.4431597 2.977363,7.3826327 2.605793,6.321668 5.588518,13.129729 8.605843,19.642813 0.375467,0.810468 0.70156,1.516681 0.724652,1.569362 l 0.04198,0.09578 H 32.073555 31.797578 L 31.612433,36.364756 C 28.993718,30.841502 25.794347,23.661804 23.370268,17.868543 22.972439,16.917778 22.483594,15.755275 22.283945,15.285203 20.199871,10.37825 19.018827,8.1864586 17.86378,7.0822267 17.158533,6.4080061 16.498707,6.1033097 15.386846,5.9384208 c -0.504531,-0.074822 -1.744779,-0.075783 -2.120957,-0.00164 -0.594033,0.1170757 -1.008811,0.3035622 -1.165922,0.5242055 -0.09947,0.1396962 -0.108135,0.379112 -0.02879,0.7957063 0.47567,2.4974368 3.614816,12.1796954 7.820096,24.1200004 0.503596,1.429891 1.833754,5.171839 1.898833,5.341725 0.01089,0.02844 -0.08425,0.03684 -0.417108,0.03684 h -0.431221 z"
       id="path97"
       transform="matrix(0.26458333,0,0,0.26458333,83.571714,40.351009)" />
    <path
       style="fill:#ffffff;stroke-width:0.0294716"
       d="M 12.141648,61.097938 C 12.085521,60.913598 11.29037,58.074511 10.934472,56.787719 9.3573635,51.085478 7.9075774,45.54044 6.4652607,39.694198 c -0.551064,-2.233665 -0.7073286,-2.877279 -0.70706,-2.912197 8.56e-5,-0.01112 0.1702664,-0.02054 0.3781796,-0.02093 l 0.3780241,-7.05e-4 0.1407112,0.575401 c 1.4454682,5.910857 2.8072257,11.115431 4.6037294,17.595243 0.385919,1.39197 1.665761,5.935126 1.737272,6.166929 0.01465,0.04748 -0.01802,0.05158 -0.411427,0.05158 -0.381359,0 -0.429028,-0.0056 -0.443042,-0.05158 z"
       id="path99"
       transform="matrix(0.26458333,0,0,0.26458333,83.571714,40.351009)" />
    <path
       style="fill:#ffffff;stroke-width:0.0294716"
       d="m 23.636288,61.126069 c -0.02419,-0.03914 -1.505411,-3.756656 -2.110227,-5.296177 -1.946402,-4.954447 -3.84401,-9.973281 -5.62171,-14.868415 -0.742567,-2.044759 -1.509487,-4.196434 -1.499345,-4.206575 0.005,-0.005 0.10254,-3.88e-4 0.216776,0.01023 l 0.207703,0.0193 0.168045,0.474952 c 2.320559,6.558689 5.983768,16.156612 8.779511,23.003074 0.187992,0.46037 0.341803,0.848289 0.341803,0.862044 0,0.03168 -0.463019,0.03318 -0.482556,0.0016 z"
       id="path101"
       transform="matrix(0.26458333,0,0,0.26458333,83.571714,40.351009)" />
    <path
       style="fill:#ffffff;stroke-width:0.0294716"
       d="M 36.901719,91.571281 C 32.70871,82.706541 28.484025,73.055875 24.38935,62.988637 c -0.744384,-1.830157 -0.728092,-1.789544 -0.728092,-1.81501 0,-0.012 0.107949,-0.01966 0.239887,-0.01702 l 0.239887,0.0048 0.484172,1.178863 c 4.26246,10.378249 8.861115,20.706599 13.35698,29.999111 0.1639,0.338764 0.294455,0.619021 0.290123,0.622791 -0.0043,0.0038 -0.16131,0.01621 -0.348837,0.02764 l -0.340958,0.02079 z"
       id="path103"
       transform="matrix(0.26458333,0,0,0.26458333,83.571714,40.351009)" />
    <path
       style="fill:#ffffff;stroke-width:0.0294716"
       d="m 21.956049,92.143402 c -2.850504,-8.048426 -5.772992,-17.168208 -8.606155,-26.855981 -0.33287,-1.138223 -1.182555,-4.090697 -1.182555,-4.109128 0,-0.0093 0.191136,-0.01689 0.424747,-0.01689 h 0.424747 l 0.21217,0.736789 c 2.76803,9.612385 5.922905,19.764186 8.513185,27.393841 0.558556,1.645224 1.197837,3.507121 1.257976,3.663839 0.01722,0.04487 -0.01694,0.04958 -0.359891,0.04958 h -0.378916 z"
       id="path105"
       transform="matrix(0.26458333,0,0,0.26458333,83.571714,40.351009)" />
    <path
       style="fill:#ffffff;stroke-width:0.0294716"
       d="m 29.386879,58.790578 c -2.76703,-6.7846 -5.387406,-13.588433 -7.90707,-20.530789 -0.290563,-0.800581 -0.524627,-1.458655 -0.520143,-1.462387 0.0045,-0.0037 0.195024,-0.01596 0.42342,-0.02718 l 0.415267,-0.02039 0.04737,0.127088 c 0.02605,0.0699 0.398177,1.095229 0.826946,2.278513 3.001486,8.283267 5.375135,14.463308 7.605881,19.802702 0.155252,0.371603 0.282277,0.686581 0.282277,0.69995 0,0.01337 -0.182356,0.02417 -0.405234,0.02401 l -0.405235,-2.97e-4 -0.363474,-0.891219 z"
       id="path107"
       transform="matrix(0.26458333,0,0,0.26458333,83.571714,40.351009)" />
    <path
       style="fill:#ffffff;stroke-width:0.0294716"
       d="M 42.8099,59.055395 C 42.633596,58.711344 42.090998,57.654008 41.604126,56.70576 40.482897,54.522014 37.313247,48.197209 36.23539,45.992838 34.476799,42.396272 31.8281,36.871936 31.8281,36.800647 c 0,-0.0097 0.122676,-0.01724 0.272612,-0.01671 l 0.272612,9.73e-4 0.336868,0.728449 c 2.623505,5.67312 7.383308,15.326539 10.571107,21.439396 0.200699,0.384857 0.364907,0.706466 0.364907,0.714686 0,0.0082 -0.116044,0.01462 -0.257876,0.01422 L 43.130454,59.680945 42.8099,59.055397 Z"
       id="path109"
       transform="matrix(0.26458333,0,0,0.26458333,83.571714,40.351009)" />
    <path
       style="fill:#ffffff;stroke-width:0.0294716"
       d="M 49.224232,58.082988 C 43.158857,46.432092 37.426296,34.424263 32.337234,22.710284 c -0.733197,-1.687669 -1.751879,-4.0602 -1.768808,-4.119591 -0.01386,-0.04863 0.01163,-0.0519 0.344874,-0.04421 l 0.359843,0.0083 0.832263,1.85671 c 5.100335,11.378425 12.442217,26.517786 18.661891,38.481838 0.21679,0.417014 0.394164,0.765147 0.394164,0.773629 0,0.0085 -0.248666,0.01517 -0.552592,0.01485 l -0.552592,-5.6e-4 -0.832045,-1.598264 z"
       id="path111"
       transform="matrix(0.26458333,0,0,0.26458333,83.571714,40.351009)" />
    <path
       style="fill:#ffffff;stroke-width:0.0294716"
       d="M 63.535028,20.607306 C 61.138791,16.095881 60.170475,14.199668 54.49347,2.9015747 l -1.114003,-2.21702889 -9.976132,-8.12e-5 C 33.844252,0.68438681 30.620064,0.704087 29.109615,0.77180107 26.768582,0.8767506 25.670853,1.079426 25.226866,1.4886793 c -0.193117,0.1780086 -0.251473,0.3120689 -0.266714,0.6127181 -0.0163,0.3215598 0.03319,0.5703512 0.259434,1.3043016 0.901257,2.9236831 2.751432,7.597405 5.443153,13.749924 0.316086,0.722485 0.581431,1.330187 0.589655,1.350449 0.01149,0.02831 -0.06939,0.03671 -0.349226,0.0363 l -0.364181,-5.41e-4 -0.380866,-0.90571 C 27.73412,11.871783 25.724357,6.8882436 24.408819,3.3797799 23.82815,1.8311681 23.480542,0.82120724 23.480542,0.68270507 c 0,-0.2504293 2.016554,-0.43891372 5.982733,-0.55919752 C 32.428131,0.03359122 36.359439,0.012882 47.710216,0.02738692 l 5.765724,0.0073679 2.468911,4.84070818 c 3.849443,7.547475 5.570834,10.85702 7.872256,15.135194 l 0.306015,0.568863 -0.008,0.552441 -0.008,0.552442 z"
       id="path113"
       transform="matrix(0.26458333,0,0,0.26458333,83.571714,40.351009)" />
    <path
       style="fill:#ffffff;stroke-width:0.0800037"
       d="M 51.237905,104.54855 C 51.129224,104.34237 43.251816,87.879861 42.365998,86.007695 37.771543,76.297373 31.75164,62.577006 28.458598,54.310406 27.824105,52.717624 27.304974,51.376563 27.304974,51.33027 c 0,-0.05811 1.777062,-0.08403 5.740264,-0.08371 l 5.740263,4.56e-4 1.537376,3.059685 c 8.140313,16.200841 17.620239,33.025632 23.960361,42.524389 2.135591,3.19953 2.863565,4.62775 2.863565,5.61802 0,1.08512 -0.838782,1.64854 -2.912648,1.95648 -1.374924,0.20416 -3.663463,0.28072 -8.425058,0.28188 -4.202423,10e-4 -4.502232,-0.008 -4.571192,-0.13892 z"
       id="path115"
       transform="matrix(0.26458333,0,0,0.26458333,83.571714,40.351009)" />
    <path
       style="fill:#ffffff;stroke-width:0.0800037"
       d="M 69.509706,93.078314 C 64.759602,85.5765 62.98296,82.680667 60.06985,77.691848 57.201785,72.780169 53.84686,66.753799 51.04825,61.48657 l -0.913921,-1.720079 0.436909,-0.02432 c 0.2403,-0.01338 0.480282,-0.0077 0.533295,0.01266 0.05301,0.02034 0.647255,1.093337 1.320541,2.384431 3.735027,7.162302 8.055724,14.999631 10.861234,19.701235 0.687321,1.151844 7.913798,12.834381 8.374068,13.537766 0.0036,0.0056 2.688757,-0.09284 5.966908,-0.218705 7.488639,-0.287523 11.389446,-0.363842 12.360567,-0.241834 0.806839,0.101369 1.458255,0.267385 1.200055,0.30584 -0.323861,0.04823 -5.732416,0.505005 -7.360338,0.621606 -3.586924,0.256917 -4.527882,0.295017 -8.361612,0.338574 l -3.961411,0.04501 z"
       id="path117"
       transform="matrix(0.26458333,0,0,0.26458333,83.571714,40.351009)" />
    <path
       style="fill:#ffffff;stroke-width:0.0165419"
       d="m 69.03164,30.7318 c -1.812171,-3.271815 -3.187637,-5.791321 -4.587758,-8.403619 l -0.326014,-0.608264 0.0025,-0.442145 c 0.0013,-0.243179 0.0074,-0.493682 0.0134,-0.556672 l 0.01095,-0.114529 0.105848,0.197238 c 1.475153,2.748815 3.529525,6.504126 5.290918,9.671592 l 0.51283,0.922209 h -0.326923 -0.326924 z"
       id="path119"
       transform="matrix(0.26458333,0,0,0.26458333,83.571714,40.351009)" />
    <path
       style="fill:#ffffff;stroke-width:0.0165419"
       d="m 75.311591,41.828596 c -1.165934,-2.021354 -3.057137,-5.343934 -4.295859,-7.547226 -0.60445,-1.075125 -1.533698,-2.737849 -1.574118,-2.816605 l -0.02777,-0.05411 0.326382,0.0045 0.326382,0.0045 0.337233,0.603778 c 1.590989,2.848487 3.862798,6.854474 5.519705,9.73315 0.261281,0.453945 0.478928,0.835442 0.483658,0.847771 0.0071,0.01839 -0.04926,0.02242 -0.313316,0.02242 H 75.77197 Z"
       id="path121"
       transform="matrix(0.26458333,0,0,0.26458333,83.571714,40.351009)" />
    <path
       style="fill:#ffffff;stroke-width:0.0165419"
       d="m 80.870368,51.345951 c -0.976944,-1.64199 -3.334011,-5.668346 -4.645785,-7.935961 l -0.444967,-0.769196 0.314784,-0.0083 c 0.266251,-0.007 0.318176,-0.0044 0.33679,0.01654 0.0121,0.01365 0.368454,0.624042 0.791892,1.356434 0.792112,1.370063 1.874511,3.228922 2.66812,4.582097 0.590614,1.007049 1.702123,2.892863 1.733039,2.940316 l 0.02425,0.03722 h -0.323857 -0.323857 z"
       id="path123"
       transform="matrix(0.26458333,0,0,0.26458333,83.571714,40.351009)" />
    <path
       style="fill:#ffffff;stroke-width:0.00390625"
       d="m 83.117263,55.138074 c -0.817951,-1.368371 -1.522831,-2.553123 -2.282305,-3.836067 -0.09194,-0.155311 -0.166313,-0.283234 -0.165273,-0.284274 0.0015,-0.0015 0.206809,0.340946 0.311133,0.518849 l 0.01778,0.03032 0.326797,-10e-4 0.326797,-0.001 0.03116,0.05273 c 0.576987,0.976583 1.526358,2.574071 2.190863,3.686523 l 0.06358,0.106446 -0.328841,-3.9e-5 -0.328841,-3.9e-5 -0.162848,-0.272434 z"
       id="path125"
       transform="matrix(0.26458333,0,0,0.26458333,83.571714,40.351009)" />
    <path
       style="fill:#ffffff;stroke-width:0.0597032"
       d="m 109.43031,119.73644 c -0.16862,-1.08856 -0.47698,-2.6421 -0.5524,-2.78303 -0.0442,-0.0826 -0.11248,-0.0979 -0.3384,-0.0758 -1.5254,0.14884 -3.65374,0.39378 -6.19364,0.71279 -4.762516,0.59817 -4.679406,0.58991 -5.970322,0.59367 l -1.194063,0.003 -0.35822,-0.17911 c -0.414134,-0.20707 -0.15494,0.10652 -2.960797,-3.5822 -1.123991,-1.47765 -3.747876,-4.91175 -5.830854,-7.63134 -2.082979,-2.71959 -3.777792,-4.95415 -3.766253,-4.96569 0.01154,-0.0115 1.001438,-0.0906 2.199774,-0.17576 4.735926,-0.33643 5.851235,-0.52927 6.671054,-1.15344 0.262141,-0.19958 0.538076,-0.786252 0.610535,-1.298075 0.03254,-0.229857 0.06029,-1.143316 0.06168,-2.029908 0.0025,-1.604748 0.003,-1.611316 0.117797,-1.462728 0.203491,0.263451 0.270128,0.690566 0.270128,1.731392 0,1.164299 -0.09597,1.670938 -0.450852,2.379959 -0.54609,1.09105 -1.668746,1.81855 -3.322252,2.15287 -0.675741,0.13662 -1.780876,0.24177 -2.555433,0.24314 -0.6384,0.001 -0.915752,0.068 -1.101423,0.26567 -0.119894,0.12762 -0.133981,0.19212 -0.111083,0.50868 0.04663,0.64471 0.764303,1.86534 2.447769,4.1632 0.60391,0.82431 7.834934,10.26272 7.98745,10.42574 0.02528,0.027 3.367688,-0.25253 7.427565,-0.62124 4.05987,-0.3687 7.39044,-0.65948 7.40126,-0.64617 0.0108,0.0133 -0.0637,0.98976 -0.16562,2.16989 l -0.18528,2.14568 z"
       id="path127"
       transform="matrix(0.26458333,0,0,0.26458333,83.571714,40.351009)" />
    <path
       style="fill:#ffffff;stroke-width:0.0597032"
       d="m 117.19104,107.60058 c -2.50847,-3.58744 -5.08424,-7.27488 -5.72392,-8.194313 -5.92861,-8.521365 -12.973039,-19.310764 -19.957944,-30.56803 -2.227471,-3.589916 -3.25569,-5.267057 -3.25569,-5.310398 0,-0.02177 0.123504,-0.03139 0.274453,-0.02138 l 0.274453,0.0182 1.671903,2.716495 c 7.453216,12.109921 14.748885,23.323048 21.382905,32.864577 2.01251,2.894539 3.15456,4.489649 7.19347,10.047139 l 3.43864,4.73154 31.55074,-0.015 31.55074,-0.015 1.24945,-1.55229 c 1.8785,-2.33383 3.7927,-4.91698 6.22463,-8.39996 l 0.65429,-0.93706 0.0175,0.41512 0.0175,0.41512 -3.51753,5.14894 -3.51753,5.14894 -32.48364,0.015 -32.48365,0.015 z"
       id="path129"
       transform="matrix(0.26458333,0,0,0.26458333,83.571714,40.351009)" />
    <path
       style="fill:#ffffff;stroke-width:0.0597032"
       d="m 87.83327,62.879893 c -1.744645,-2.870002 -4.453169,-7.362777 -4.453169,-7.386712 0,-0.01644 0.127616,-0.02907 0.28359,-0.02805 l 0.28359,0.0018 0.861216,1.445953 c 0.473669,0.795275 1.544771,2.574344 2.380228,3.953488 0.835457,1.379143 1.53087,2.527683 1.545361,2.552311 0.01449,0.02463 -0.102852,0.0441 -0.260765,0.04326 l -0.287114,-0.0015 z"
       id="path131"
       transform="matrix(0.26458333,0,0,0.26458333,83.571714,40.351009)" />
    <path
       style="fill:#ffffff;stroke-width:0.0597032"
       d="m 193.76857,103.31895 -0.0203,-0.38881 1.06734,-1.54317 c 5.21546,-7.540468 12.61986,-18.696628 17.42909,-26.26028 2.44059,-3.838405 6.19497,-9.906439 8.76226,-14.162045 l 1.16002,-1.922892 0.23028,-0.0025 c 0.16046,-0.0018 0.22156,0.02009 0.20155,0.07209 -0.0158,0.04105 -0.7802,1.310485 -1.69868,2.820975 -7.10679,11.687591 -13.85824,22.284466 -19.83677,31.13521 -2.01475,2.982681 -7.15418,10.514712 -7.2253,10.588942 -0.027,0.0282 -0.0583,-0.12363 -0.0695,-0.33749 z"
       id="path133"
       transform="matrix(0.26458333,0,0,0.26458333,83.571714,40.351009)" />
    <path
       style="fill:#ffffff;stroke-width:0.0597032"
       d="m 224.75526,54.755973 c 0,-0.01707 0.29174,-0.520813 0.64831,-1.119434 8.08412,-13.571902 16.77278,-29.238431 27.05397,-48.781021 l 2.53738,-4.82308826 12.32871,0.02730127 c 7.26451,0.01608686 13.0399,0.05409873 14.0601,0.09253922 2.17014,0.0817696 3.44222,0.17083222 3.51767,0.24628403 0.038,0.037982 0.0198,0.16774592 -0.0521,0.37188763 -0.6522,1.85175201 -3.43517,8.78395061 -5.73443,14.28409411 -5.30478,12.689733 -11.28773,25.68456 -17.01595,36.958246 l -1.4096,2.774223 h -0.474 c -0.2607,0 -0.47399,-0.0116 -0.47399,-0.02578 0,-0.01418 0.70309,-1.404516 1.56244,-3.08964 6.78848,-13.311868 13.96855,-28.71678 18.90341,-40.557462 1.55137,-3.7223404 3.30945,-8.1454879 3.44619,-8.6702418 0.27567,-1.0579405 -0.63922,-1.4122168 -4.23985,-1.64181258 -0.89824,-0.0572768 -4.0176,-0.0761598 -12.59108,-0.0762196 l -11.39703,-7.964e-5 -4.38285,8.08978122 c -6.02031,11.1121564 -7.93592,14.6297184 -9.91658,18.2094704 -4.79219,8.661184 -9.6872,17.214038 -14.82041,25.895088 l -1.10254,1.864556 -0.22388,0.0012 c -0.12314,6.43e-4 -0.22389,-0.0128 -0.22389,-0.02986 z"
       id="path135"
       transform="matrix(0.26458333,0,0,0.26458333,83.571714,40.351009)" />
    <path
       style="fill:#ffffff;fill-opacity:1;stroke-width:0.697461"
       d="m 157.06856,166.32701 -0.0106,-8.584 -2.96421,0.21447 -2.96421,0.21447 -0.34873,7.87163 -0.34873,7.87164 -7.14897,-14.32755 c -3.93194,-7.88015 -7.14898,-14.4825 -7.14898,-14.67188 0,-0.18938 0.51186,-0.34433 1.13745,-0.34433 0.92041,0 1.05821,-0.4883 0.72217,-2.55904 -0.50698,-3.12414 -1.47769,-3.8334 -4.64946,-3.39717 -1.34261,0.18466 -4.16909,0.52843 -6.28105,0.76393 l -3.83994,0.42819 -8.0169,-8.2311 c -5.95957,-6.1188 -7.70367,-8.2949 -6.79634,-8.47974 0.85711,-0.17459 1.21738,-0.90839 1.20988,-2.46424 -0.0193,-4.00564 -0.46144,-4.19757 -7.54785,-3.27656 -3.488362,0.45339 -6.640606,0.64008 -7.004981,0.41489 -0.364374,-0.2252 -3.230795,-3.78132 -6.369822,-7.90249 l -5.70732,-7.49305 3.730241,-0.59587 c 4.626476,-0.73904 5.473893,-1.40769 5.473893,-4.319209 V 95.156832 L 81.84223,95.554684 71.490329,95.95253 65.422873,86.037218 C 51.252786,62.880753 39.129965,38.742953 27.947153,11.419156 25.684807,5.8913954 24.01824,1.1835348 24.24367,0.95724323 24.469101,0.73095172 31.031667,0.449659 38.82715,0.33214829 L 53.000757,0.11849252 57.345197,8.3529476 C 76.838927,45.301384 96.854669,78.518869 114.53211,103.2585 l 7.34257,10.27596 32.08974,0.18123 32.08975,0.18123 4.24548,-5.76091 C 207.73928,84.471202 233.67026,41.652482 251.56393,6.9728875 l 3.4873,-6.75872056 14.35607,-0.008547 c 7.89584,-0.004701 14.53769,0.17307456 14.75967,0.39505604 0.52087,0.52086022 -6.42699,17.47808202 -13.55155,33.07451702 -8.13891,17.816926 -17.31486,34.945942 -28.70982,53.593406 l -5.68581,9.304643 -3.83603,-0.394107 c -2.10982,-0.216757 -6.58229,-0.60225 -9.93882,-0.856663 l -6.10278,-0.462556 v 2.45163 c 0,3.033504 0.98757,3.892594 5.12695,4.459974 1.78342,0.24443 3.24258,0.57707 3.24258,0.73917 0,0.16211 -2.58933,3.73884 -5.75405,7.94829 l -5.75406,7.65355 -2.78984,-0.34317 c -11.21212,-1.37921 -10.70021,-1.40435 -11.59956,0.56952 -0.63686,1.39775 -0.63951,2.23933 -0.0114,3.6179 0.9736,2.1368 0.99687,2.10226 -7.68584,11.40726 l -6.01486,6.44593 -6.27844,-0.76339 c -3.45315,-0.41986 -6.78143,-0.57037 -7.39618,-0.33447 -1.35282,0.51913 -1.57253,5.59151 -0.26111,6.02865 0.94484,0.31494 -3.54695,10.38569 -10.21388,22.89982 l -3.87333,7.27043 -0.0106,-8.584 z"
       id="path571"
       transform="matrix(0.26458333,0,0,0.26458333,83.571714,40.351009)" />
  </g>
</svg>
