<?xml version="1.0" encoding="UTF-8" standalone="no"?>
<svg
   xmlns:dc="http://purl.org/dc/elements/1.1/"
   xmlns:cc="http://creativecommons.org/ns#"
   xmlns:rdf="http://www.w3.org/1999/02/22-rdf-syntax-ns#"
   xmlns:svg="http://www.w3.org/2000/svg"
   xmlns="http://www.w3.org/2000/svg"
   xmlns:sodipodi="http://sodipodi.sourceforge.net/DTD/sodipodi-0.dtd"
   xmlns:inkscape="http://www.inkscape.org/namespaces/inkscape"
   width="41.770649mm"
   height="9.052001mm"
   viewBox="0 0 41.770647 9.0520011"
   version="1.1"
   id="svg8"
   inkscape:version="1.0.1 (3bc2e813f5, 2020-09-07, custom)"
   sodipodi:docname="brimboatsLogoNameWhite200Poppins.svg">
  <defs
     id="defs2">
    <rect
       x="141.93739"
       y="56.83353"
       width="29.606705"
       height="5.4951253"
       id="rect1768" />
    <rect
       x="37.731316"
       y="86.923401"
       width="158.10419"
       height="80.179214"
       id="rect12" />
  </defs>
  <sodipodi:namedview
     id="base"
     pagecolor="#6d7b8c"
     bordercolor="#666666"
     borderopacity="1.0"
     inkscape:pageopacity="0"
     inkscape:pageshadow="2"
     inkscape:zoom="3.7521728"
     inkscape:cx="95.691898"
     inkscape:cy="89.468714"
     inkscape:document-units="mm"
     inkscape:current-layer="text1766"
     inkscape:document-rotation="0"
     showgrid="false"
     inkscape:window-width="1920"
     inkscape:window-height="1056"
     inkscape:window-x="1920"
     inkscape:window-y="0"
     inkscape:window-maximized="0" />
  <metadata
     id="metadata5">
    <rdf:RDF>
      <cc:Work
         rdf:about="">
        <dc:format>image/svg+xml</dc:format>
        <dc:type
           rdf:resource="http://purl.org/dc/dcmitype/StillImage" />
        <dc:title></dc:title>
      </cc:Work>
    </rdf:RDF>
  </metadata>
  <g
     inkscape:label="Layer 1"
     inkscape:groupmode="layer"
     id="layer1"
     transform="translate(-83.571774,-40.350768)">
    <g
       aria-label="BRIMBOATS"
       transform="matrix(1.8010043,0,0,1.8010043,38.02646,-106.20058)"
       id="text10"
       style="font-style:normal;font-variant:normal;font-weight:bold;font-stretch:normal;font-size:16.9333px;line-height:1.25;font-family:'Roboto Condensed';-inkscape-font-specification:'Roboto Condensed, Bold';text-align:center;letter-spacing:0px;white-space:pre;shape-inside:url(#rect12);fill:#ffffff;fill-opacity:1" />
    <g
       inkscape:label="Image"
       id="g86"
       transform="matrix(0.18258403,0,0,0.18258403,128.30356,78.323497)"
       style="mix-blend-mode:multiply;fill:#ffffff;fill-opacity:1"
       inkscape:export-xdpi="232"
       inkscape:export-ydpi="232">
      <rect
         style="fill:#ffffff;fill-opacity:1"
         id="rect122"
         width="0"
         height="9.4620304"
         x="-17.638618"
         y="12.059672"
         inkscape:export-xdpi="107.44238"
         inkscape:export-ydpi="107.44238" />
    </g>
    <path
       style="fill:#ffffff;stroke-width:0.306275"
       d=""
       id="path70"
       transform="matrix(0.26458333,0,0,0.26458333,83.571714,40.351009)" />
    <g
       id="g1549"
       transform="translate(2.6458334)" />
    <g
       aria-label="BRIMBOATS"
       transform="translate(-41.440451,-14.169131)"
       id="text1766"
       style="font-weight:bold;font-size:4.23333px;line-height:1.25;font-family:Poppins;-inkscape-font-specification:'Poppins Bold';letter-spacing:0px;white-space:pre;shape-inside:url(#rect1768);fill:#ffffff">
      <path
         id="path1799"
         style="font-weight:bold;font-size:4.23333px;line-height:1.25;font-family:Poppins;-inkscape-font-specification:'Poppins Bold';letter-spacing:0px;white-space:pre;shape-inside:url(#rect1768);fill:#ffffff"
         d="m 165.69914,60.567781 c 0.69427,0 1.08373,-0.414866 1.08373,-0.914399 0,-0.994832 -1.46896,-0.761999 -1.46896,-1.278466 0,-0.186266 0.13123,-0.275166 0.3048,-0.270933 0.19473,0.0042 0.3302,0.118534 0.3429,0.309033 h 0.78316 c -0.0296,-0.567266 -0.46566,-0.888999 -1.11336,-0.888999 -0.6223,0 -1.08373,0.313267 -1.08373,0.876299 -0.008,1.0541 1.47743,0.757766 1.47743,1.308099 0,0.173567 -0.13547,0.2794 -0.34713,0.2794 -0.2032,0 -0.34714,-0.110067 -0.3683,-0.338666 h -0.77047 c 0.0212,0.601133 0.5207,0.918632 1.15993,0.918632 z m -3.73803,-3.001431 v 0.579967 h 0.7874 v 2.391831 h 0.7239 v -2.391831 h 0.7874 V 57.56635 Z m -0.93133,2.971798 h 0.76624 l -1.07527,-2.971798 h -0.8382 l -1.07526,2.971798 h 0.75776 l 0.1778,-0.524933 h 1.10914 z m -0.36406,-1.083732 h -0.73237 l 0.36407,-1.087966 z m -3.58563,1.113365 c 0.84243,0 1.51977,-0.630766 1.51977,-1.523998 0,-0.893233 -0.6731,-1.519766 -1.51977,-1.519766 -0.84243,0 -1.52823,0.626533 -1.52823,1.519766 0,0.893232 0.6858,1.523998 1.52823,1.523998 z m 0,-0.660399 c -0.4826,0 -0.7874,-0.3429 -0.7874,-0.863599 0,-0.529167 0.3048,-0.8636 0.7874,-0.8636 0.47413,0 0.78317,0.334433 0.78317,0.8636 0,0.520699 -0.30904,0.863599 -0.78317,0.863599 z m -2.55692,-0.275167 c 0,0.211667 -0.1397,0.321733 -0.381,0.321733 h -0.5334 v -0.656166 h 0.52493 c 0.2413,0 0.38947,0.122767 0.38947,0.334433 z m -0.072,-1.172632 c 0,0.2032 -0.13123,0.309033 -0.3683,0.309033 h -0.47413 v -0.622299 h 0.47413 c 0.23707,0 0.3683,0.110066 0.3683,0.313266 z m 0.80433,1.269999 c 0,-0.338666 -0.22437,-0.643466 -0.5715,-0.715433 0.28787,-0.08467 0.50377,-0.3175 0.50377,-0.677333 0,-0.469899 -0.35983,-0.770466 -0.9652,-0.770466 h -1.33773 v 2.971798 h 1.3843 c 0.62653,0 0.98636,-0.3175 0.98636,-0.808566 z m -6.25683,-2.163232 v 2.971798 h 0.7239 v -1.786465 l 0.66887,1.786465 h 0.5842 l 0.66463,-1.782232 v 1.782232 h 0.7239 V 57.56635 h -0.8509 l -0.8255,2.057399 -0.83396,-2.057399 z m -1.24882,0 v 2.971798 h 0.7239 V 57.56635 Z m -1.18956,0.9652 c 0,0.232833 -0.127,0.372533 -0.39793,0.372533 h -0.44874 v -0.7366 h 0.44874 c 0.27093,0 0.39793,0.143933 0.39793,0.364067 z m -0.3556,-0.9652 h -1.21497 v 2.971798 h 0.7239 v -1.121832 h 0.17357 l 0.61807,1.121832 h 0.81703 l -0.6858,-1.176866 c 0.4572,-0.135466 0.6604,-0.486833 0.6604,-0.859366 0,-0.516466 -0.36407,-0.935566 -1.0922,-0.935566 z m -2.36642,2.065865 c 0,0.211667 -0.1397,0.321733 -0.381,0.321733 h -0.5334 v -0.656166 h 0.52493 c 0.2413,0 0.38947,0.122767 0.38947,0.334433 z m -0.072,-1.172632 c 0,0.2032 -0.13123,0.309033 -0.3683,0.309033 h -0.47413 v -0.622299 h 0.47413 c 0.23707,0 0.3683,0.110066 0.3683,0.313266 z m 0.80433,1.269999 c 0,-0.338666 -0.22437,-0.643466 -0.5715,-0.715433 0.28787,-0.08467 0.50377,-0.3175 0.50377,-0.677333 0,-0.469899 -0.35984,-0.770466 -0.9652,-0.770466 h -1.33773 v 2.971798 h 1.3843 c 0.62653,0 0.98636,-0.3175 0.98636,-0.808566 z" />
    </g>
    <g
       id="g1595">
      <path
         id="path571"
         style="fill:#ffffff;fill-opacity:1;stroke-width:0.0307012"
         d="m 90.485501,47.672235 -4.67e-4,-0.377847 -0.130455,0.0093 -0.130489,0.0093 -0.01532,0.346493 -0.01532,0.346495 -0.314684,-0.630671 c -0.173079,-0.346863 -0.314685,-0.63748 -0.314685,-0.645818 0,-0.0082 0.02253,-0.01532 0.05005,-0.01532 0.04052,0 0.04651,-0.02163 0.03174,-0.112641 -0.02221,-0.137503 -0.06507,-0.16873 -0.204671,-0.149534 -0.05908,0.0082 -0.18352,0.02343 -0.276482,0.03359 l -0.169032,0.01893 -0.352886,-0.362318 c -0.262311,-0.269329 -0.339092,-0.365109 -0.299149,-0.373242 0.03773,-0.0078 0.05357,-0.03994 0.05329,-0.10847 -7.21e-4,-0.176322 -0.0204,-0.184784 -0.332241,-0.144227 -0.153553,0.02006 -0.292288,0.02816 -0.308343,0.01825 -0.01594,-0.0099 -0.142218,-0.166453 -0.280379,-0.347849 l -0.251228,-0.329829 0.164202,-0.02614 c 0.203652,-0.03253 0.240971,-0.0619 0.240971,-0.190121 v -0.101352 l -0.45567,0.01734 -0.455672,0.01736 -0.267063,-0.436454 c -0.623737,-1.019289 -1.157355,-2.081786 -1.649602,-3.284522 -0.09955,-0.243332 -0.172929,-0.450549 -0.16303,-0.460511 0.0099,-0.01017 0.298797,-0.02217 0.641935,-0.02755 l 0.62389,-0.0093 0.19123,0.362467 c 0.858073,1.62639 1.73913,3.088556 2.517253,4.177542 l 0.323204,0.452331 1.412524,0.0082 1.412527,0.0081 0.186879,-0.253596 c 0.767663,-1.041675 1.909089,-2.926467 2.696733,-4.452997 l 0.153491,-0.297521 0.631925,-3.72e-4 c 0.347559,-2.08e-4 0.639918,0.0078 0.649696,0.01736 0.02279,0.02276 -0.282898,0.769346 -0.596516,1.455874 -0.358258,0.784261 -0.762164,1.538245 -1.263751,2.359072 l -0.25026,0.409555 -0.168851,-0.01736 c -0.09288,-0.0093 -0.289741,-0.02636 -0.437487,-0.03773 l -0.268624,-0.02042 v 0.107924 c 0,0.133549 0.04348,0.171344 0.225667,0.196335 0.07855,0.01082 0.142727,0.02545 0.142727,0.03256 0,0.0073 -0.113958,0.164566 -0.253265,0.349871 l -0.253297,0.336895 -0.122804,-0.01504 c -0.493537,-0.06069 -0.471006,-0.06179 -0.510592,0.02524 -0.02794,0.06153 -0.02816,0.09856 -4.98e-4,0.159256 0.04284,0.09407 0.04387,0.09252 -0.338318,0.502122 l -0.264748,0.283733 -0.276364,-0.03357 c -0.151993,-0.01862 -0.298501,-0.02524 -0.325564,-0.01466 -0.05962,0.02275 -0.06919,0.246121 -0.01144,0.265349 0.04159,0.01376 -0.156132,0.457161 -0.449594,1.008007 l -0.170501,0.320029 -4.65e-4,-0.377851 z m 2.979433,-4.911128 c 0,-7.21e-4 0.01287,-0.02275 0.02847,-0.04926 0.355845,-0.597406 0.738301,-1.287015 1.190858,-2.147238 l 0.111679,-0.212289 0.542684,8.65e-4 c 0.31977,7.12e-4 0.573997,0.0019 0.6189,0.0037 0.09556,0.0032 0.151516,0.0078 0.154854,0.01082 0.0014,0.0012 7.21e-4,0.0076 -0.0014,0.01646 -0.02891,0.08149 -0.151227,0.386655 -0.252432,0.628758 -0.233497,0.558576 -0.496867,1.130584 -0.74901,1.626829 l -0.06207,0.122116 h -0.02097 c -0.01144,0 -0.02095,-5.08e-4 -0.02095,-7.93e-4 0,-6.24e-4 0.03091,-0.06179 0.06878,-0.136007 0.298829,-0.585965 0.614866,-1.264055 0.832088,-1.785258 0.06828,-0.163842 0.14566,-0.358544 0.151688,-0.381641 0.01233,-0.04651 -0.02812,-0.06217 -0.186632,-0.0723 -0.03951,-0.002 -0.176834,-0.0032 -0.554234,-0.0032 l -0.501675,-2e-6 -0.192909,0.356095 c -0.264994,0.489133 -0.349327,0.64397 -0.436508,0.801541 -0.210939,0.381248 -0.426411,0.757729 -0.652366,1.139848 l -0.04856,0.0821 -0.0099,4.7e-5 c -0.0058,3.3e-5 -0.0099,-5.59e-4 -0.0099,-0.001 z m -1.363974,2.137644 -7.21e-4,-0.01713 0.047,-0.06792 c 0.229569,-0.331916 0.555503,-0.82299 0.767194,-1.155926 0.107419,-0.168973 0.272701,-0.436064 0.385698,-0.623386 l 0.05104,-0.08459 0.01018,-1.04e-4 c 0.0073,-8.4e-5 0.0096,7.21e-4 0.0087,0.0028 -6.92e-4,0.0013 -0.03436,0.0577 -0.07475,0.124187 -0.312826,0.514464 -0.610013,0.980918 -0.873175,1.370511 -0.0887,0.131295 -0.314907,0.462831 -0.318044,0.4661 -8.66e-4,9.37e-4 -0.002,-0.0058 -0.003,-0.01504 z m -4.663053,-1.780043 c -0.07682,-0.126347 -0.196032,-0.324093 -0.196032,-0.32515 0,-7.21e-4 0.006,-9.37e-4 0.01234,-8.65e-4 l 0.01262,7.8e-5 0.03792,0.0636 c 0.02095,0.03502 0.06797,0.113329 0.104777,0.17401 0.0368,0.06067 0.06732,0.111258 0.06799,0.112371 6.35e-4,7.21e-4 -0.005,0.0017 -0.01144,0.0017 l -0.01262,-6.5e-5 z m 1.292269,1.96851 c -0.110418,-0.157902 -0.223808,-0.320221 -0.251947,-0.360692 -0.260968,-0.375095 -0.571043,-0.850026 -0.878504,-1.345545 -0.09805,-0.158025 -0.143324,-0.231847 -0.143324,-0.233769 0,-7.21e-4 0.0058,-0.001 0.01234,-7.21e-4 l 0.01196,7.21e-4 0.07359,0.119567 c 0.328077,0.533058 0.649217,1.026636 0.941227,1.446636 0.08859,0.1274 0.138858,0.19762 0.316644,0.442255 l 0.151365,0.208268 1.388801,-6.61e-4 1.388799,-6.59e-4 0.05502,-0.06826 c 0.08263,-0.102713 0.166961,-0.216432 0.273993,-0.369752 l 0.02884,-0.04129 7.21e-4,0.01826 7.21e-4,0.01825 -0.154844,0.226658 -0.154845,0.226655 -1.429861,6.63e-4 -1.429869,6.6e-4 z m -0.341616,0.534198 c -0.0078,-0.04792 -0.02095,-0.116301 -0.02434,-0.122509 -0.0017,-0.0032 -0.0056,-0.0037 -0.01504,-0.003 -0.06709,0.0071 -0.16081,0.01736 -0.272641,0.03139 -0.209648,0.02635 -0.205989,0.02614 -0.262803,0.02614 l -0.05256,1.31e-4 -0.01594,-0.0082 c -0.01826,-0.0093 -0.0073,0.0053 -0.130337,-0.157692 -0.04952,-0.06509 -0.164981,-0.216217 -0.256653,-0.335918 -0.09167,-0.119716 -0.166305,-0.218078 -0.165794,-0.21859 5.07e-4,-5.02e-4 0.04413,-0.0037 0.09683,-0.0078 0.20848,-0.01504 0.257555,-0.02343 0.293642,-0.05076 0.01144,-0.0087 0.02365,-0.03459 0.02704,-0.05709 10e-4,-0.01017 0.002,-0.05037 0.0026,-0.08938 1.1e-4,-0.07061 1.38e-4,-0.07089 0.0058,-0.06434 0.009,0.01144 0.01196,0.03042 0.01196,0.07615 0,0.05129 -0.0037,0.0735 -0.01983,0.104778 -0.02403,0.04801 -0.0734,0.08001 -0.146232,0.09476 -0.02974,0.0062 -0.07841,0.01054 -0.112488,0.01054 -0.02816,4.4e-5 -0.04034,0.0028 -0.04854,0.01172 -0.0056,0.0058 -0.006,0.0087 -0.0053,0.02253 0.0017,0.02848 0.03361,0.08214 0.107753,0.183255 0.02666,0.03627 0.344874,0.451741 0.351588,0.45892 7.93e-4,8.65e-4 0.148245,-0.01109 0.326945,-0.02726 0.178721,-0.01622 0.325313,-0.02906 0.32579,-0.02847 4.76e-4,5.84e-4 -0.0027,0.04352 -0.0078,0.0955 l -0.0082,0.09443 z m -1.158241,-2.843488 c -0.03607,-0.06024 -0.06702,-0.112367 -0.100461,-0.168852 -0.0037,-0.0071 -0.0076,-0.01234 -0.0076,-0.01234 6.3e-5,-6.4e-5 0.009,0.01504 0.01352,0.02275 l 7.21e-4,10e-4 0.01442,-4.6e-5 0.01442,-4.4e-5 10e-4,0.0019 c 0.02545,0.04296 0.06711,0.113299 0.09643,0.162284 l 0.0027,0.0053 h -0.01442 l -0.01465,-2e-6 -0.0076,-0.01195 z m -0.0989,-0.166934 c -0.04305,-0.07229 -0.146745,-0.249515 -0.20449,-0.349322 l -0.01955,-0.03383 0.01376,-3.67e-4 c 0.01172,-3.13e-4 0.01413,-1.94e-4 0.01503,7.21e-4 5.32e-4,5.99e-4 0.01622,0.02755 0.03484,0.05973 0.03491,0.06035 0.08249,0.142122 0.117469,0.201696 0.02614,0.04434 0.07494,0.127338 0.07624,0.129409 l 7.93e-4,0.0012 h -0.01441 -0.01442 z M 86.88673,42.192056 c -0.05135,-0.08894 -0.134567,-0.235231 -0.189103,-0.332212 -0.02667,-0.04726 -0.06751,-0.120495 -0.06932,-0.123979 l -8.65e-4,-0.0019 0.01442,1.97e-4 0.01442,2.02e-4 0.01466,0.02669 c 0.07001,0.125389 0.170023,0.301723 0.242973,0.428437 0.01144,0.02006 0.02095,0.0368 0.02134,0.03727 3.09e-4,7.21e-4 -0.0019,7.21e-4 -0.01376,7.21e-4 h -0.01445 z m -0.276418,-0.488455 c -0.07974,-0.144015 -0.140295,-0.254915 -0.201936,-0.369913 l -0.01442,-0.02666 1.08e-4,-0.01953 c 5.9e-5,-0.01082 3.3e-4,-0.02163 5.93e-4,-0.02455 l 4.81e-4,-0.0056 0.0039,0.0087 c 0.06498,0.120977 0.155353,0.28629 0.232894,0.42572 l 0.02253,0.04062 h -0.01442 -0.01442 z m 0.02095,2.744366 C 86.422196,44.117756 86.343965,43.990285 86.215751,43.770685 86.089494,43.55447 85.941819,43.289218 85.818636,43.057364 l -0.04018,-0.07573 0.01915,-7.21e-4 c 0.01054,-5.92e-4 0.02095,-3.4e-4 0.02344,5.57e-4 0.0018,7.21e-4 0.02847,0.04807 0.05805,0.104957 0.164413,0.31527 0.354597,0.660254 0.478087,0.86721 0.03022,0.05071 0.348353,0.56494 0.368612,0.595902 1.58e-4,2.46e-4 0.11837,-0.0035 0.262655,-0.0096 0.329631,-0.01262 0.501339,-0.01594 0.544085,-0.01053 0.03548,0.0037 0.06419,0.01172 0.0528,0.01352 -0.01442,0.0017 -0.252336,0.02219 -0.32399,0.02726 -0.157903,0.01144 -0.199298,0.01324 -0.368062,0.01504 l -0.174372,0.0017 z m -0.804288,0.504894 c -0.0053,-0.0093 -0.351531,-0.73372 -0.390521,-0.816126 -0.202241,-0.42743 -0.467224,-1.031371 -0.612177,-1.395249 -0.02794,-0.07005 -0.05076,-0.12914 -0.05076,-0.13118 0,-0.002 0.07816,-0.0032 0.252665,-0.0032 l 0.252663,1.6e-5 0.06771,0.134689 c 0.358317,0.713127 0.775603,1.453722 1.054684,1.871837 0.09398,0.140837 0.126045,0.203709 0.126045,0.247295 0,0.04779 -0.03693,0.07252 -0.128206,0.0861 -0.06056,0.009 -0.161263,0.01234 -0.370854,0.01262 -0.184991,4.2e-5 -0.198189,-3.53e-4 -0.201221,-0.0064 z m 0.541294,-3.694919 c -0.10546,-0.198582 -0.148084,-0.28206 -0.39798,-0.779371 l -0.049,-0.09757 -0.43913,-3e-6 c -0.42077,-3e-6 -0.562691,7.21e-4 -0.629181,0.0035 -0.103037,0.004 -0.151363,0.01352 -0.17092,0.03159 -0.0087,0.0081 -0.01106,0.01376 -0.01172,0.02704 -7.14e-4,0.01414 10e-4,0.02524 0.01144,0.05737 0.03972,0.128688 0.121126,0.334423 0.239587,0.605243 0.01376,0.03176 0.02545,0.0586 0.02614,0.05948 5.06e-4,9.37e-4 -0.0028,0.0012 -0.01532,0.0012 l -0.01594,-2.6e-5 -0.01682,-0.03985 c -0.106702,-0.253743 -0.19516,-0.473098 -0.253087,-0.627532 -0.02545,-0.06816 -0.04082,-0.112638 -0.04082,-0.118725 0,-0.01107 0.08876,-0.01915 0.263342,-0.02455 0.130486,-0.0035 0.303552,-0.0053 0.803191,-0.0037 l 0.253804,3.25e-4 0.108677,0.213067 c 0.169455,0.332226 0.245226,0.477906 0.346525,0.666224 l 0.01352,0.02491 -3.54e-4,0.02434 -3.53e-4,0.02434 z m -0.629932,1.649603 c -0.266972,-0.512852 -0.519318,-1.041405 -0.743333,-1.557034 -0.0323,-0.07428 -0.07705,-0.178722 -0.07784,-0.181332 -6.1e-4,-0.0019 5.09e-4,-0.0019 0.01532,-0.0017 l 0.01594,3.67e-4 0.0366,0.08171 c 0.224495,0.500855 0.547679,1.167255 0.821457,1.693893 0.0096,0.01825 0.01735,0.03361 0.01735,0.0341 0,3.72e-4 -0.01082,6.67e-4 -0.02434,6.52e-4 l -0.02434,-2.4e-5 -0.03657,-0.07037 z m -0.28236,0.04277 c -0.0081,-0.01532 -0.03166,-0.06166 -0.05309,-0.10343 -0.04941,-0.09613 -0.18889,-0.374528 -0.236316,-0.471558 -0.07742,-0.158327 -0.193989,-0.401482 -0.193989,-0.404628 0,-4.24e-4 0.0058,-7.21e-4 0.01196,-7.21e-4 l 0.01196,4.2e-5 0.01504,0.03202 c 0.115462,0.249724 0.325,0.674647 0.465319,0.943722 0.0087,0.01682 0.01622,0.03108 0.01622,0.03151 0,3.58e-4 -0.0056,6.49e-4 -0.01144,6.26e-4 l -0.01144,-3.1e-5 -0.01414,-0.02761 z m -0.590852,-0.01172 c -0.121789,-0.298651 -0.237156,-0.598139 -0.348056,-0.903727 -0.01262,-0.03524 -0.02313,-0.06421 -0.02275,-0.06434 1.96e-4,-1.61e-4 0.0085,-7.01e-4 0.0186,-8.65e-4 l 0.01825,-7.21e-4 0.0017,0.006 c 7.93e-4,0.0028 0.01735,0.04821 0.03637,0.100283 0.132137,0.364612 0.236617,0.636644 0.334795,0.871674 0.0073,0.01646 0.01262,0.0302 0.01262,0.03082 0,5.88e-4 -0.0082,7.93e-4 -0.01773,7.93e-4 l -0.01772,-1.5e-5 -0.01594,-0.03921 z m -0.327092,1.468122 c -0.125476,-0.354277 -0.254104,-0.755712 -0.378821,-1.182145 -0.01466,-0.05007 -0.0521,-0.180071 -0.0521,-0.18088 0,-4.09e-4 0.0085,-7.21e-4 0.01865,-7.21e-4 h 0.01863 l 0.0093,0.03249 c 0.121846,0.423119 0.260702,0.869977 0.374732,1.205819 0.02455,0.07241 0.05269,0.154365 0.05533,0.161267 7.21e-4,0.0017 -7.21e-4,0.0018 -0.01594,0.0018 h -0.01684 z m 0.657877,-0.02524 c -0.184567,-0.390192 -0.370524,-0.814995 -0.550765,-1.258135 -0.03275,-0.08054 -0.03202,-0.07876 -0.03202,-0.07986 0,-5.3e-4 0.0053,-7.21e-4 0.01053,-7.21e-4 l 0.01054,2.12e-4 0.02133,0.05187 c 0.18763,0.456829 0.390046,0.911461 0.587941,1.320496 0.0076,0.01504 0.01286,0.02726 0.01262,0.02726 -1.89e-4,1.68e-4 -0.0076,7.14e-4 -0.01532,8.66e-4 l -0.01503,7.21e-4 z M 84.611991,43.04135 c -7.93e-4,-0.0012 -0.06621,-0.165374 -0.09287,-0.233138 -0.08571,-0.218079 -0.169211,-0.439006 -0.247446,-0.654476 -0.03266,-0.08995 -0.0664,-0.184725 -0.06603,-0.185174 2.2e-4,-2.2e-4 0.0039,-1.5e-5 0.0096,4.53e-4 l 0.0093,7.21e-4 0.0076,0.02096 c 0.102138,0.288692 0.263401,0.711179 0.386455,1.012547 0.0085,0.02043 0.01503,0.03728 0.01503,0.03796 0,10e-4 -0.02039,10e-4 -0.02132,6.9e-5 z m -0.505967,-9.38e-4 c -0.002,-0.0082 -0.03746,-0.133066 -0.05314,-0.189728 -0.06943,-0.250987 -0.133249,-0.495082 -0.196722,-0.752423 -0.02434,-0.09832 -0.0311,-0.126646 -0.03108,-0.128206 3e-6,-4.9e-4 0.0078,-7.21e-4 0.01645,-7.21e-4 l 0.01645,-3.1e-5 0.0064,0.02524 c 0.0636,0.260196 0.123556,0.489279 0.202627,0.774506 0.01713,0.06127 0.07333,0.261241 0.07645,0.271443 6.45e-4,0.0017 -7.21e-4,0.0018 -0.01803,0.0018 -0.01682,0 -0.01893,-2.45e-4 -0.01951,-0.0018 z m 0.385988,-1.075081 c -0.0028,-0.0082 -0.03524,-0.09835 -0.05522,-0.155354 -0.150132,-0.427621 -0.312745,-0.939363 -0.36626,-1.152634 -0.01196,-0.04782 -0.01376,-0.05975 -0.0099,-0.06748 0.0085,-0.01645 0.04698,-0.02343 0.118698,-0.02163 0.04637,8.65e-4 0.220507,0.01082 0.221795,0.01198 5.59e-4,6.11e-4 0.02343,0.05713 0.05063,0.125655 0.06093,0.153015 0.09587,0.239586 0.131058,0.324968 0.114707,0.278254 0.246005,0.577943 0.378807,0.864639 0.01645,0.03565 0.03084,0.06681 0.0319,0.06906 l 0.0017,0.0037 h -0.01196 -0.01234 l -0.0082,-0.01713 c -0.115278,-0.243125 -0.256083,-0.559162 -0.3628,-0.814167 -0.01734,-0.04183 -0.03899,-0.09303 -0.04786,-0.11372 -0.09173,-0.215976 -0.143751,-0.312471 -0.194562,-0.361076 -0.03104,-0.02974 -0.06005,-0.04313 -0.10901,-0.05039 -0.02219,-0.003 -0.07682,-0.003 -0.09337,-7.2e-5 -0.02614,0.0058 -0.0444,0.01323 -0.05137,0.02312 -0.0039,0.0064 -0.0039,0.01679 -9.38e-4,0.03506 0.02095,0.109939 0.159103,0.53612 0.344226,1.061712 0.02223,0.06298 0.08069,0.227646 0.08353,0.235142 4.82e-4,9.38e-4 -0.0032,0.0012 -0.01824,0.0012 h -0.01893 z m -0.667956,0.0027 c 0,-3.83e-4 -0.0062,-0.02614 -0.01376,-0.05735 -0.124405,-0.514426 -0.238003,-1.027055 -0.238025,-1.073906 -3e-6,-0.0037 7.09e-4,-0.0062 0.0035,-0.0087 0.0056,-0.0039 0.01555,-0.0085 0.03247,-0.01196 0.03284,-0.0076 0.07022,-0.0096 0.165615,-0.0096 l 0.06775,-2.4e-5 0.0022,0.0082 c 0.001,0.0037 0.03251,0.102681 0.06891,0.21826 0.08124,0.257312 0.09643,0.305183 0.131686,0.41318 0.04831,0.148245 0.127246,0.379534 0.17047,0.499966 0.0039,0.01199 0.0082,0.02222 0.0082,0.02253 0,2.81e-4 -0.0037,3.43e-4 -0.0093,1.33e-4 l -0.0093,-3.83e-4 -0.0012,-0.0053 c -0.01082,-0.02974 -0.05307,-0.151363 -0.08494,-0.243873 -0.07966,-0.231308 -0.124276,-0.357841 -0.1645,-0.466372 -0.100613,-0.271501 -0.158385,-0.386374 -0.210582,-0.418744 -0.01622,-0.0099 -0.02253,-0.01144 -0.05166,-0.01233 -0.02846,-6.93e-4 -0.03985,5.57e-4 -0.05003,0.0058 -0.0085,0.0037 -0.01376,0.01105 -0.01772,0.02343 -0.002,0.0082 -0.0027,0.01172 -0.0027,0.03768 1.39e-4,0.04069 0.0058,0.07971 0.02455,0.173829 0.02365,0.118372 0.05632,0.258422 0.166156,0.713239 0.02524,0.104748 0.04599,0.190988 0.04599,0.191681 0,7.21e-4 -0.0073,9.37e-4 -0.01678,9.37e-4 -0.0093,0 -0.01684,-3.16e-4 -0.01684,-6.97e-4 z m 3.802528,3.860884 c -0.0053,-0.0056 -0.01352,-0.01555 -0.04985,-0.06256 -0.06788,-0.08698 -0.16873,-0.218771 -0.383193,-0.50075 -0.09508,-0.125025 -0.128267,-0.16837 -0.169812,-0.221826 -0.08979,-0.115551 -0.130998,-0.161924 -0.151937,-0.170981 -0.0087,-0.0032 -0.01442,-0.0035 -0.03767,-0.0011 -0.03651,0.0035 -0.07523,0.0076 -0.147886,0.01287 -0.03743,0.0027 -0.07086,0.0058 -0.07424,0.006 l -0.0062,6.27e-4 -0.02816,-0.047 c -0.04819,-0.0804 -0.0655,-0.103517 -0.0705,-0.09429 -0.0017,0.0032 3.66e-4,0.01324 0.0076,0.03309 0.01262,0.03566 0.01734,0.05735 0.01713,0.07651 l -1.75e-4,0.01053 -7.23e-4,-0.01144 c -0.0019,-0.02492 -0.0093,-0.04634 -0.02576,-0.08072 -0.01951,-0.04028 -0.03979,-0.07344 -0.09737,-0.16006 -0.08149,-0.122512 -0.155113,-0.239017 -0.239312,-0.378809 -0.03272,-0.05438 -0.08112,-0.135974 -0.08112,-0.136873 0,-3.58e-4 0.0073,-6.51e-4 0.01532,-6.51e-4 h 0.01532 l 0.02636,0.04374 c 0.115579,0.192039 0.169931,0.278464 0.356426,0.566913 0.101362,0.156792 0.11123,0.17155 0.114351,0.171521 0.0017,-1.7e-5 0.06436,-0.0053 0.138976,-0.01082 0.07454,-0.0062 0.135976,-0.01053 0.136486,-0.01053 5.02e-4,3.12e-4 0.01107,0.01376 0.02344,0.02996 0.01233,0.01622 0.175692,0.230015 0.362866,0.475089 0.18718,0.245075 0.34409,0.450433 0.348668,0.456318 0.0087,0.01106 0.0096,0.01442 0.001,0.0062 z m 0.06208,0.264961 c -0.0051,-0.05063 -0.01983,-0.138587 -0.0302,-0.171879 -0.003,-0.01053 -0.0053,-0.01107 -0.02275,-0.01107 -0.03188,0 -0.10859,0.0071 -0.211297,0.01824 -0.03612,0.0037 -0.363556,0.04496 -0.36742,0.04586 -0.0035,7.21e-4 -0.485202,-0.484033 -0.593589,-0.598303 -0.07454,-0.07862 -0.126105,-0.137148 -0.126105,-0.143146 0,-0.0076 0.02455,-0.01504 0.06287,-0.01916 0.01622,-0.0013 0.06826,-0.0032 0.120649,-0.0037 0.02434,-2.61e-4 0.0424,-3.09e-4 0.04016,-8.8e-5 -0.0019,2.21e-4 -0.02614,0.0017 -0.05323,0.0032 -0.09856,0.0071 -0.15955,0.01352 -0.161144,0.01824 -0.001,0.0039 0.0469,0.05722 0.145574,0.159972 0.09123,0.09491 0.180492,0.185383 0.473091,0.47958 l 0.09824,0.09875 0.132044,-0.01645 c 0.139187,-0.01736 0.247656,-0.03065 0.315626,-0.03814 0.05552,-0.0062 0.148158,-0.01532 0.148878,-0.01442 7.21e-4,7.21e-4 0.01712,0.07753 0.02037,0.0974 0.0037,0.02524 0.0073,0.04803 0.0087,0.07398 0.0012,0.02434 9.37e-4,0.04178 -5.14e-4,0.02134 z m -1.400153,-0.537374 c -0.04801,-0.04812 -0.08464,-0.08592 -0.08391,-0.08633 7.21e-4,-4.75e-4 0.0012,-0.0017 0.0014,-0.0028 3.34e-4,-0.0012 0.02185,0.01952 0.07382,0.07201 0.10268,0.103974 0.100581,0.101723 0.09663,0.102473 -0.0027,5.37e-4 -0.01374,-0.01016 -0.08848,-0.08494 z m 1.887558,1.44825 c -0.0039,-0.0032 -0.02524,-0.02006 -0.04671,-0.03715 -0.07535,-0.05988 -0.170115,-0.137624 -0.296431,-0.243095 -0.07814,-0.06524 -0.142814,-0.119595 -0.418103,-0.35135 -0.121517,-0.102287 -0.1873,-0.156884 -0.18877,-0.156552 -8.65e-4,2.63e-4 -0.05788,0.0078 -0.125927,0.01622 l -0.123708,0.01594 -0.04964,-0.04979 c -0.02726,-0.02726 -0.145815,-0.146714 -0.263432,-0.265143 -0.117587,-0.118427 -0.231096,-0.232715 -0.252183,-0.253953 -0.0361,-0.03623 -0.03809,-0.03861 -0.03427,-0.03861 0.0032,0 0.02936,0.02545 0.301485,0.300992 0.287614,0.291153 0.297482,0.300966 0.301364,0.300273 0.0019,-3.95e-4 0.05975,-0.0078 0.127849,-0.01622 0.103785,-0.01324 0.124122,-0.01532 0.125834,-0.01376 7.93e-4,7.21e-4 0.114078,0.09592 0.251104,0.211058 0.136998,0.115127 0.3095,0.260161 0.383345,0.322286 0.180133,0.151543 0.258634,0.216906 0.305186,0.254162 0.0076,0.0058 0.01262,0.01053 0.01262,0.01053 0,10e-4 -0.0026,-1.74e-4 -0.0096,-0.0062 z M 87.07224,46.367693 c -0.0019,-0.01172 -0.01017,-0.03598 -0.01503,-0.04517 -0.0026,-0.0058 -0.0039,-0.0093 -0.0032,-0.009 0.0027,7.21e-4 0.0099,0.01105 0.01262,0.01863 0.003,0.009 0.0081,0.032 0.0078,0.03726 -3.62e-4,0.003 -5.38e-4,0.0028 -0.0011,-0.0017 z m 0.911717,0.914567 c -0.0071,-6.36e-4 -0.01412,-0.0017 -0.01683,-0.0027 -0.01015,-0.0032 -0.234306,-0.170502 -0.38322,-0.285541 -0.183825,-0.142008 -0.347111,-0.274864 -0.437834,-0.356225 -0.04082,-0.03662 -0.0777,-0.07481 -0.08123,-0.08412 -7.21e-4,-0.002 -5e-4,-0.0035 0.0027,-0.0081 0.0053,-0.0058 0.0076,-0.01107 0.01054,-0.02312 l 0.0019,-0.009 9.5e-5,0.01825 c 5.1e-5,0.01015 4.73e-4,0.02275 7.22e-4,0.02816 l 7.21e-4,0.0099 0.0352,0.03223 c 0.05226,0.04782 0.07581,0.06801 0.148034,0.127426 0.207879,0.170745 0.534592,0.424779 0.632425,0.491762 0.04603,0.03152 0.0785,0.04647 0.11492,0.05311 0.01285,0.0019 0.02036,0.0027 0.04655,0.0027 0.04096,4.6e-5 0.07061,-0.0027 0.184871,-0.01861 0.115635,-0.01594 0.151064,-0.01951 0.19279,-0.02042 0.03378,-7.21e-4 0.04717,-8e-6 0.04717,0.002 0,7.93e-4 -0.0081,0.0012 -0.02934,0.0012 -0.04029,1.79e-4 -0.06786,0.0027 -0.186485,0.01863 -0.07691,0.01017 -0.120531,0.01503 -0.177078,0.01893 -0.03489,0.002 -0.09153,0.0032 -0.107146,0.0017 z M 86.3262,46.214439 c -0.260403,-0.209469 -0.31184,-0.250925 -0.372318,-0.300104 -0.193389,-0.157241 -0.333444,-0.275611 -0.333406,-0.28182 1.5e-5,-0.0028 0.0071,-0.0093 0.01376,-0.01322 0.01645,-0.0087 0.05328,-0.01915 0.08987,-0.02545 0.01465,-0.002 0.18169,-0.02524 0.185799,-0.02524 5.61e-4,0 7.21e-4,7.94e-4 7.21e-4,0.002 0,0.0028 0.0071,0.0017 -0.07976,0.01378 -0.07921,0.01082 -0.102353,0.01442 -0.128716,0.02005 -0.05197,0.01107 -0.06687,0.02185 -0.05513,0.04043 0.01082,0.01713 0.114074,0.103849 0.391997,0.329572 0.134146,0.108978 0.472416,0.382647 0.47473,0.384094 0.0012,7.21e-4 0.04018,-0.0028 0.154575,-0.01713 0.240666,-0.02906 0.28233,-0.03354 0.315131,-0.03451 l 0.01893,-5.53e-4 -0.01502,0.0017 c -0.0082,7.21e-4 -0.03773,0.0051 -0.06548,0.0081 -0.02793,0.0028 -0.129825,0.01592 -0.226718,0.02794 -0.09685,0.01196 -0.177133,0.02185 -0.178392,0.02185 -9.37e-4,-1.6e-5 -0.08718,-0.0683 -0.191019,-0.151874 z m -0.230826,-0.85202 -0.110268,-0.110715 -0.01285,0.0017 c -0.01736,0.002 -0.06063,0.0082 -0.08239,0.01054 -0.0479,0.0058 -0.200443,0.01893 -0.210159,0.01893 l -0.0039,-3.7e-5 -0.07592,-0.149411 c -0.186494,-0.367165 -0.254167,-0.497235 -0.291391,-0.56013 -0.01082,-0.01861 -0.01322,-0.02163 -0.01442,-0.02042 -0.0037,0.0037 0.04586,0.111557 0.153944,0.330394 0.111556,0.225816 0.148845,0.304193 0.188829,0.396969 l 0.02488,0.05776 0.006,-3.54e-4 c 0.01736,-7.21e-4 0.233587,-0.01713 0.238205,-0.01771 0.0037,-5.15e-4 0.006,-2.19e-4 0.006,8.65e-4 0,7.21e-4 -0.001,0.0019 -0.0027,0.0021 -0.0027,6.16e-4 -0.227435,0.01983 -0.41221,0.03517 -0.425909,0.03539 -0.53011,0.03814 -0.572516,0.01532 -0.01144,-0.0064 -0.01622,-0.01324 -0.02434,-0.03773 -0.01679,-0.04856 -0.06005,-0.15757 -0.135013,-0.339418 -0.05346,-0.129797 -0.08938,-0.220747 -0.135529,-0.343781 -0.02936,-0.07857 -0.07564,-0.204998 -0.07564,-0.207249 0,-5.7e-4 0.0076,-7.21e-4 0.01646,-6.76e-4 l 0.01645,3.6e-4 0.0028,0.0085 c 0.06151,0.172961 0.07153,0.199928 0.140685,0.377505 0.06099,0.156857 0.136364,0.352955 0.155683,0.405403 0.0039,0.01197 0.0102,0.02614 0.01262,0.03106 0.02491,0.04988 0.07957,0.0694 0.216338,0.07722 0.05092,0.0027 0.166062,0.0037 0.242044,0.0026 0.128027,-0.002 0.205029,-0.0076 0.255484,-0.01556 0.02614,-0.0037 0.03502,-0.0081 0.03502,-0.01352 0,-0.01554 -0.0926,-0.210757 -0.252301,-0.531804 -0.09113,-0.183163 -0.166694,-0.337684 -0.166694,-0.340744 0,-6.03e-4 0.0076,-7.93e-4 0.01556,-7.93e-4 h 0.01556 l 0.0028,0.0071 c 0.0078,0.01645 0.100939,0.205389 0.134205,0.27081 0.114858,0.225817 0.28383,0.554362 0.285391,0.554962 7.21e-4,3.98e-4 0.07167,-0.0062 0.157154,-0.01376 l 0.155323,-0.01467 0.06262,0.06344 c 0.03445,0.03492 0.08244,0.08334 0.106606,0.10769 0.04249,0.04267 0.04399,0.04436 0.0435,0.0488 -4.09e-4,0.004 -0.0012,0.003 -0.110687,-0.10619 z m 0.614043,-0.200512 c -3.1e-5,-5.25e-4 0.0012,-0.0035 0.0032,-0.0078 0.0087,-0.01442 0.01466,-0.03662 0.01681,-0.06561 7.22e-4,-0.0093 9.38e-4,-0.04882 9.38e-4,-0.08796 v -0.07131 l -0.0056,7.21e-4 c -0.01951,0.0028 -0.141735,0.01951 -0.166365,0.02222 -0.06458,0.0073 -0.174458,0.01646 -0.288625,0.02455 -0.07983,0.0062 -0.446699,0.02848 -0.447394,0.02794 -7.21e-4,-7.21e-4 -0.279727,-0.558943 -0.279727,-0.559692 0,-3.57e-4 0.0082,-6.51e-4 0.01803,-6.51e-4 h 0.01803 l 0.123767,0.258753 0.123767,0.258753 0.07592,-3e-5 c 0.129015,-4.5e-5 0.359879,-0.0018 0.388534,-0.0032 0.124968,-0.0071 0.187297,-0.01983 0.216157,-0.04644 0.0037,-0.0035 0.0078,-0.0071 0.0078,-0.0062 0,0.0017 -0.01466,0.01532 -0.02253,0.02044 -0.01053,0.0071 -0.02095,0.01144 -0.04108,0.01864 -0.03715,0.01323 -0.02937,0.01323 0.161684,-0.006 0.05499,-0.0058 0.104117,-0.01019 0.109277,-0.01053 l 0.0096,-7.21e-4 -4e-6,0.07636 c -3e-6,0.100366 -0.0012,0.120285 -0.01106,0.139961 -0.0035,0.0082 -0.01198,0.01983 -0.01234,0.01713 z m 3.336693,4.190008 c -0.07463,-0.06153 -0.258362,-0.281159 -1.177458,-1.407685 -0.341858,-0.41901 -0.352284,-0.43336 -0.330619,-0.455024 0.0087,-0.0087 0.01555,-0.05757 0.01555,-0.112937 0,-0.151067 -0.01679,-0.157875 -0.296609,-0.119602 -0.266492,0.03641 -0.261991,0.03741 -0.442572,-0.09652 -0.193803,-0.143863 -0.57941,-0.450973 -0.667258,-0.531497 l -0.06507,-0.05964 -0.0019,-0.117526 c -0.0012,-0.08474 -0.0082,-0.122717 -0.02253,-0.136214 -0.01736,-0.01594 -0.05807,-0.01413 -0.280682,0.01262 l -0.260404,0.03148 -0.319266,-0.258424 c -0.404795,-0.327643 -0.537767,-0.438275 -0.549395,-0.457083 -0.01465,-0.02399 0.01893,-0.03623 0.145365,-0.0535 l 0.118459,-0.01622 v -0.127849 -0.127756 l -0.124727,0.0093 -0.124698,0.0093 -0.03933,-0.09196 c -0.02163,-0.0506 -0.105378,-0.224498 -0.186071,-0.386491 -0.08064,-0.161983 -0.144855,-0.29946 -0.142604,-0.305534 0.0019,-0.0062 0.08893,0.155832 0.192758,0.359809 l 0.188683,0.370848 0.101179,-0.0087 c 0.0556,-0.0053 0.125446,-0.01172 0.155112,-0.01593 l 0.05396,-0.0076 0.495328,0.498451 0.49533,0.498445 0.126078,-0.01622 0.126078,-0.01622 0.430142,0.362135 c 0.510091,0.429442 0.673523,0.555829 0.747362,0.577952 0.04357,0.01323 0.07708,0.01262 0.164325,-10e-4 0.109096,-0.01773 0.109635,-0.01773 0.135858,0.01466 0.06924,0.08504 0.2445,0.343442 0.617514,0.910309 0.625868,0.951155 0.82876,1.275885 0.813051,1.301305 -0.01286,0.02073 -0.03907,0.01196 -0.09025,-0.0301 z m -0.157027,-0.892414 c -0.65396,-0.997723 -0.728278,-1.112662 -0.794453,-1.228701 -0.05964,-0.10457 -0.0658,-0.122116 -0.04764,-0.135407 0.02704,-0.01983 0.04011,-0.162282 0.01983,-0.214988 l -0.01532,-0.03904 -0.131026,0.009 c -0.07208,0.0053 -0.203826,0.02045 -0.292796,0.03438 -0.130009,0.02041 -0.165736,0.0222 -0.181993,0.0087 -0.378967,-0.315096 -0.635601,-0.534482 -0.721183,-0.616519 l -0.107921,-0.103473 0.03708,-0.01413 c 0.03178,-0.01234 0.03708,-0.02163 0.03708,-0.06779 0,-0.02937 -0.0073,-0.08463 -0.01502,-0.122595 l -0.01466,-0.06895 -0.08968,0.0087 c -0.04928,0.0053 -0.183728,0.02041 -0.298648,0.03493 l -0.208956,0.02636 -0.362286,-0.364909 c -0.199249,-0.200834 -0.358661,-0.368664 -0.354225,-0.3731 0.0039,-0.0037 0.07816,-0.01234 0.163905,-0.01769 0.136935,-0.0087 0.159881,-0.01352 0.189069,-0.04082 0.02996,-0.02816 0.03328,-0.04184 0.03328,-0.138584 v -0.107376 l -0.09098,0.009 c -0.225156,0.02222 -0.227795,0.02222 -0.187871,0.0093 0.07653,-0.02524 0.09514,-0.07175 0.06275,-0.156913 -0.02434,-0.06363 -0.0032,-0.05067 0.04282,0.02726 l 0.0451,0.07527 0.10118,-0.0078 c 0.05562,-0.0037 0.119358,-0.0099 0.141614,-0.01286 0.03895,-0.0056 0.05396,0.01262 0.403524,0.472898 0.199688,0.263011 0.369561,0.483471 0.377484,0.489922 0.0085,0.0073 0.07393,0.0012 0.155863,-0.01234 l 0.141466,-0.02395 0.316383,0.325383 c 0.174008,0.178963 0.393061,0.403512 0.486791,0.499002 l 0.170409,0.173623 0.161204,-0.02185 c 0.08867,-0.01198 0.168643,-0.02186 0.177731,-0.02186 0.01893,0 0.831887,1.623632 0.911464,1.820019 0.04112,0.10154 0.05329,0.151125 0.05829,0.239288 0.003,0.0612 7.93e-4,0.111104 -0.0058,0.110956 -0.0071,-1.77e-4 -0.147914,-0.207937 -0.314265,-0.461744 z m 0.617059,-0.821893 c -0.0058,-0.360338 -0.006,-0.360872 -0.131326,-0.360788 -0.158685,8.8e-5 -0.19822,0.06854 -0.212829,0.368197 -0.0082,0.165883 -0.0096,0.171793 -0.03247,0.148304 -0.01324,-0.01352 -0.08249,-0.136695 -0.154063,-0.273869 -0.256262,-0.491479 -0.373551,-0.775241 -0.331208,-0.80141 0.02185,-0.01352 0.01772,-0.151093 -0.006,-0.196511 -0.01144,-0.02163 -0.03382,-0.04654 -0.05037,-0.05539 -0.03491,-0.01862 -0.21001,-0.01803 -0.407879,10e-4 -0.07417,0.0078 -0.141585,0.01324 -0.149837,0.01376 -0.02847,6.61e-4 -0.549842,-0.558089 -0.59025,-0.632714 -0.03838,-0.07095 -0.03891,-0.07438 -0.03106,-0.230074 l 0.0082,-0.157994 -0.05652,0.0062 c -0.131805,0.01376 -0.595936,0.05502 -0.597304,0.05328 -7.21e-4,-7.21e-4 -0.09365,-0.122627 -0.206349,-0.270181 -0.20746,-0.271714 -0.267301,-0.364288 -0.244535,-0.378358 0.0073,-0.0037 0.0549,-0.01284 0.106701,-0.01949 0.111046,-0.01414 0.16909,-0.04445 0.197199,-0.103702 0.02186,-0.04625 0.02726,-0.162432 0.0087,-0.191647 -0.02455,-0.03874 -0.124699,-0.04438 -0.50519,-0.02884 -0.311321,0.01262 -0.379242,0.01198 -0.39296,-0.002 -0.02884,-0.0311 -0.362277,-0.575328 -0.48206,-0.78644 -0.48927,-0.862337 -1.273054,-2.473285 -1.494826,-3.072399 -0.07124,-0.192369 -0.07818,-0.217088 -0.06694,-0.235385 0.02036,-0.03326 0.171253,-0.04245 0.693986,-0.04236 l 0.540793,9e-5 0.211898,0.421209 c 0.647668,1.287363 1.569201,2.81761 2.500532,4.152244 l 0.28929,0.414562 h 1.440651 1.440653 l 0.330675,-0.483956 c 0.897399,-1.313383 1.500639,-2.309742 2.392411,-3.951495 l 0.296579,-0.546004 0.577291,5.51e-4 c 0.635779,6.07e-4 0.661752,0.003 0.645074,0.07045 -0.01593,0.06331 -0.21795,0.546622 -0.370461,0.885499 -0.372534,0.827791 -0.811231,1.694804 -1.188122,2.348108 -0.152807,0.264904 -0.525214,0.881453 -0.53239,0.881453 -0.0078,0 -0.770512,-0.06597 -0.826095,-0.0714 l -0.04515,-0.0039 0.009,0.08848 c 0.01983,0.19522 0.04623,0.231096 0.18898,0.255965 0.159853,0.02794 0.157158,0.01594 0.04135,0.181481 -0.07433,0.106218 -0.347393,0.472966 -0.363413,0.488152 -7.21e-4,7.1e-4 -0.08024,-0.0071 -0.176619,-0.01594 -0.270215,-0.02666 -0.401381,-0.02455 -0.440031,0.0073 -0.02934,0.02365 -0.03181,0.0359 -0.0323,0.152209 l -4.58e-4,0.126436 -0.06283,0.09384 c -0.07336,0.109461 -0.157482,0.207039 -0.373586,0.433251 l -0.156822,0.164173 -0.336541,-0.02455 c -0.185078,-0.01352 -0.338955,-0.02223 -0.341919,-0.01951 -0.0028,0.0027 0.0012,0.04737 0.0099,0.09895 0.04133,0.250056 0.0053,0.35742 -0.365758,1.078345 l -0.169183,0.329113 -0.0039,-0.304125 z m -1.724157,-1.341669 c -0.315919,-0.320375 -0.484601,-0.499063 -0.484601,-0.513356 0,-0.0073 0.02096,-0.01532 0.04641,-0.01825 0.0406,-0.0053 0.04745,-7.93e-4 0.05487,0.02884 0.01952,0.07912 0.09339,0.170234 0.347543,0.427855 0.18757,0.190181 0.279269,0.273902 0.304188,0.277709 0.02906,0.0037 0.02667,0.0062 -0.01172,0.0078 -0.04421,0.0017 -0.06148,-0.01234 -0.256741,-0.210307 z m -3.891487,-1.044573 c -0.01893,-0.05311 -0.104959,-0.276901 -0.191111,-0.497308 -0.238085,-0.609236 -0.621598,-1.87936 -0.837064,-2.77218 -0.291684,-1.20865 -0.284812,-1.158808 -0.159276,-1.158808 0.08989,0 0.15979,0.152114 0.423297,0.921565 0.346703,1.012424 0.818962,2.150213 1.244274,2.997739 0.151333,0.301603 0.27519,0.56124 0.27519,0.576963 0,0.01556 -0.162192,0.02848 -0.360409,0.02848 -0.293313,0 -0.366829,-0.01803 -0.394903,-0.09656 z m 0.574901,-1.048445 c -0.199795,-0.41727 -0.487145,-1.069097 -0.638549,-1.448472 -0.268136,-0.671856 -0.726109,-2.000489 -0.726109,-2.106516 0,-0.02906 0.06482,-0.04507 0.143957,-0.03539 0.124575,0.01504 0.17185,0.08466 0.351209,0.516339 0.463775,1.116343 1.310644,2.746424 1.818186,3.499705 0.197501,0.293131 0.165884,0.331087 -0.27678,0.332299 l -0.30863,7.21e-4 z m 5.039193,3.421239 c -0.0026,-0.326189 -0.0099,-0.344887 -0.134868,-0.344887 -0.154064,0 -0.197978,0.08798 -0.201881,0.404581 -0.0027,0.227798 -0.006,0.224467 -0.297417,-0.349398 -0.172723,-0.339698 -0.271831,-0.593674 -0.239588,-0.613899 0.03023,-0.01893 0.0373,-0.09015 0.01593,-0.158111 -0.03554,-0.112161 -0.06653,-0.12134 -0.3343,-0.09915 l -0.295078,0.02455 -0.31857,-0.321928 C 88.420304,45.88443 88.382263,45.820294 88.396413,45.656002 l 0.01622,-0.187929 -0.326364,0.02974 -0.326371,0.02974 -0.260071,-0.337977 c -0.219845,-0.285721 -0.243214,-0.33798 -0.151004,-0.33798 0.193813,0 0.283652,-0.06405 0.283652,-0.202029 0,-0.133637 -0.0039,-0.134865 -0.452141,-0.118248 l -0.452143,0.01684 -0.292201,-0.469042 c -0.510723,-0.819801 -1.560037,-2.959884 -1.751891,-3.572991 -0.0388,-0.12386 -0.03717,-0.124159 0.598898,-0.124159 h 0.637749 l 0.242854,0.482835 c 0.561601,1.116613 1.579674,2.813851 2.341828,3.904076 l 0.424341,0.606995 h 1.430704 1.430704 l 0.5465,-0.800132 c 0.635437,-0.930354 1.378332,-2.160815 2.023929,-3.352262 l 0.455982,-0.841433 h 0.634728 c 0.553113,0 0.63045,0.01106 0.601592,0.08628 -0.382611,0.997068 -1.144024,2.549665 -1.715734,3.498536 l -0.374683,0.621873 -0.438092,-0.03817 -0.438095,-0.03817 0.01803,0.155896 c 0.01413,0.123584 0.04927,0.159521 0.169605,0.173349 0.08342,0.0096 0.151753,0.02935 0.151753,0.04372 0,0.01442 -0.10454,0.164776 -0.232355,0.334032 l -0.232358,0.307739 -0.319465,-0.02906 c -0.336624,-0.03056 -0.349909,-0.02005 -0.322286,0.250656 0.006,0.05335 -0.127666,0.241175 -0.295829,0.417477 l -0.30572,0.320518 -0.34079,-0.02455 -0.340795,-0.02455 0.02996,0.186581 c 0.02434,0.151002 -0.02614,0.297087 -0.264693,0.765979 l -0.294658,0.579405 -0.0027,-0.344884 z m -0.768896,1.391367 c -0.260434,-0.315687 -0.758361,-0.92471 -1.176986,-1.439617 -0.03882,-0.04775 -0.05592,-0.08679 -0.03796,-0.08679 0.01803,0 0.03258,-0.03985 0.03258,-0.08865 0,-0.173712 -0.006,-0.176353 -0.297122,-0.136666 -0.145664,0.01983 -0.278521,0.02614 -0.295229,0.01376 -0.466975,-0.340167 -0.924554,-0.712698 -0.896614,-0.729969 0.03675,-0.02275 0.01286,-0.243332 -0.02635,-0.243332 -0.01107,0 -0.133215,0.01442 -0.27132,0.0315 l -0.251135,0.0315 -0.438878,-0.352953 c -0.241383,-0.194106 -0.446295,-0.364953 -0.455362,-0.379624 -0.0093,-0.01467 0.05234,-0.03584 0.136454,-0.04698 l 0.152953,-0.02042 v -0.121767 -0.121785 l -0.220236,0.01893 c -0.722687,0.06174 -0.771943,0.06182 -0.790005,7.93e-4 -0.0093,-0.03151 -0.07299,-0.191681 -0.14135,-0.356087 -0.281336,-0.676342 -0.618355,-1.747106 -0.881099,-2.799432 -0.144284,-0.577866 -0.306263,-1.294073 -0.306263,-1.354164 0,-0.01532 0.06099,-0.02794 0.135609,-0.02794 h 0.135588 l 0.14147,0.448046 c 0.365881,1.158795 0.910368,2.489355 1.44936,3.541785 l 0.246546,0.481406 0.156733,-0.01504 0.156705,-0.01466 0.491122,0.49717 0.49112,0.497171 0.128026,-0.01622 0.127998,-0.01622 0.577143,0.485317 c 0.615676,0.517718 0.570313,0.493431 0.826005,0.44226 0.07227,-0.01442 0.0078,-0.105711 1.063646,1.50005 0.256177,0.389464 0.457819,0.720942 0.448133,0.736611 -0.04129,0.06678 -0.108707,0.0081 -0.411199,-0.3588 z m 0.836486,0.355079 c -0.02039,-0.03298 0.05616,-0.154184 0.932223,-1.474907 l 0.506027,-0.762908 0.157274,0.02489 0.157274,0.02486 0.58052,-0.487869 c 0.578394,-0.486082 0.580994,-0.487817 0.708927,-0.473399 l 0.128417,0.01442 0.480806,-0.487785 0.480806,-0.487783 0.16708,-0.0013 0.167084,-0.0013 0.233915,-0.455639 c 0.301433,-0.587154 0.707025,-1.498502 0.966596,-2.171882 0.204942,-0.531703 0.549365,-1.537817 0.590084,-1.723838 0.02105,-0.09528 0.02675,-0.09871 0.173127,-0.09871 0.129803,0 0.149345,0.0078 0.136496,0.05318 -0.0086,0.02906 -0.05819,0.251377 -0.111121,0.493612 -0.299722,1.373814 -0.682563,2.663752 -1.086346,3.660302 l -0.147708,0.364418 h -0.180071 c -0.09904,0 -0.319321,-0.01082 -0.489514,-0.02398 l -0.309445,-0.02403 -0.0093,0.115191 -0.0096,0.115158 0.161322,0.0304 0.161325,0.03043 -0.221439,0.182258 c -0.653542,0.537869 -0.69617,0.566703 -0.812433,0.549489 -0.0599,-0.0087 -0.187537,-0.02491 -0.283591,-0.03566 l -0.174671,-0.01952 v 0.122476 c 0,0.06733 0.01532,0.127546 0.03382,0.133757 0.01861,0.0062 -0.18457,0.17599 -0.451512,0.377315 l -0.485365,0.365927 -0.163607,-0.0231 c -0.08992,-0.01262 -0.213364,-0.02434 -0.274199,-0.02545 -0.104298,-0.0017 -0.111287,0.0032 -0.122989,0.104122 -0.0071,0.05852 3.98e-4,0.119148 0.01594,0.134806 0.01769,0.01769 -0.08356,0.164232 -0.26763,0.387269 -0.162856,0.197347 -0.50988,0.621332 -0.771166,0.942174 -0.261303,0.32085 -0.491353,0.583984 -0.51125,0.584742 -0.01983,7.21e-4 -0.04518,-0.01324 -0.05608,-0.03082 z m -0.620399,-0.804647 c -0.141375,-0.216395 -0.417735,-0.636049 -0.614141,-0.932593 -0.219969,-0.332109 -0.339985,-0.539175 -0.312517,-0.539175 0.03176,0 0.04458,-0.03498 0.04458,-0.121484 0,-0.115277 -0.0053,-0.121517 -0.09292,-0.121517 -0.05107,0 -0.188261,0.01503 -0.304808,0.03284 l -0.211901,0.03286 -0.445921,-0.374608 c -0.352824,-0.296398 -0.432335,-0.376574 -0.380856,-0.384027 0.05688,-0.0082 0.06286,-0.02365 0.04783,-0.121516 -0.0093,-0.06161 -0.02163,-0.117259 -0.02704,-0.123558 -0.0058,-0.0064 -0.142425,0.0058 -0.304617,0.02545 l -0.294899,0.0371 -0.35879,-0.359761 c -0.19732,-0.197862 -0.359041,-0.370015 -0.359353,-0.382547 -3.15e-4,-0.01262 0.05757,-0.02309 0.128536,-0.02309 0.230673,-7.21e-4 0.265803,-0.02163 0.265803,-0.158444 v -0.121427 l -0.129077,0.01773 c -0.07095,0.0099 -0.275073,0.02672 -0.453462,0.03786 l -0.324358,0.02004 -0.247384,-0.494058 c -0.551266,-1.100906 -1.048338,-2.343274 -1.415866,-3.538755 -0.05647,-0.18376 -0.102772,-0.351907 -0.102831,-0.373626 -5.9e-5,-0.02884 0.04627,-0.03706 0.171975,-0.03042 l 0.172063,0.0093 0.103125,0.258186 c 0.501524,1.255603 1.246255,2.714958 1.905816,3.734603 l 0.201367,0.311293 0.139303,-0.01106 0.139308,-0.01106 0.373984,0.489587 0.373984,0.489589 0.145966,-0.02492 0.145963,-0.02487 0.486015,0.499249 0.486017,0.499254 0.17695,-0.02455 0.176954,-0.02455 0.485265,0.970165 c 0.443953,0.88757 0.484488,0.982075 0.476125,1.110075 l -0.0093,0.139904 z m 0.527866,0.236467 c 0.0082,-0.114077 0.108288,-0.340726 0.473022,-1.070753 0.254463,-0.509334 0.474633,-0.940885 0.489256,-0.959005 0.01773,-0.02185 0.08468,-0.02524 0.19918,-0.0096 l 0.172605,0.02343 0.479281,-0.494315 0.47928,-0.494313 0.161144,0.01172 0.161142,0.01172 0.361243,-0.482614 0.361241,-0.482612 0.139966,0.01322 0.139964,0.01324 0.225215,-0.344546 c 0.554858,-0.84888 1.23301,-2.154206 1.701893,-3.275826 0.136185,-0.325781 0.258633,-0.612834 0.272132,-0.637898 0.01615,-0.03034 0.08219,-0.04861 0.196996,-0.05464 l 0.172485,-0.0093 -0.01947,0.08509 c -0.01089,0.04682 -0.1256,0.406308 -0.255194,0.798918 -0.368161,1.115528 -0.729868,2.001334 -1.238822,3.033814 l -0.260164,0.527794 -0.32152,-0.01983 c -0.176831,-0.01106 -0.377967,-0.02757 -0.446958,-0.03711 l -0.125417,-0.01713 -0.01442,0.116808 c -0.0082,0.06425 -0.0096,0.122566 -0.0032,0.129588 0.0064,0.0073 0.09853,0.02073 0.205536,0.03035 l 0.194561,0.01772 -0.310039,0.318951 c -0.458487,0.471652 -0.388423,0.433236 -0.717317,0.393248 -0.309241,-0.03762 -0.332651,-0.02845 -0.333549,0.128625 -3.52e-4,0.05958 0.01684,0.08407 0.06324,0.09115 0.04979,0.0078 -0.03361,0.09124 -0.382778,0.383675 l -0.446471,0.373967 -0.207788,-0.03227 c -0.355023,-0.05511 -0.384931,-0.04944 -0.399562,0.0759 -0.0085,0.07108 0.0012,0.116117 0.02906,0.131501 0.03157,0.01775 -0.106578,0.248977 -0.560251,0.93856 -0.331134,0.503333 -0.611796,0.915745 -0.623697,0.916469 -0.01197,7.21e-4 -0.01713,-0.06374 -0.01106,-0.143385 z m -0.604967,-1.388735 c -0.183758,-0.367216 -0.338693,-0.678188 -0.344263,-0.691052 -0.0058,-0.01287 0.01893,-0.02343 0.05451,-0.02343 0.05805,0 0.06256,-0.01142 0.04408,-0.113895 -0.01108,-0.06258 -0.02545,-0.119509 -0.03161,-0.126409 -0.0062,-0.0073 -0.144165,0.0035 -0.306962,0.02398 l -0.295977,0.03631 -0.377783,-0.380808 c -0.344792,-0.347546 -0.370349,-0.380798 -0.29265,-0.380798 0.08307,0 0.08465,-0.0028 0.06463,-0.127966 -0.01105,-0.07041 -0.02344,-0.130188 -0.02665,-0.132918 -0.003,-0.0026 -0.142334,0.01262 -0.308753,0.03444 -0.27561,0.03592 -0.305855,0.03491 -0.339635,-0.01143 -0.02037,-0.02794 -0.147103,-0.19432 -0.28155,-0.36975 l -0.244478,-0.318945 0.113272,-0.0081 c 0.292108,-0.02006 0.310708,-0.02974 0.310708,-0.160843 V 44.5418 l -0.265802,0.02307 c -0.146174,0.01262 -0.347274,0.02312 -0.446869,0.02312 H 86.71781 L 86.515788,44.269062 C 85.91035,43.313183 85.26925,42.046382 84.774362,40.828047 84.680882,40.597823 84.604308,40.396196 84.604308,40.38 c 0,-0.01803 0.254254,-0.02934 0.660678,-0.02906 l 0.660677,3.61e-4 0.197381,0.386929 c 0.706878,1.385611 1.800613,3.193554 2.582008,4.268045 l 0.25818,0.355042 1.387672,6.46e-4 1.387667,6.48e-4 0.10391,-0.129076 c 0.182917,-0.227289 0.821349,-1.174408 1.182461,-1.754215 0.561613,-0.901736 1.023825,-1.712331 1.606403,-2.817208 l 0.164085,-0.311191 0.660678,-1.52e-4 c 0.363372,-9.3e-5 0.660671,0.0078 0.660671,0.01684 0,0.0093 -0.07343,0.197258 -0.163262,0.417667 -0.512646,1.258082 -1.092442,2.410188 -1.728436,3.434582 l -0.242857,0.391101 -0.292051,-0.02006 c -0.160634,-0.01105 -0.356969,-0.02816 -0.436328,-0.03811 l -0.144286,-0.01803 v 0.121875 c 0,0.137324 0.03494,0.15817 0.265806,0.158924 0.07095,2.64e-4 0.129104,0.0096 0.129104,0.02038 0,0.02163 -0.516676,0.706208 -0.544901,0.721907 -0.0096,0.0056 -0.146924,-0.0078 -0.305623,-0.02816 -0.158713,-0.02073 -0.298827,-0.03176 -0.31136,-0.02455 -0.01262,0.0076 -0.02275,0.06599 -0.02275,0.130633 0,0.09168 0.01262,0.11975 0.0575,0.12731 0.04492,0.0078 -0.02005,0.09154 -0.296159,0.383326 l -0.353654,0.373647 -0.298768,-0.03711 c -0.329885,-0.04091 -0.352937,-0.03233 -0.353859,0.132735 -3.52e-4,0.06346 0.01413,0.08347 0.06043,0.08347 0.05254,0 0.01324,0.09556 -0.288689,0.698646 -0.192249,0.384257 -0.354924,0.698648 -0.361462,0.698648 -0.0071,0 -0.01105,-0.17428 -0.0099,-0.387296 l 0.0019,-0.387292 -0.125987,-0.0028 -0.125987,7.21e-4 -0.0087,0.372433 -0.0085,0.389001 z" />
    </g>
  </g>
</svg>
