<?xml version="1.0" encoding="UTF-8"?>
<svg id="svg78" width="446.75" height="297.95" version="1.1" viewBox="0 0 446.75 297.95" xmlns="http://www.w3.org/2000/svg" xmlns:cc="http://creativecommons.org/ns#" xmlns:dc="http://purl.org/dc/elements/1.1/" xmlns:rdf="http://www.w3.org/1999/02/22-rdf-syntax-ns#">
 <metadata id="metadata84">
  <rdf:RDF>
   <cc:Work rdf:about="">
    <dc:format>image/svg+xml</dc:format>
    <dc:type rdf:resource="http://purl.org/dc/dcmitype/StillImage"/>
   </cc:Work>
  </rdf:RDF>
 </metadata>
 <g id="g86" transform="translate(245.74 211.81)">
  <path id="path90" d="m-42.069 77.272c-8.574-10.393-24.966-30.442-38.747-47.393-1.2774-1.5712-1.8399-2.8566-1.25-2.8566s1.0725-1.3132 1.0725-2.9182c0-5.7184-0.18911-5.8054-9.7811-4.4991-4.7954 0.65307-9.1689 0.85961-9.7189 0.45896-15.373-11.198-30.437-23.463-29.517-24.031 1.2084-0.74682 0.41928-8.0107-0.87022-8.0107-0.36571 0-4.3854 0.46651-8.9326 1.0367l-8.2677 1.0367-14.448-11.619c-7.9465-6.3906-14.692-12.015-14.991-12.498-0.29855-0.48306 1.7229-1.1789 4.492-1.5462l5.0349-0.6679v-8.0182l-7.25 0.62c-23.791 2.0346-25.413 2.037-26.008 0.0379-0.308-1.0351-2.402-6.3103-4.6534-11.723-9.2619-22.266-20.357-57.516-29.007-92.159-4.7499-19.024-10.082-42.602-10.082-44.58 0-0.506 2.0089-0.92 4.4642-0.92h4.4642l4.6572 14.75c12.045 38.148 29.97 81.952 47.714 116.6l8.1166 15.848 10.319-0.97906 32.336 32.735 8.429-1.0592 19 15.977c20.268 17.044 18.775 16.244 27.193 14.56 2.3779-0.47585 0.24801-3.4796 35.016 49.383 8.4329 12.822 15.072 23.734 14.753 24.25-1.3576 2.1966-3.5793 0.25801-13.537-11.812zm27.538 11.689c-0.67139-1.0863 1.8504-5.0761 30.689-48.555l16.659-25.116 10.355 1.6369 19.111-16.061c19.041-16.002 19.127-16.059 23.338-15.585l4.2272 0.47647 31.657-32.116 11-0.1202 7.7007-15c9.9234-19.33 23.276-49.332 31.821-71.5 6.7472-17.504 18.085-50.626 19.426-56.75 0.68681-3.1372 0.88465-3.25 5.6994-3.25 4.2722 0 4.917 0.25111 4.4933 1.75-0.27207 0.9625-1.9182 8.275-3.6581 16.25-9.867 45.227-22.471 87.693-35.764 120.5l-4.8623 12h-5.928c-3.2604 0-10.512-0.35616-16.115-0.79146l-10.187-0.79145-0.31283 3.7914-0.31284 3.7914 10.623 2-7.2904 6c-21.515 17.707-22.918 18.656-26.746 18.089-1.9725-0.29206-6.1738-0.82101-9.3363-1.1755l-5.75-0.64446v4.0319c0 2.2175 0.50162 4.1991 1.1147 4.4035 0.6131 0.20437-6.0758 5.794-14.864 12.421l-15.979 12.05-5.3859-0.76515c-2.9622-0.42083-7.0241-0.798-9.0265-0.83815-3.4336-0.0688-3.6638 0.12609-4.0493 3.4277-0.22478 1.9254 0.0128 3.9222 0.52801 4.4374 0.58226 0.58226-2.7517 5.4064-8.811 12.749-5.3612 6.4969-16.786 20.455-25.387 31.017-8.6019 10.563-16.176 19.225-16.831 19.25-0.65504 0.025-1.486-0.4319-1.8465-1.0153zm-20.424-26.488c-4.654-7.1234-13.752-20.939-20.218-30.702-7.2414-10.933-11.192-17.75-10.288-17.75 1.046 0 1.468-1.1499 1.468-4 0-3.7948-0.15693-4-3.0584-4-1.6821 0-6.1977 0.48707-10.035 1.0824l-6.9761 1.0824-14.68-12.332c-11.615-9.7578-14.233-12.397-12.538-12.642 1.871-0.27082 2.07-0.77675 1.573-4-0.31291-2.0295-0.71298-3.8602-0.88903-4.0683-0.17605-0.20807-4.6888 0.17158-10.028 0.84366l-9.7081 1.222-11.812-11.844c-6.4963-6.514-11.82-12.181-11.83-12.594-0.0103-0.4125 1.8938-0.75614 4.2313-0.76365 7.5943-0.0244 8.75-0.71339 8.75-5.2165v-3.9969l-4.25 0.58315c-2.3375 0.32073-9.0552 0.88107-14.928 1.2452l-10.678 0.66206-8.1443-16.265c-18.148-36.243-34.512-77.142-46.611-116.5-1.86-6.05-3.3831-11.585-3.3848-12.3-2e-3 -0.9491 1.5256-1.219 5.6615-1l5.6645 0.29991 3.3952 8.5c16.511 41.335 41.028 89.378 62.741 122.95l6.6289 10.248 9.1719-0.72947 24.624 32.235 9.6106-1.6349 32 32.872 11.651-1.6221 15.975 31.939c14.615 29.22 15.95 32.331 15.674 36.544l-0.30088 4.6059zm17.378 7.785c0.26861-3.755 3.565-11.217 15.572-35.25 8.3773-16.768 15.625-30.975 16.107-31.571 0.58071-0.71958 2.7876-0.82513 6.5571-0.31359l5.6818 0.77103 31.557-32.546 10.609 0.77052 23.785-31.776 9.2155 0.86442 7.4139-11.343c18.266-27.946 40.592-70.918 56.028-107.84 4.4834-10.725 8.5149-20.175 8.9587-21 0.53722-0.99862 2.7049-1.6006 6.4852-1.8008l5.6783-0.30086-0.64499 2.8009c-0.35474 1.5405-4.1352 13.376-8.4009 26.301-12.12 36.724-24.028 65.886-40.783 99.875l-8.5651 17.375-10.585-0.65579c-5.8216-0.36069-12.443-0.91008-14.714-1.2209l-4.1294-0.56506-0.47863 3.8455c-0.26324 2.115-0.31587 4.0346-0.11695 4.2657 0.19892 0.23115 3.2439 0.68115 6.7667 1l6.405 0.57974-10.207 10.5c-15.094 15.527-12.787 14.263-23.615 12.946-10.18-1.2378-10.951-0.94061-10.981 4.2344-0.0112 1.9597 0.5485 2.7664 2.0815 3 1.6397 0.24989-1.1072 3.0032-12.601 12.631l-14.698 12.311-6.8402-1.0613c-11.688-1.8134-12.672-1.6264-13.154 2.4976-0.27317 2.3399 0.0559 3.8226 0.96084 4.3291 1.037 0.58037-3.5093 8.1966-18.444 30.898-10.901 16.57-20.141 30.147-20.533 30.171-0.39177 0.0238-0.55899-2.1003-0.37159-4.7202zm-19.916-45.717c-6.05-12.089-11.15-22.327-11.333-22.75-0.18334-0.42343 0.62455-0.76988 1.7953-0.76988 1.9136 0 2.0602-0.37879 1.4507-3.75-0.37288-2.0625-0.84072-3.935-1.0396-4.161s-4.7464 0.12785-10.105 0.78644l-9.7438 1.1974-12.437-12.536c-11.351-11.442-12.192-12.536-9.6341-12.536 2.7334 0 2.7861-0.10427 2.1292-4.2125-0.37048-2.3168-0.7655-4.2856-0.87781-4.375-0.11232-0.0894-4.6863 0.42125-10.164 1.1348-9.0736 1.1819-10.069 1.1485-11.181-0.37498-0.6714-0.91979-4.8423-6.3973-9.2686-12.172l-8.0479-10.5 3.7288-0.25652c9.6161-0.66154 10.229-0.97871 10.229-5.2946v-3.9605l-8.75 0.75584c-4.8125 0.4157-11.433 0.75583-14.711 0.75583h-5.9613l-6.6505-10.5c-19.932-31.468-41.037-73.172-57.329-113.28-3.0788-7.5795-5.5978-14.217-5.5978-14.75 0-0.59621 8.3698-0.96459 21.75-0.95728l21.75 0.0119 6.4984 12.738c23.271 45.615 59.278 105.13 85.002 140.51l8.5 11.688 91.366 0.0426 3.4205-4.25c6.0217-7.4819 27.04-38.662 38.928-57.75 18.489-29.686 33.705-56.371 52.884-92.745l5.4018-10.245 21.75-5e-3c11.962-3e-3 21.75 0.24582 21.75 0.55275 0 0.30694-2.419 6.4944-5.3755 13.75-16.877 41.417-35.964 79.345-56.901 113.07l-7.9948 12.877-9.6142-0.66599c-5.2878-0.36629-11.752-0.93143-14.364-1.2559l-4.75-0.58988v4.0122c0 4.5202 1.1493 5.2074 8.75 5.2318 2.3375 8e-3 4.25 0.31137 4.25 0.67526 0 0.71419-17.009 23.249-17.939 23.766-0.30878 0.17173-4.8364-0.24556-10.061-0.92733s-9.8375-1.0466-10.25-0.81077c-0.4125 0.23584-0.75 2.171-0.75 4.3002 0 3.019 0.41674 3.9418 1.8926 4.191 1.4781 0.24956-0.65734 3.0135-9.75 12.62l-11.643 12.3-9.8354-1.2208c-10.86-1.3483-11.619-1.0635-11.649 4.3705-0.0116 2.0903 0.46545 2.75 1.9889 2.75 1.7301 0 0.43027 3.1455-9.5042 23-6.3296 12.65-11.684 23-11.9 23s-0.35858-5.7375-0.31855-12.75l0.0728-12.75-4.1479-0.09951-4.1479 0.03259-0.27941 12.261-0.27943 12.806z"/>
  <rect id="rect122" x="-17.639" y="12.06" width="0" height="9.462" fill="#0d171a"/>
 </g>
</svg>
