<?xml version="1.0" encoding="UTF-8"?>
<svg id="svg8" width="119.01mm" height="79.72mm" version="1.1" viewBox="0 0 119.01 79.72" xmlns="http://www.w3.org/2000/svg" xmlns:cc="http://creativecommons.org/ns#" xmlns:dc="http://purl.org/dc/elements/1.1/" xmlns:osb="http://www.openswatchbook.org/uri/2009/osb" xmlns:rdf="http://www.w3.org/1999/02/22-rdf-syntax-ns#">
 <metadata id="metadata5">
  <rdf:RDF>
   <cc:Work rdf:about="">
    <dc:format>image/svg+xml</dc:format>
    <dc:type rdf:resource="http://purl.org/dc/dcmitype/StillImage"/>
    <dc:title/>
   </cc:Work>
  </rdf:RDF>
 </metadata>
 <g id="layer1" transform="translate(-37.142 -27.692)">
  <g id="g965" fill="none" stroke="#ff6a3d" stroke-linejoin="round" stroke-width="1.0583">
   <path id="path90" d="m91.245 103.53c-2.2636-2.7438-6.5911-8.0369-10.229-12.512-0.33723-0.41479-0.48574-0.75417-0.33001-0.75417s0.28314-0.34669 0.28314-0.77043c0-1.5097-0.04993-1.5327-2.5823-1.1878-1.266 0.17242-2.4206 0.22694-2.5658 0.12117-4.0586-2.9565-8.0356-6.1943-7.7928-6.3443 0.31902-0.19716 0.11069-2.1149-0.22974-2.1149-0.09655 0-1.1578 0.12316-2.3583 0.27369l-2.1827 0.27369-3.8144-3.0676c-2.0979-1.6872-3.8789-3.1719-3.9577-3.2995-0.07882-0.12753 0.45485-0.31123 1.1859-0.40821l1.3292-0.17633v-2.1169l-1.914 0.16368c-6.2811 0.53715-6.7092 0.53777-6.8662 0.01001-0.081314-0.27329-0.63416-1.666-1.2285-3.0949-2.4452-5.8782-5.3743-15.185-7.6579-24.331-1.254-5.0224-2.6618-11.247-2.6618-11.769 0-0.13359 0.53036-0.24289 1.1786-0.24289h1.1786l1.2295 3.8941c3.18 10.071 7.9123 21.636 12.597 30.783l2.1428 4.184 2.7242-0.25848 8.537 8.6421 2.2253-0.27962 5.0161 4.218c5.351 4.4996 4.9568 4.2885 7.1791 3.8438 0.62777-0.12563 0.06548-0.91863 9.2444 13.037 2.2263 3.385 3.979 6.266 3.8949 6.4022-0.35841 0.57992-0.94496 0.0681-3.5739-3.1185zm7.2702 3.0861c-0.17725-0.28679 0.48851-1.3401 8.1022-12.819l4.3981-6.6307 2.7339 0.43216 5.0455-4.2402c5.027-4.2247 5.0496-4.2398 6.1615-4.1144l1.116 0.12579 8.3577-8.4789 2.9041-0.03174 2.033-3.9601c2.6198-5.1031 6.145-13.024 8.401-18.876 1.7813-4.6212 4.7746-13.366 5.1285-14.982 0.18132-0.82824 0.23355-0.85802 1.5047-0.85802 1.1279 0 1.2981 0.06629 1.1863 0.46201-0.0718 0.25411-0.50642 2.1847-0.96575 4.2901-2.6049 11.94-5.9324 23.151-9.4419 31.813l-1.2837 3.1681h-1.565c-0.86077 0-2.7753-0.09403-4.2545-0.20895l-2.6895-0.20895-0.0826 1.001-0.0826 1.001 2.8044 0.52801-1.9247 1.584c-5.6801 4.6748-6.0506 4.9254-7.0611 4.7757-0.52074-0.07711-1.6299-0.21675-2.4648-0.31033l-1.518-0.17014v1.0644c0 0.58544 0.13243 1.1086 0.29429 1.1625 0.16187 0.05396-1.604 1.5297-3.9242 3.2794l-4.2185 3.1813-1.4219-0.202c-0.78204-0.1111-1.8544-0.21068-2.383-0.22128-0.90648-0.01816-0.96728 0.03329-1.069 0.90494-0.0593 0.50832 3e-3 1.0355 0.1394 1.1715 0.15372 0.15372-0.72647 1.4273-2.3262 3.3659-1.4154 1.7152-4.4315 5.4002-6.7024 8.1887-2.2709 2.7886-4.2705 5.0755-4.4434 5.0821-0.17294 7e-3 -0.39231-0.11403-0.48749-0.26804zm-5.3921-6.9929c-1.2287-1.8806-3.6306-5.5281-5.3377-8.1054-1.9118-2.8865-2.9549-4.6861-2.7162-4.6861 0.27614 0 0.38755-0.30358 0.38755-1.056 0-1.0018-0.04143-1.056-0.80745-1.056-0.4441 0-1.6362 0.12859-2.6492 0.28576l-1.8417 0.28575-3.8756-3.2558c-3.0665-2.5761-3.7576-3.2729-3.3101-3.3377 0.49396-0.0715 0.54649-0.20507 0.41529-1.056-0.08261-0.5358-0.18823-1.0191-0.23471-1.074-0.04648-0.05493-1.2379 0.0453-2.6475 0.22273l-2.563 0.32261-3.1183-3.1268c-1.7151-1.7197-3.1205-3.2159-3.1233-3.3248-0.0027-0.1089 0.49998-0.19963 1.1171-0.20161 2.0049-0.0064 2.3101-0.18834 2.3101-1.3772v-1.0552l-1.122 0.15396c-0.61712 0.08468-2.3906 0.23261-3.9411 0.32874l-2.8191 0.17479-2.1502-4.294c-4.7912-9.5683-9.1114-20.366-12.306-30.756-0.49104-1.5972-0.89317-3.0585-0.89361-3.2473-5.28e-4 -0.25057 0.40276-0.32182 1.4947-0.26401l1.4955 0.07918 0.89635 2.2441c4.3589 10.913 10.832 23.596 16.564 32.459l1.7501 2.7055 2.4214-0.19258 6.5008 8.5103 2.5372-0.43163 8.4482 8.6783 3.076-0.42825 4.2176 8.432c3.8585 7.7141 4.2108 8.5355 4.1382 9.648l-0.07944 1.216zm4.5879 2.0553c0.07091-0.99135 0.94118-2.9613 4.1112-9.3062 2.2117-4.4268 4.1252-8.1775 4.2523-8.335 0.15331-0.18997 0.73595-0.21784 1.7311-0.08279l1.5 0.20356 8.3312-8.5925 2.8009 0.20342 6.2793-8.3891 2.4329 0.22821 1.9573-2.9945c4.8224-7.3779 10.716-18.723 14.792-28.471 1.1837-2.8315 2.248-5.3263 2.3652-5.5441 0.14183-0.26364 0.71412-0.42256 1.7122-0.47544l1.4991-0.07943-0.17029 0.73944c-0.0937 0.40669-1.0917 3.5313-2.2179 6.9436-3.1998 9.6954-6.3436 17.394-10.767 26.368l-2.2612 4.5872-2.7944-0.17313c-1.5369-0.09522-3.285-0.24027-3.8846-0.32232l-1.0902-0.14918-0.12636 1.0152c-0.0695 0.55838-0.0834 1.0652-0.0309 1.1262 0.0525 0.06103 0.85642 0.17983 1.7865 0.26401l1.691 0.15306-2.6947 2.7721c-3.9848 4.0993-3.3758 3.7654-6.2344 3.4179-2.6877-0.32679-2.8911-0.24833-2.899 1.1179-3e-3 0.51738 0.14481 0.73034 0.54954 0.79202 0.4329 0.06597-0.29231 0.79288-3.3268 3.3346l-3.8804 3.2503-1.8058-0.28018c-3.0856-0.47875-3.3456-0.42939-3.4727 0.65937-0.0721 0.61775 0.0148 1.0092 0.25367 1.1429 0.27379 0.15322-0.92649 2.164-4.8693 8.1573-2.878 4.3747-5.3173 7.9591-5.4207 7.9653-0.10343 6e-3 -0.14758-0.55449-0.0981-1.2462zm-5.258-12.07c-1.5972-3.1916-2.9437-5.8944-2.9921-6.0061-0.0484-0.11179 0.16488-0.20325 0.47397-0.20325 0.50521 0 0.5439-0.1 0.38299-0.99002-0.09844-0.54451-0.22196-1.0389-0.27447-1.0985-0.05252-0.05968-1.2531 0.03375-2.6679 0.20762l-2.5724 0.31613-3.2834-3.3097c-2.9967-3.0207-3.2188-3.3097-2.5435-3.3097 0.72163 0 0.73555-0.02753 0.56212-1.1121-0.09781-0.61166-0.2021-1.1314-0.23175-1.155-0.02965-0.0236-1.2372 0.11121-2.6835 0.29959-2.3955 0.31202-2.6583 0.30321-2.9518-0.099-0.17725-0.24283-1.2784-1.6889-2.447-3.2136l-2.1247-2.7721 0.98443-0.06772c2.5387-0.17465 2.7005-0.25839 2.7005-1.3978v-1.0456l-2.3101 0.19955c-1.2705 0.10975-3.0183 0.19954-3.8839 0.19954h-1.5738l-1.7558-2.7721c-5.262-8.3078-10.834-19.318-15.135-29.907-0.81282-2.001-1.4778-3.7534-1.4778-3.8941 0-0.1574 2.2097-0.25466 5.7421-0.25273l5.7421 0.0031 1.7156 3.3629c6.1437 12.043 15.65 27.756 22.441 37.095l2.2441 3.0858 24.121 0.0112 0.90305-1.122c1.5898-1.9753 7.1386-10.207 10.277-15.246 4.8812-7.8372 8.8984-14.882 13.962-24.485l1.4261-2.7047 5.7421-0.0013c3.1582-7.92e-4 5.7421 0.0649 5.7421 0.14593 0 0.08103-0.63862 1.7146-1.4192 3.6301-4.4556 10.934-9.4947 20.948-15.022 29.851l-2.1107 3.3996-2.5382-0.17583c-1.396-0.0967-3.1025-0.2459-3.7922-0.33156l-1.254-0.15573v1.0592c0 1.1934 0.30343 1.3748 2.3101 1.3812 0.61711 0.0021 1.122 0.0822 1.122 0.17827 0 0.18855-4.4906 6.1379-4.7359 6.2743-0.0815 0.04534-1.2768-0.06483-2.6563-0.24482-1.3794-0.17999-2.5972-0.27631-2.7061-0.21405-0.1089 0.06226-0.19801 0.57314-0.19801 1.1353 0 0.79702 0.11003 1.0407 0.49966 1.1064 0.39022 0.06589-0.17354 0.79557-2.5741 3.3316l-3.0737 3.2473-2.5966-0.32229c-2.8671-0.35595-3.0675-0.28078-3.0755 1.1538-3e-3 0.55186 0.12288 0.72602 0.52507 0.72602 0.45675 0 0.1136 0.83044-2.5092 6.0721-1.6711 3.3397-3.0848 6.0721-3.1416 6.0721-0.05682 0-0.09467-1.5147-0.0841-3.3661l0.01922-3.3661-1.0951-0.02627-1.0951 0.0086-0.07377 3.2369-0.07377 3.3809z" fill="none" stroke="#ff6a3d" stroke-linejoin="round" stroke-width="1.0583" style="mix-blend-mode:multiply"/>
  </g>
  <rect id="rect122" x="97.694" y="86.311" width="0" height="2.498" fill="#fff" stroke-width=".26401" style="mix-blend-mode:multiply"/>
 </g>
</svg>
